<svg width="330" height="300" viewBox="0 0 330 300" fill="none" xmlns="http://www.w3.org/2000/svg">
<path d="M204.857 10.9591L285.572 112.977L294.839 111.606L214.124 9.58789L204.857 10.9591Z" fill="#F5F5F5"/>
<path d="M215.385 6.297L206.118 7.66821L204.857 10.9591L214.124 9.58791L215.385 6.297Z" fill="#28995A"/>
<path opacity="0.2" d="M215.385 6.297L206.118 7.66821L204.857 10.9591L214.124 9.58791L215.385 6.297Z" fill="black"/>
<path d="M294.839 111.606L296.1 108.315L215.385 6.297L214.124 9.58791L294.839 111.606Z" fill="#FAFAFA"/>
<path d="M225.091 18.6379L223.72 21.8192L230.245 29.9367L231.506 26.7555L225.091 18.6379Z" fill="#28995A"/>
<path d="M214.124 9.58791L217.304 13.6467L218.566 10.4106L215.385 6.297L214.124 9.58791Z" fill="#28995A"/>
<path d="M237.922 34.9279L236.661 38.1091L243.186 46.3363L244.447 43.0454L237.922 34.9279Z" fill="#28995A"/>
<path d="M250.862 51.2727L249.601 54.4539L256.017 62.5715L257.388 59.3903L250.862 51.2727Z" fill="#28995A"/>
<path d="M263.803 67.5627L262.542 70.744L268.957 78.9712L270.219 75.6803L263.803 67.5627Z" fill="#28995A"/>
<path d="M276.744 83.7979L275.483 87.0888L281.898 95.2612L283.159 92.08L276.744 83.7979Z" fill="#28995A"/>
<path d="M289.684 100.198L288.314 103.379L294.839 111.606L296.1 108.315L289.684 100.198Z" fill="#28995A"/>
<g opacity="0.4">
<path opacity="0.4" d="M225.091 18.6379L223.72 21.8192L230.245 29.9367L231.506 26.7555L225.091 18.6379Z" fill="white"/>
<path opacity="0.4" d="M214.124 9.58791L217.304 13.6467L218.566 10.4106L215.385 6.297L214.124 9.58791Z" fill="white"/>
<path opacity="0.4" d="M237.922 34.9279L236.661 38.1091L243.186 46.3363L244.447 43.0454L237.922 34.9279Z" fill="white"/>
<path opacity="0.4" d="M250.862 51.2727L249.601 54.4539L256.017 62.5715L257.388 59.3903L250.862 51.2727Z" fill="white"/>
<path opacity="0.4" d="M263.803 67.5627L262.542 70.744L268.957 78.9712L270.219 75.6803L263.803 67.5627Z" fill="white"/>
<path opacity="0.4" d="M276.744 83.7979L275.483 87.0888L281.898 95.2612L283.159 92.08L276.744 83.7979Z" fill="white"/>
<path opacity="0.4" d="M289.684 100.198L288.314 103.379L294.839 111.606L296.1 108.315L289.684 100.198Z" fill="white"/>
</g>
<path d="M268.957 78.9712L263.255 71.7861L262.542 70.7439L248.998 66.74L255.414 74.8576L268.957 78.9712Z" fill="#28995A"/>
<path d="M243.186 46.3364L236.661 38.1092L223.117 34.1052L229.532 42.2228L243.186 46.3364Z" fill="#28995A"/>
<path d="M216.701 25.823L230.245 29.9367L224.926 23.3L223.72 21.8191L210.176 17.7054L216.701 25.823Z" fill="#28995A"/>
<path d="M256.017 62.5715L249.821 54.7282L249.601 54.454L236.057 50.3403L242.473 58.5127L256.017 62.5715Z" fill="#28995A"/>
<path d="M268.354 91.1476L281.898 95.2612L277.128 89.1731L275.483 87.0888L261.829 83.03L268.354 91.1476Z" fill="#28995A"/>
<path d="M217.304 13.6467L214.124 9.58789L208.696 10.4106L217.304 13.6467Z" fill="#28995A"/>
<path d="M293.742 110.235L288.314 103.379L274.77 99.3749L281.295 107.492L294.839 111.606L293.742 110.235Z" fill="#28995A"/>
<path d="M287.93 112.648L297.142 124.112L303.996 123.124L294.839 111.606L287.93 112.648Z" fill="#37474F"/>
<path d="M303.996 123.124L305.257 119.943L296.1 108.315L294.839 111.606L303.996 123.124Z" fill="#455A64"/>
<path d="M289.41 178.466L310.411 166.345L328.397 176.656L307.45 188.833L289.41 178.466Z" fill="#455A64"/>
<path d="M289.41 178.466V181.922L307.451 192.343V188.833L289.41 178.466Z" fill="#263238"/>
<path d="M328.397 176.656V180.222L307.45 192.343V188.833L328.397 176.656Z" fill="#37474F"/>
<path d="M309.479 106.67C308.931 106.395 308.163 106.395 307.176 106.834L298.567 111.825C296.868 112.868 295.387 115.391 295.387 117.365V178.411L307.45 185.377L322.475 176.656V115.61C322.475 114.568 322.091 113.91 321.543 113.526C320.939 113.251 310.028 106.999 309.479 106.67Z" fill="#28995A"/>
<path opacity="0.2" d="M308.328 121.205C307.779 122.247 307.396 123.289 307.396 124.386V185.432L295.332 178.466V117.365C295.332 116.323 295.716 115.171 296.264 114.184L308.328 121.205Z" fill="black"/>
<path d="M307.45 124.331C307.45 122.301 308.876 119.833 310.631 118.791L319.24 113.8C320.94 112.758 322.42 113.635 322.42 115.61V176.656L307.396 185.377V124.331H307.45Z" fill="#28995A"/>
<path opacity="0.4" d="M321.433 113.635C320.885 113.361 320.117 113.361 319.24 113.91L310.631 118.901C309.753 119.394 308.931 120.217 308.328 121.314L296.264 114.348C296.813 113.416 297.58 112.429 298.567 111.935L307.176 106.944C308.054 106.45 308.876 106.395 309.479 106.779C310.028 106.999 320.556 113.032 321.433 113.635Z" fill="white"/>
<path d="M310.411 125.867L319.404 120.711V127.567L310.411 132.778V125.867Z" fill="#455A64"/>
<path d="M318.582 127.128L319.404 127.567V120.711L318.582 121.205V127.128Z" fill="#37474F"/>
<path d="M318.582 127.128V121.205L310.411 125.867V131.79L318.582 127.128Z" fill="#28995A"/>
<path opacity="0.4" d="M318.582 127.128V121.205L310.411 125.867V131.79L318.582 127.128Z" fill="black"/>
<path d="M310.412 136.672C310.302 136.672 310.137 136.562 310.137 136.507C310.028 136.343 310.137 136.123 310.247 136.014L319.24 130.858C319.404 130.748 319.623 130.858 319.733 130.968C319.843 131.132 319.733 131.351 319.623 131.461L310.631 136.617C310.521 136.562 310.521 136.672 310.412 136.672Z" fill="#455A64"/>
<path d="M310.412 140.127C310.302 140.127 310.137 140.018 310.137 139.963C310.028 139.798 310.137 139.579 310.247 139.469L319.24 134.313C319.404 134.204 319.623 134.313 319.733 134.423C319.843 134.588 319.733 134.807 319.623 134.917L310.631 140.072C310.521 140.127 310.521 140.127 310.412 140.127Z" fill="#455A64"/>
<path d="M310.412 143.583C310.302 143.583 310.137 143.473 310.137 143.418C310.028 143.254 310.137 143.034 310.247 142.924L319.24 137.769C319.404 137.659 319.623 137.769 319.733 137.878C319.843 138.043 319.733 138.262 319.623 138.372L310.631 143.528C310.521 143.583 310.521 143.583 310.412 143.583Z" fill="#455A64"/>
<path d="M125.075 88.3152C127.762 87.1634 128.913 85.4082 129.352 82.5013C129.79 79.5943 129.571 76.5228 125.075 73.3964C120.633 70.4895 117.343 71.4767 115.589 72.2446L125.075 88.3152Z" fill="#455A64"/>
<path d="M123.32 88.5346C122.717 88.5346 121.949 88.1507 121.401 87.7668L116.74 84.6952C114.821 83.324 113.286 80.6365 113.669 78.3328L114.053 74.8774C114.273 72.9577 115.589 71.8059 117.508 71.9704C118.111 71.9704 118.879 72.3543 119.427 72.7383L124.088 75.8098C126.007 77.181 127.542 79.8686 127.158 82.1722L126.775 85.6277C126.391 87.5474 125.075 88.6992 123.32 88.5346Z" fill="#263238"/>
<path d="M118.495 73.6707L123.156 76.7422C124.91 77.894 126.062 80.1976 125.842 81.9528L125.459 85.4082C125.239 87.1634 123.704 87.7119 122.169 86.7795L117.508 83.7079C115.753 82.5561 114.602 80.2525 114.821 78.4973L115.205 75.0419C115.424 73.2867 116.959 72.6834 118.495 73.6707Z" fill="#455A64"/>
<g opacity="0.2">
<path opacity="0.2" d="M119.866 74.6031L114.821 78.278L115.205 74.2192L116.576 73.2319C117.179 73.2319 117.727 73.2319 118.495 73.8353L119.866 74.6031Z" fill="white"/>
<path opacity="0.2" d="M123.923 77.2907L116.411 82.7207C116.192 82.5013 116.027 82.1173 115.808 81.9528L123.156 76.7422C123.32 76.9067 123.485 77.1261 123.923 77.2907Z" fill="white"/>
<path opacity="0.2" d="M125.623 82.1722V82.7755L120.798 86.231L118.659 84.8598L125.404 80.0331C125.623 80.5816 125.842 81.3495 125.623 82.1722Z" fill="white"/>
</g>
<path d="M139.167 219.897L105.335 200.425L127.762 187.262L161.758 206.952L139.167 219.897Z" fill="#FAFAFA"/>
<path opacity="0.3" d="M139.167 219.897L105.335 200.425L127.762 187.262L161.758 206.952L139.167 219.897Z" fill="black"/>
<path d="M251.575 155.011L217.798 135.485L223.172 128.739L257.004 148.21L251.575 155.011Z" fill="#FAFAFA"/>
<path opacity="0.3" d="M251.575 155.011L217.798 135.485L223.172 128.739L257.004 148.21L251.575 155.011Z" fill="black"/>
<path d="M127.542 221.652L131.381 213.918L122.114 208.488C119.208 206.733 115.369 206.953 110.928 209.476C101.826 214.686 94.5327 228.234 94.5327 239.807C94.5327 245.785 96.4519 250.063 99.7419 251.983H99.9612L109.447 257.413L113.505 249.296C121.182 243.482 127.159 231.909 127.542 221.652Z" fill="#37474F"/>
<path d="M127.542 221.652L131.381 213.918L122.114 208.488C119.208 206.733 115.369 206.953 110.928 209.476C101.826 214.686 94.5327 228.234 94.5327 239.807C94.5327 245.785 96.4519 250.063 99.7419 251.983H99.9612L109.447 257.413L113.505 249.296C121.182 243.482 127.159 231.909 127.542 221.652Z" fill="black"/>
<path d="M137.029 226.314C137.029 236.187 131.6 247.595 124.252 253.958C123.101 254.945 121.949 255.877 120.579 256.481C111.476 261.691 104.183 256.7 104.183 245.292C104.183 236.571 108.46 226.753 114.437 220.171C116.356 218.032 118.495 216.332 120.633 214.96C129.681 209.859 137.029 214.906 137.029 226.314Z" fill="#263238"/>
<path d="M120.633 222.036C126.446 218.745 131.052 222.255 131.052 229.769C131.052 237.503 126.391 246.389 120.633 249.679C114.821 252.97 110.215 249.46 110.215 241.946C110.16 234.212 114.821 225.327 120.633 222.036Z" fill="#37474F"/>
<path d="M125.459 233.828C125.075 237.668 122.553 241.562 120.03 242.933C118.879 243.536 117.892 243.317 117.124 242.714C116.137 241.946 115.753 240.41 115.973 238.271C116.356 234.432 118.879 230.373 121.401 229.166C122.169 228.782 122.772 228.782 123.32 228.947C124.856 229.221 125.623 230.921 125.459 233.828Z" fill="#455A64"/>
<path d="M137.028 226.314C137.028 236.187 131.6 247.595 124.252 253.958C128.694 249.295 133.135 241.178 134.671 233.664C136.041 227.082 135.658 217.648 129.845 215.125C124.252 212.821 116.685 217.812 114.382 220.171C116.301 218.032 118.44 216.332 120.578 214.96C129.681 209.859 137.028 214.906 137.028 226.314Z" fill="#455A64"/>
<path d="M240.006 156.711L243.844 148.978L234.577 143.548C231.671 141.792 227.833 142.012 223.391 144.535C214.289 149.745 206.996 163.293 206.996 174.866C206.996 180.845 208.915 185.123 212.205 187.042H212.424L221.911 192.472L225.968 184.355C233.809 178.76 239.622 166.968 240.006 156.711Z" fill="#37474F"/>
<path d="M240.006 156.711L243.844 148.978L234.577 143.548C231.671 141.792 227.833 142.012 223.391 144.535C214.289 149.745 206.996 163.293 206.996 174.866C206.996 180.845 208.915 185.123 212.205 187.042H212.424L221.911 192.472L225.968 184.355C233.809 178.76 239.622 166.968 240.006 156.711Z" fill="black"/>
<path d="M249.656 161.538C249.656 171.411 244.228 182.819 236.88 189.182C235.729 190.169 234.577 191.101 233.206 191.705C224.104 196.915 216.811 191.924 216.811 180.515C216.811 171.795 221.088 161.977 227.065 155.395C228.984 153.256 231.123 151.555 233.261 150.184C242.309 145.138 249.656 150.184 249.656 161.538Z" fill="#263238"/>
<path d="M233.042 157.315C238.854 154.024 243.46 157.534 243.46 165.048C243.46 172.562 238.799 181.667 233.042 184.958C227.229 188.249 222.623 184.739 222.623 177.225C222.623 169.491 227.449 160.605 233.042 157.315Z" fill="#37474F"/>
<path d="M237.867 168.888C237.483 172.727 234.961 176.621 232.439 177.992C231.287 178.596 230.3 178.376 229.532 177.773C228.545 177.005 228.162 175.469 228.381 173.33C228.765 169.491 231.287 165.432 233.809 164.225C234.577 163.842 235.18 163.842 235.729 164.006C237.264 164.28 238.086 166.2 237.867 168.888Z" fill="#455A64"/>
<path d="M249.656 161.538C249.656 171.411 244.228 182.819 236.88 189.182C241.322 184.519 245.763 176.402 247.298 168.888C248.669 162.306 248.285 152.872 242.473 150.349C236.88 148.045 229.313 153.036 227.01 155.395C228.929 153.256 231.068 151.555 233.206 150.184C242.309 145.138 249.656 150.184 249.656 161.538Z" fill="#455A64"/>
<path d="M267.038 124.296V135.32C267.038 141.299 261.61 149.416 255.085 153.311L251.795 155.23C249.875 145.742 242.308 142.067 233.261 147.332C230.739 148.703 228.216 150.788 226.133 153.146C220.54 159.344 216.263 168.01 214.947 176.347L139.441 219.842C137.522 210.353 129.955 206.678 120.907 211.944C118.385 213.479 115.863 215.399 113.779 217.922C108.186 224.12 103.909 232.786 102.593 241.123L95.0809 245.401C88.5009 249.241 82.3048 249.46 71.1188 245.401C59.9328 241.343 29.3906 224.559 16.2306 213.699C7.40243 206.569 4.11243 200.809 4.11243 193.624V180.68C4.11243 180.077 4.11243 179.309 4.11243 178.76C4.11243 178.212 4.11243 177.609 4.33176 177.005C4.55109 174.318 4.71559 171.795 5.31876 169.272C5.53809 168.12 5.70259 166.968 6.08643 165.816C8.00559 157.095 11.5149 149.8 14.5856 144.974C22.7009 132.194 25.7716 129.287 33.8869 124.46L60.5359 135.101C60.5359 135.101 151.34 82.7207 165.816 74.4385C180.292 66.1564 218.949 68.6246 241.321 82.94C263.364 97.2007 267.038 109.377 267.038 124.296Z" fill="white"/>
<path opacity="0.15" d="M267.038 124.296V135.32C267.038 141.299 261.61 149.416 255.085 153.311L251.795 155.23C249.875 145.742 242.308 142.067 233.261 147.332C230.739 148.703 228.216 150.788 226.133 153.146C220.54 159.344 216.263 168.01 214.947 176.347L139.441 219.842C137.522 210.353 129.955 206.678 120.907 211.944C118.385 213.479 115.863 215.399 113.779 217.922C108.186 224.12 103.909 232.786 102.593 241.123L95.0809 245.401C88.5009 249.241 82.3048 249.46 71.1188 245.401C59.9328 241.343 29.3906 224.559 16.2306 213.699C7.40243 206.569 4.11243 200.809 4.11243 193.624V180.68C4.11243 180.077 4.11243 179.309 4.11243 178.76C4.11243 178.212 4.11243 177.609 4.33176 177.005C4.55109 174.318 4.71559 171.795 5.31876 169.272C5.53809 168.12 5.70259 166.968 6.08643 165.816C8.00559 157.095 11.5149 149.8 14.5856 144.974C22.7009 132.194 25.7716 129.287 33.8869 124.46L60.5359 135.101C60.5359 135.101 115.808 103.234 146.898 85.2437C155.781 80.1977 216.427 125.996 220.101 124.844C240.389 118.866 255.633 108.993 258.155 96.6522C265.503 105.702 267.038 114.423 267.038 124.296Z" fill="black"/>
<path opacity="0.15" d="M106.322 160.605L33.1193 124.844C25.2233 129.506 22.0978 132.358 14.2018 144.919C11.1311 149.745 7.6218 157.26 5.70264 165.761C5.3188 166.913 5.09947 167.9 4.93497 169.217C4.3318 171.74 4.1673 174.427 3.94797 176.95C3.94797 177.554 3.94797 178.102 3.72864 178.705C3.72864 179.309 3.72864 180.077 3.72864 180.625V193.624C3.72864 200.755 7.18314 206.568 15.6823 213.534C28.8423 224.339 59.3296 241.178 70.5705 245.237C77.9181 247.924 83.1273 248.692 87.7881 247.924C86.0335 243.098 87.5688 233.225 90.0911 213.699C93.3811 189.401 97.6033 170.478 106.322 160.605Z" fill="black"/>
<path d="M218.182 126.215C222.459 123.692 224.378 120.018 222.843 115.959L176.892 107.073V120.237L218.182 126.215Z" fill="#263238"/>
<path d="M120.414 78.6619C131.435 78.6619 158.249 78.6619 165.597 78.6619C172.944 78.6619 185.501 82.94 201.129 93.1419C216.756 103.399 233.59 117.111 219.882 125.228L120.414 78.6619Z" fill="#263238"/>
<path d="M121.785 80.0331C121.785 80.0331 162.142 80.0331 166.967 80.0331C173.931 80.0331 188.023 87.5473 199.209 94.1291C210.395 100.711 227.778 116.727 221.801 120.237C219.662 121.608 214.453 120.84 199.209 118.866C184.898 117.111 179.908 116.562 179.908 116.562L121.785 80.0331Z" fill="#455A64"/>
<path opacity="0.2" d="M219.498 110.913C214.672 104.934 205.954 97.7492 199.429 93.9098C188.243 87.328 174.096 79.8137 167.187 79.8137C162.361 79.8137 122.004 79.8137 122.004 79.8137L142.841 92.9774L148.269 90.4543C141.525 86.3955 160.607 84.4758 171.628 86.0116C182.211 87.5474 211.382 100.876 219.498 110.913Z" fill="white"/>
<path d="M110.16 166.803C109.557 173.166 109.776 175.689 109.776 180.132C109.996 184.574 113.231 186.494 117.288 184.19L217.908 126.216C221.965 123.912 221.362 121.553 216.921 121.005L190.655 117.714C185.995 117.111 179.086 118.482 175.192 120.786L117.343 154.243C113.286 156.711 110.763 160.606 110.16 166.803Z" fill="#263238"/>
<path d="M112.299 166.2C111.531 171.246 111.531 177.005 111.915 179.748C112.299 182.271 114.437 183.203 117.124 181.667L210.615 127.751C213.302 126.215 212.918 124.68 209.847 124.296L187.037 121.389C183.966 121.005 179.305 121.992 176.783 123.528L117.069 157.918C114.437 159.454 113.066 161.154 112.299 166.2Z" fill="#37474F"/>
<path d="M153.862 133.73V162.745L155.781 161.538V132.797L153.862 133.73Z" fill="#263238"/>
<path d="M188.023 119.414V142.999L189.943 141.847V118.262L188.023 119.414Z" fill="#263238"/>
<path d="M86.8013 163.677C90.8589 165.981 97.2196 165.981 101.277 163.677L176.015 120.566C182.595 116.727 182.595 110.529 176.015 106.635L132.368 81.5139C125.788 77.6746 114.986 77.6746 108.406 81.5139L33.6678 124.68C29.6101 126.983 29.6101 130.658 33.6678 132.962L86.8013 163.677Z" fill="white"/>
<path opacity="0.15" d="M91.0782 156.931C78.9052 151.336 70.406 146.674 60.3715 137.405C50.337 128.135 56.3139 115.959 80.4406 97.42L33.5032 124.46C29.4455 126.764 29.4455 130.439 33.5032 132.742L86.8012 163.458C90.8589 165.761 97.2196 165.761 101.277 163.458L126.172 149.142C125.843 149.416 103.251 162.525 91.0782 156.931Z" fill="black"/>
<path opacity="0.3" d="M176.07 106.689L132.423 81.5687C127.981 79.0457 121.785 78.2778 116.027 79.0457C119.482 78.8263 122.607 79.6491 126.062 81.1848C131.655 83.7078 148.105 93.3612 166.419 103.398C184.788 113.655 177.605 117.33 172.615 120.182C167.571 123.089 109.447 159.015 101.332 163.677L176.07 120.566C182.595 116.727 182.595 110.529 176.07 106.689Z" fill="white"/>
<path d="M27.5264 209.311V199.438C27.5264 198.286 28.294 197.683 29.4455 198.286L46.2245 207.94C46.9922 208.324 47.7599 209.695 47.7599 210.627V220.281C47.7599 221.432 46.7729 222.036 45.8407 221.433L29.0617 211.779C28.294 211.395 27.5264 210.243 27.5264 209.311Z" fill="#37474F"/>
<path d="M30.7615 187.646V186.275C30.7615 184.739 31.913 184.136 33.0645 184.903L48.5275 193.789C49.8983 194.557 50.8305 196.476 50.8305 198.067V199.219C50.8305 200.755 49.679 201.358 48.5275 200.59L33.0645 191.705C31.7485 190.937 30.7615 189.182 30.7615 187.646Z" fill="#FAFAFA"/>
<path opacity="0.2" d="M30.7615 187.646V186.275C30.7615 184.739 31.913 184.136 33.0645 184.903L48.5275 193.789C49.8983 194.557 50.8305 196.476 50.8305 198.067V199.219C50.8305 200.755 49.679 201.358 48.5275 200.59L33.0645 191.705C31.7485 190.937 30.7615 189.182 30.7615 187.646Z" fill="white"/>
<path d="M75.7797 205.636C72.4897 206.623 68.2675 208.708 67.2805 213.37C65.9097 218.964 68.0482 223.791 72.709 224.943C74.6282 225.546 79.6728 224.723 83.5112 219.129C86.198 215.289 86.5818 209.256 85.0465 207.336C83.5112 205.417 79.4535 204.649 75.7797 205.636Z" fill="#37474F"/>
<path d="M77.5343 211.999C77.5343 214.138 75.7796 215.673 73.8605 215.673C71.722 215.673 70.1866 213.918 70.1866 211.999C70.1866 209.859 71.9413 208.324 73.8605 208.324C75.999 208.324 77.5343 210.079 77.5343 211.999Z" fill="#FAFAFA"/>
<path d="M74.6282 219.513C74.6282 220.665 73.6412 221.652 72.4897 221.652C71.3382 221.652 70.3512 220.665 70.3512 219.513C70.3512 218.361 71.3382 217.374 72.4897 217.374C73.696 217.429 74.6282 218.361 74.6282 219.513Z" fill="#FAFAFA"/>
<path d="M8.17014 186.11C7.40247 187.262 5.6478 187.262 3.72864 184.739V180.899C3.72864 180.296 3.72864 179.528 3.72864 178.98C3.72864 178.431 3.72864 177.828 3.94797 177.225C4.1673 174.537 4.3318 172.014 4.93497 169.491C5.1543 168.339 5.3188 167.187 5.70264 166.036C7.4573 167.571 9.15714 170.478 9.37647 173.001C9.54097 177.389 9.32164 184.739 8.17014 186.11Z" fill="#37474F"/>
<path d="M5.09947 178.76C4.4963 178.76 4.11247 178.98 3.72864 179.364C3.72864 179.967 3.72864 180.351 3.72864 180.899V182.435C4.11247 182.819 4.4963 183.039 5.09947 183.039C6.25097 183.039 7.01864 182.051 7.01864 181.119C7.01864 179.748 6.25097 178.76 5.09947 178.76Z" fill="#FAFAFA"/>
<path d="M7.78633 173.166C7.78633 175.305 6.03166 177.005 3.948 177.225C4.16733 174.537 4.33183 172.014 4.935 169.491C6.47033 169.875 7.78633 171.246 7.78633 173.166Z" fill="#FAFAFA"/>
<path d="M251.192 90.2898C259.91 101.314 234.577 118.866 223.172 125.448C211.766 131.81 140.483 173.166 140.483 173.166C140.483 173.166 228.381 126.599 249.601 118.866C263.694 113.655 266.984 131.207 266.984 135.101V124.076C267.038 111.9 264.516 101.479 251.192 90.2898Z" fill="#FAFAFA"/>
<path opacity="0.1" d="M251.192 90.2898C259.91 101.314 234.577 118.866 223.172 125.448C211.766 131.81 140.483 173.166 140.483 173.166C140.483 173.166 228.381 126.599 249.601 118.866C263.694 113.655 266.984 131.207 266.984 135.101V124.076C267.038 111.9 264.516 101.479 251.192 90.2898Z" fill="white"/>
<path d="M111.75 213.37C113.889 210.847 116.411 208.543 119.098 206.623C121.785 204.704 124.91 203.333 128.365 202.784C130.12 202.565 131.819 202.565 133.41 202.784C135.164 203.168 136.7 203.771 138.07 204.923C140.757 206.843 142.512 209.969 143.499 213.205C142.347 210.134 140.428 207.227 137.906 205.472C136.535 204.484 135 203.936 133.464 203.552C131.929 203.333 130.174 203.333 128.639 203.552C125.349 204.155 122.443 205.472 119.537 207.227C116.576 208.708 114.053 210.847 111.75 213.37Z" fill="#FAFAFA"/>
<path d="M223.775 148.429C225.913 145.906 228.436 143.602 231.123 141.683C233.809 139.763 236.935 138.392 240.389 137.843C242.144 137.624 243.844 137.624 245.434 137.843C247.189 138.227 248.724 138.831 250.095 139.982C252.782 141.902 254.536 145.029 255.523 148.265C254.372 145.193 252.453 142.286 249.93 140.531C248.56 139.544 247.024 138.995 245.489 138.611C243.954 138.392 242.199 138.392 240.664 138.611C237.374 139.215 234.467 140.531 231.561 142.286C228.6 143.986 226.078 146.126 223.775 148.429Z" fill="#FAFAFA"/>
<path opacity="0.2" d="M145.911 211.231C156.33 204.484 166.967 198.067 177.605 191.924C183.034 188.853 188.243 185.726 193.616 182.655C199.045 179.583 204.419 176.457 209.847 173.55L209.463 174.153C209.847 170.478 210.834 167.023 212.369 163.732C213.74 160.441 215.66 157.369 218.346 154.846C216.043 157.534 214.508 160.66 213.302 163.951C212.095 167.242 211.382 170.698 211.163 174.208V174.592L210.779 174.811C205.57 178.102 200.142 181.174 194.768 184.3C189.559 187.372 184.13 190.498 178.757 193.569C167.735 199.822 156.933 205.636 145.911 211.231Z" fill="black"/>
<path d="M260.678 100.492C262.432 105.154 257.772 112.284 258.539 118.866C259.307 125.612 264.516 125.996 266.819 118.866C267.806 111.352 262.213 101.479 260.678 100.492Z" fill="#28995A"/>
<path opacity="0.7" d="M260.678 100.492C262.432 105.154 257.772 112.284 258.539 118.866C259.307 125.612 264.516 125.996 266.819 118.866C267.806 111.352 262.213 101.479 260.678 100.492Z" fill="white"/>
<path d="M11.844 155.176C15.6823 148.21 19.9593 141.847 25.1685 136.417C27.307 134.114 31.1453 133.894 33.6676 135.814C51.0498 148.155 69.8028 158.796 89.1041 167.9C91.791 169.272 92.9425 172.343 91.6265 175.25C88.3365 181.996 86.0335 189.566 84.1143 197.464C83.3466 200.371 80.6598 202.126 77.7536 200.919C53.4076 191.266 31.9678 179.09 13.5986 164.006C11.0763 161.757 10.3086 157.918 11.844 155.176Z" fill="#263238"/>
<path d="M79.4534 199.054C79.0696 199.054 78.6858 199.054 78.3019 198.835C53.5721 189.017 32.1323 176.621 14.5856 162.361C12.8309 160.99 12.4471 158.083 13.4341 156.382C17.4918 148.868 21.7139 142.835 26.3748 138.008C27.1424 137.24 28.2939 136.856 29.4454 136.856C30.4324 136.856 31.3646 137.24 32.1323 137.624C48.9113 149.581 67.8836 160.441 87.9526 169.875C88.7203 170.259 89.3234 170.862 89.7073 171.795C90.0911 172.782 89.9266 173.714 89.4879 174.482C86.4173 180.845 83.8949 188.414 81.7564 197.08C81.8113 198.287 80.8243 199.054 79.4534 199.054Z" fill="#455A64"/>
<path d="M89.8718 171.411C89.488 170.643 88.8848 169.875 88.1172 169.491C70.8995 161.373 54.7237 152.269 39.6445 142.451L12.7762 157.918C12.5568 159.454 13.16 161.209 14.5308 162.361C31.913 176.676 53.3528 189.017 78.302 198.89C78.6858 199.109 79.0697 199.109 79.4535 199.109C80.8243 199.109 81.7565 198.122 82.1404 196.806C84.2788 188.085 86.8012 180.57 89.8718 174.208C90.3105 173.33 90.3105 172.398 89.8718 171.411Z" fill="#37474F"/>
<path d="M2.41267 193.844C3.18034 197.518 15.3533 209.475 35.6417 220.719C55.93 231.963 72.9283 241.013 83.1822 240.629C93.436 240.026 106.377 231.525 106.377 231.525C106.377 231.525 103.854 239.039 103.69 242.549C103.69 242.549 93.0522 249.295 84.1692 249.899C78.3568 250.283 70.8447 251.435 35.3127 230.976C11.7343 217.428 4.60601 209.914 1.91917 203.936C0.54834 200.864 0.54834 196.422 0.54834 194.447C0.767673 187.701 3.61901 187.097 3.61901 187.097C2.57717 188.633 1.64501 190.169 2.41267 193.844Z" fill="#FAFAFA"/>
<path opacity="0.3" d="M2.41267 193.844C3.18034 197.518 15.3533 209.475 35.6417 220.719C55.93 231.963 72.9283 241.013 83.1822 240.629C93.436 240.026 106.377 231.525 106.377 231.525C106.377 231.525 103.854 239.039 103.69 242.549C103.69 242.549 93.0522 249.295 84.1692 249.899C78.3568 250.283 70.8447 251.435 35.3127 230.976C11.7343 217.428 4.60601 209.914 1.91917 203.936C0.54834 200.864 0.54834 196.422 0.54834 194.447C0.767673 187.701 3.61901 187.097 3.61901 187.097C2.57717 188.633 1.64501 190.169 2.41267 193.844Z" fill="black"/>
<path d="M3.72871 187.262C2.35787 188.414 1.59021 189.949 2.35787 193.844C3.12554 197.519 15.2985 209.475 35.5869 220.719C55.8752 231.963 72.8736 241.013 83.1274 240.629C93.3812 240.026 106.322 231.525 106.322 231.525L105.17 230.921C105.17 230.921 92.0104 239.203 83.1274 239.203C74.2444 238.984 62.0714 234.541 36.9577 220.061C11.844 205.362 5.09954 196.476 3.94804 193.405L3.72871 187.262Z" fill="#FAFAFA"/>
<path d="M217.195 141.463C219.882 140.311 221.033 138.556 221.472 135.649C221.856 132.742 221.691 129.671 217.195 126.545C212.753 123.638 209.463 124.625 207.709 125.393L217.195 141.463Z" fill="#455A64"/>
<path d="M215.44 141.847C214.837 141.847 214.069 141.463 213.521 141.079L208.86 138.008C206.941 136.637 205.406 133.949 205.789 131.645L206.173 128.19C206.393 126.27 207.709 125.118 209.628 125.283C210.231 125.283 210.999 125.667 211.547 126.051L216.208 129.122C218.127 130.494 219.662 133.181 219.278 135.485L218.895 138.94C218.566 140.915 217.195 142.067 215.44 141.847Z" fill="#263238"/>
<path d="M210.615 126.983L215.276 130.055C217.03 131.207 218.182 133.51 217.962 135.265L217.579 138.721C217.359 140.476 215.824 141.024 214.289 140.092L209.628 137.021C207.873 135.869 206.722 133.565 206.941 131.81L207.325 128.354C207.544 126.38 209.079 125.831 210.615 126.983Z" fill="#455A64"/>
<g opacity="0.2">
<path opacity="0.2" d="M211.986 127.916L206.941 131.591L207.325 127.532L208.86 126.545C209.463 126.545 210.012 126.545 210.779 127.148L211.986 127.916Z" fill="white"/>
<path opacity="0.2" d="M216.043 130.658L208.531 136.088C208.312 135.869 208.147 135.485 207.928 135.32L215.276 130.11C215.44 130.274 215.824 130.439 216.043 130.658Z" fill="white"/>
<path opacity="0.2" d="M217.962 135.266V135.869L213.137 139.324L210.999 137.953L217.743 133.126C217.798 133.949 217.962 134.717 217.962 135.266Z" fill="white"/>
</g>
<g opacity="0.2">
<path opacity="0.2" d="M107.473 174.921C107.693 180.735 107.857 186.713 108.241 192.527C108.46 195.434 108.844 198.341 109.996 201.029C110.599 202.4 111.531 203.332 113.066 203.552C114.437 203.552 115.753 202.948 117.124 202.4C119.811 201.413 122.717 200.48 125.623 199.712C128.529 199.109 131.436 198.725 134.506 199.328C137.412 199.932 140.099 201.632 141.854 204.155C143.609 206.459 144.541 209.366 145.308 212.053C144.321 209.366 143.389 206.459 141.47 204.32C139.715 202.016 137.193 200.261 134.342 199.877C131.436 199.274 128.529 199.658 125.843 200.261C122.936 200.864 120.25 202.016 117.563 202.948C116.795 203.168 116.192 203.552 115.424 203.716C115.04 203.716 114.657 203.936 114.273 203.936H113.121C111.367 203.936 110.215 202.4 109.667 201.029C108.296 198.341 108.296 195.215 107.912 192.308C107.309 186.658 107.473 180.68 107.473 174.921Z" fill="black"/>
</g>
<g opacity="0.2">
<path opacity="0.2" d="M155.946 162.909C156.165 170.039 156.33 177.225 156.33 184.355V194.996C156.33 198.451 156.111 202.126 156.111 205.636C155.891 202.181 155.891 198.506 155.891 194.996V184.355C155.782 177.225 155.782 170.039 155.946 162.909Z" fill="black"/>
</g>
<g opacity="0.2">
<path opacity="0.2" d="M204.254 135.266C204.474 142.396 204.638 149.362 204.638 156.547V167.187C204.638 170.643 204.419 174.318 204.419 177.828C204.199 174.372 204.199 170.698 204.199 167.187V156.547C203.87 149.416 203.87 142.231 204.254 135.266Z" fill="black"/>
</g>
<path d="M122.333 185.891L128.913 182.216C130.284 181.448 131.216 181.612 131.216 182.435C131.216 183.422 130.065 184.739 128.913 185.507L122.333 189.181C120.962 189.949 120.03 189.785 120.03 188.962C120.03 188.03 121.017 186.658 122.333 185.891Z" fill="#37474F"/>
<path d="M161.758 163.128L168.338 159.454C169.709 158.686 170.641 158.85 170.641 159.673C170.641 160.66 169.49 161.977 168.338 162.745L161.758 166.419C160.387 167.187 159.455 167.023 159.455 166.2C159.455 165.213 160.387 163.896 161.758 163.128Z" fill="#37474F"/>
<path d="M242.308 266.224C242.308 266.224 244.666 266.608 245.982 268.308C247.353 270.008 250.314 275.109 250.917 275.713C250.917 275.713 250.369 276.645 249.601 277.084L248.011 275.274C247.627 274.945 246.969 274.122 246.969 275.219C246.969 276.261 247.134 277.248 247.298 279.333C247.408 280.594 247.847 283.062 245.708 285.421C243.679 287.67 241.267 289.205 239.786 289.425C238.909 289.534 236.88 289.37 236.99 287.56C237.044 286.627 238.141 283.062 238.306 281.307C238.415 279.552 242.308 266.224 242.308 266.224Z" fill="#1A2E35"/>
<path d="M242.637 266.663C242.363 266.279 241.376 264.688 240.938 263.92C240.499 263.152 238.58 259.258 236.222 253.225C233.151 245.436 228.107 239.732 226.516 236.825C224.871 233.754 223.172 230.188 222.13 226.897L215.824 231.121L207.544 230.956C207.434 232.163 207.983 233.808 208.915 235.728V235.783C209.025 235.947 209.079 236.112 209.189 236.331C211.053 239.951 214.179 244.339 217.743 248.837C217.798 248.892 217.798 248.892 217.853 248.947C217.908 249.001 217.962 249.056 217.962 249.111C221.362 253.389 225.091 257.777 228.326 261.562V261.452C231.835 265.511 234.632 268.802 235.674 270.447C238.635 275.274 238.306 279.991 238.306 282.569C238.306 284.159 239.567 284.488 241.267 283.062C244.721 280.21 244.94 276.316 244.94 275.329C244.886 269.131 244.392 268.911 242.637 266.663Z" fill="#DD8669"/>
<path d="M209.518 185.871C208.97 190.862 206.667 196.895 205.789 208.743C204.967 219.877 204.638 225.636 205.57 231.121C205.899 233.095 206.996 235.344 208.915 238.141C215.056 247.027 227.065 260.904 227.065 260.904C227.065 260.904 229.697 260.739 232.768 258.051C235.729 255.419 235.729 251.689 235.729 251.689C235.729 251.689 235.345 249.605 230.245 241.432C225.146 233.26 224.213 224.21 224.213 224.21L226.133 188.558C218.675 189.491 213.137 188.613 209.518 185.871Z" fill="#375A64"/>
<path d="M232.767 258.052C235.728 255.419 235.728 251.689 235.728 251.689C235.728 251.689 235.345 249.605 230.245 241.432C225.146 233.26 224.213 224.21 224.213 224.21L225.694 196.895C219.827 196.182 211.602 196.566 211.602 196.566C211.602 200.461 212.589 205.232 218.127 207.975C218.127 207.975 217.798 227.172 217.853 232.766C217.908 237.045 219.498 247.85 220.211 252.786C224.049 257.448 227.065 260.958 227.065 260.958C227.065 260.958 229.697 260.739 232.767 258.052Z" fill="#2B454E"/>
<path d="M232.055 277.742C232.055 277.742 233.809 279.442 234.029 281.801C234.248 284.105 233.974 290.522 234.138 291.345C234.138 291.345 233.206 291.893 232.274 291.838L231.89 289.26C231.726 288.712 231.781 288.328 231.232 289.26C230.684 290.248 230.19 291.29 229.313 292.716C228.6 293.813 227.668 296.446 224.543 297.378C221.636 298.256 218.292 297.926 216.921 297.268C216.098 296.884 214.618 296.226 215.714 294.69C216.263 293.868 219.443 290.522 220.485 289.041C221.582 287.505 232.055 277.742 232.055 277.742Z" fill="#1A2E35"/>
<path d="M224.159 277.632C224.323 271.544 218.566 243.681 220.101 230.572L236.441 230.353C235.509 233.973 235.016 238.196 234.742 241.926C234.467 245.491 235.619 253.609 233.974 262.439C232.658 269.295 232.164 273.958 232.109 274.89C232.109 275.822 232 277.852 232.055 278.345C232.329 281.362 231.835 283.062 228.545 287.834C227.887 288.767 226.352 291.728 221.911 292.332C219.717 292.606 218.84 291.619 219.717 290.138C221.198 287.834 224.049 283.721 224.159 277.632Z" fill="#DD8669"/>
<path d="M234.796 241.981C234.741 243.352 234.851 244.723 234.906 246.149C234.961 247.521 235.016 248.892 235.07 250.318C235.125 253.06 235.07 255.858 234.796 258.655C234.632 260.026 234.412 261.397 234.193 262.769L233.425 266.827C233.206 268.199 232.932 269.515 232.713 270.886C232.493 272.257 232.274 273.629 232.164 275C232.274 272.257 232.713 269.515 233.096 266.772C233.48 264.03 234.138 261.342 234.358 258.6C234.522 257.229 234.632 255.858 234.687 254.486C234.741 253.115 234.741 251.744 234.741 250.373C234.741 249.002 234.741 247.63 234.687 246.204C234.687 244.723 234.687 243.352 234.796 241.981Z" fill="#C66150"/>
<path d="M209.518 185.871C209.518 185.871 208.586 192.014 210.834 197.828C212.753 202.874 216.263 205.616 219.882 206.658C219.882 206.658 219.498 229.585 219.279 232.766C219.059 235.948 220.211 247.466 221.143 255.035C222.075 262.604 222.349 265.182 222.349 265.182C222.349 265.182 223.994 266.827 228.381 266.772C232.768 266.718 234.138 264.743 234.138 264.743C234.138 264.743 236.606 255.858 236.496 248.947C236.441 244.998 235.509 243.078 236.112 239.129C236.716 235.18 241.486 217.573 242.089 209.236C242.692 200.954 241.102 193.714 235.125 185.487C229.094 189.875 215.221 189.71 209.518 185.871Z" fill="#375A64"/>
<path d="M232.658 186.913C235.893 191.191 240.664 200.077 237.977 213.185C237.209 216.915 236.441 220.535 235.674 223.991C233.919 232.163 232.548 238.58 232.438 240.994C232.384 242.365 232.548 243.626 232.768 245.107C233.097 247.411 233.535 250.318 233.097 254.761C232.713 258.929 232.055 263.317 231.561 266.334C231.726 266.279 231.945 266.224 232.055 266.169C232.548 263.207 233.151 258.929 233.535 254.815C233.974 250.263 233.535 247.356 233.206 245.052C232.987 243.626 232.822 242.365 232.877 241.048C232.987 238.635 234.358 232.218 236.112 224.1C236.88 220.645 237.648 217.025 238.415 213.295C241.157 200.077 236.387 191.081 233.097 186.694C232.932 186.803 232.767 186.858 232.658 186.913Z" fill="#2B454E"/>
<path d="M209.354 184.5C209.354 184.5 213.411 187.242 221.582 187.132C230.794 187.023 235.125 184.061 235.125 184.061C235.125 184.061 235.18 185.597 236.058 187.023C236.058 187.023 230.848 190.314 221.636 190.259C212.479 190.204 209.244 187.407 209.244 187.407C209.244 187.407 209.518 185.871 209.354 184.5Z" fill="#2B454E"/>
<path d="M215.111 156.637C212.37 157.076 210.286 157.076 207.928 160.476C205.461 163.932 202.664 168.21 198.935 173.53L189.778 168.923L185.885 175.23C185.885 175.23 195.645 181.922 199.319 183.293C202.061 184.28 202.719 183.128 204.857 181.044C207.215 178.741 214.069 171.226 214.069 171.226L215.111 156.637Z" fill="#DD8669"/>
<path d="M215.385 156.417C212.095 156.801 210.286 157.569 209.244 158.556C208.202 159.544 198.771 173.311 198.771 173.311L197.016 172.543C197.016 172.543 198.387 174.078 197.29 177.698C196.194 181.318 194.549 180.825 194.549 180.825C194.549 180.825 197.674 182.854 199.484 183.622C201.293 184.39 202.225 183.896 204.199 182.086C206.173 180.276 214.453 171.336 214.453 171.336L215.385 156.417Z" fill="#28995A"/>
<path opacity="0.15" d="M215.385 156.417C212.095 156.801 210.286 157.569 209.244 158.556C208.202 159.544 198.771 173.311 198.771 173.311L197.016 172.543C197.016 172.543 198.387 174.078 197.29 177.698C196.194 181.318 194.549 180.825 194.549 180.825C194.549 180.825 197.674 182.854 199.484 183.622C201.293 184.39 202.225 183.896 204.199 182.086C206.173 180.276 214.453 171.336 214.453 171.336L215.385 156.417Z" fill="black"/>
<path opacity="0.35" d="M198.771 173.311C200.306 173.914 202.116 175.614 202.335 176.547C201.951 174.024 199.922 173.036 199.21 172.652L198.771 173.311Z" fill="black"/>
<path d="M179.25 157.569L180.073 157.021C180.237 156.911 180.511 156.911 180.84 157.075L188.462 160.476C189.175 160.805 189.888 161.683 189.998 162.451L193.233 179.947C193.288 180.331 193.233 180.66 193.013 180.77L192.136 181.318C191.972 181.428 191.697 181.428 191.368 181.318L183.747 177.918C183.034 177.589 182.321 176.711 182.211 175.943C181.553 172.488 179.579 161.902 178.976 158.447C178.921 158.008 179.031 157.734 179.25 157.569Z" fill="#375A64"/>
<path d="M188.462 161.573C188.846 161.957 189.12 162.45 189.23 162.944L192.465 180.441C192.52 180.825 192.465 181.099 192.246 181.264L193.068 180.77C193.288 180.605 193.397 180.331 193.288 179.947L190.052 162.45C189.998 162.012 189.723 161.573 189.394 161.189L188.462 161.573Z" fill="#1A2E35"/>
<path d="M192.465 180.441L189.23 162.944C189.066 162.176 188.408 161.299 187.695 160.97L180.073 157.569C179.36 157.24 178.921 157.624 179.031 158.392C179.689 161.847 181.663 172.433 182.266 175.888C182.431 176.656 183.089 177.534 183.802 177.863L191.423 181.264C192.136 181.593 192.575 181.209 192.465 180.441Z" fill="#2B454E"/>
<path d="M188.682 166.454L188.078 163.164C188.078 162.999 187.914 162.834 187.804 162.78L186.379 162.121C186.269 162.067 186.159 162.121 186.159 162.286C186.269 162.944 186.653 164.919 186.762 165.577C186.762 165.741 186.927 165.906 187.037 165.961L188.462 166.619C188.572 166.674 188.682 166.564 188.682 166.454Z" fill="#375A64"/>
<path d="M187.859 163.877C187.804 163.548 187.475 163.109 187.092 162.944C186.763 162.78 186.543 162.944 186.598 163.273C186.653 163.602 186.982 164.041 187.366 164.206C187.695 164.425 187.914 164.261 187.859 163.877Z" fill="#1A2E35"/>
<path d="M188.133 165.577C188.079 165.248 187.75 164.809 187.366 164.645C187.037 164.48 186.817 164.644 186.872 164.974C186.927 165.303 187.256 165.741 187.64 165.906C187.969 166.071 188.243 165.906 188.133 165.577Z" fill="#1A2E35"/>
<path d="M179.086 167.826C178.373 166.619 178.428 166.454 178.921 165.906C179.415 165.358 180.511 164.48 181.992 164.644C182.979 164.754 184.021 164.809 184.514 165.138C185.008 165.467 184.459 166.509 183.143 166.674C181.06 166.948 181.005 167.551 181.005 167.551C181.005 167.551 182.924 167.277 183.692 167.277C184.459 167.277 185.83 167.771 186.708 167.99C187.585 168.21 187.64 169.361 186.159 169.581C186.159 169.581 187.256 169.855 187.749 169.965C188.846 170.239 189.175 170.842 188.243 171.501C188.024 171.665 187.695 171.83 187.201 171.775C187.201 171.775 188.407 171.884 188.407 172.268C188.407 173.42 187.64 173.64 185.172 174.133C182.814 174.627 182.266 175.834 182.65 176.711C182.65 176.711 181.773 176.108 181.005 175.45C180.457 174.956 179.963 174.462 180.292 173.53C180.292 173.53 178.976 173.475 178.976 172.652C178.976 171.83 179.415 170.952 179.415 170.952C179.415 170.952 178.647 170.513 178.812 169.526C178.921 168.539 179.415 168.155 179.415 168.155L179.086 167.826Z" fill="#DD8669"/>
<path d="M186.159 169.636C185.666 169.526 185.227 169.361 184.734 169.361C184.185 169.361 183.747 169.526 183.308 169.691C182.431 170.02 181.498 170.349 180.676 170.842C181.663 170.678 182.54 170.404 183.472 170.074C183.911 169.91 184.35 169.745 184.788 169.691C185.172 169.636 185.666 169.691 186.159 169.636Z" fill="#C66150"/>
<path d="M187.201 171.83C186.708 171.665 186.159 171.61 185.611 171.665C185.063 171.72 184.569 171.885 184.076 171.994C183.089 172.323 182.102 172.707 181.224 173.256C182.266 173.036 183.253 172.707 184.185 172.433C185.172 172.104 186.104 171.775 187.201 171.83Z" fill="#C66150"/>
<path d="M240.17 194.098C237.977 187.681 236.551 183.951 236.496 181.867C236.496 181.867 238.361 171.61 238.635 169.197C239.348 162.889 238.196 159.927 236.935 159.269C236.222 158.885 233.206 158.008 232.219 157.734C227.833 156.472 221.582 156.362 217.524 156.417C215.989 156.472 215.55 156.527 215.55 156.527C214.179 157.569 211.876 159.434 210.067 161.518C206.831 165.248 205.844 167.771 206.338 171.665C206.667 174.298 208.476 176.217 208.476 176.217C208.751 178.082 209.134 183.348 209.134 183.348C209.08 185.432 209.244 185.377 208.202 190.368C211.437 200.241 233.48 199.583 240.17 194.098Z" fill="#FAFAFA"/>
<path d="M230.3 130.693C232.329 129.816 234.851 130.364 236.387 131.955C237.922 133.6 238.251 135.959 238.47 138.153C238.69 140.017 238.964 141.992 239.019 143.857C239.073 145.502 240.17 146.435 241.376 147.532C242.418 148.464 243.405 149.726 243.296 151.097C243.186 152.029 242.583 152.852 242.692 153.784C242.802 154.497 243.296 155.101 243.789 155.649C244.612 156.637 245.434 157.788 245.379 159.105C245.27 160.531 244.118 161.683 242.857 162.341C239.622 164.041 235.783 163.328 232.713 161.573C229.697 159.818 228.107 156.198 227.887 152.852C227.723 150.603 228.107 148.409 228.491 146.16C228.765 144.515 229.039 142.924 229.478 141.334C229.752 140.347 230.136 139.359 230.355 138.317C230.848 136.233 230.794 134.039 230.19 132.01" fill="#1A2E35"/>
<path d="M232.493 130.638C233.535 131.516 234.303 132.723 234.632 134.039C234.742 134.368 234.742 134.807 234.632 135.136C234.413 135.63 233.809 135.904 233.261 135.849C232.713 135.794 232.219 135.465 231.781 135.081C230.903 134.258 230.3 133.161 230.136 131.955C230.026 131.406 230.081 130.529 230.629 130.2C231.232 129.816 232.055 130.254 232.493 130.638Z" fill="#28995A"/>
<path d="M211.931 138.975C210.67 136.288 211.712 132.613 213.083 130.858C215.057 128.335 218.237 127.183 223.117 127.293C226.791 127.402 231.287 128.938 232.11 132.668C235.564 134.313 234.522 139.085 233.645 141.114C231.835 145.393 229.258 148.738 229.258 150.932L211.931 138.975Z" fill="#1A2E35"/>
<path d="M213.905 133.216C213.083 133.874 211.712 135.684 211.931 138.975C212.041 139.963 211.712 141.224 211.712 143.089C211.712 150.164 213.686 151.645 215.605 152.468C216.756 152.962 217.36 153.071 219.169 153.017V156.307C219.169 156.307 216.427 158.447 218.347 164.151C226.955 158.337 229.313 155.814 229.313 155.814L229.368 146.819C229.423 146.874 230.519 147.806 232.274 146.819C234.193 145.777 234.961 142.54 233.7 141.005C232.439 139.524 230.19 140.182 229.532 141.608C228.436 143.967 227.175 142.815 227.613 141.773C226.681 141.334 225.584 140.401 226.407 136.727C226.571 135.794 226.242 134.149 225.365 133.326C223.885 132.01 220.978 132.284 219.333 133.984C217.03 132.119 215.605 131.845 213.905 133.216Z" fill="#DD8669"/>
<path d="M220.924 146.325L217.634 147.477C217.908 148.409 218.895 148.903 219.772 148.574C220.704 148.3 221.198 147.257 220.924 146.325Z" fill="#C66150"/>
<path d="M219.059 148.684C219.059 147.861 219.772 147.148 220.595 147.148C220.704 147.148 220.869 147.148 220.978 147.203C220.869 147.861 220.43 148.409 219.827 148.629C219.553 148.684 219.333 148.684 219.059 148.684Z" fill="#FFAAA8"/>
<path d="M218.347 139.14L217.908 145.447L214.728 143.967L218.347 139.14Z" fill="#C66150"/>
<path d="M219.169 153.017C221.417 152.907 226.297 151.645 227.449 148.629C227.449 148.629 227.284 150.768 224.488 152.468C222.294 153.784 219.169 154.059 219.169 154.059V153.017Z" fill="#C66150"/>
<path d="M220.924 141.114C220.978 141.663 221.472 142.047 222.02 142.047C222.569 141.992 222.952 141.498 222.952 140.95C222.898 140.401 222.404 140.017 221.856 140.017C221.253 140.072 220.869 140.566 220.924 141.114Z" fill="#1A2E35"/>
<path d="M213.412 140.895C213.521 141.444 214.07 141.773 214.618 141.663C215.166 141.553 215.495 141.005 215.386 140.456C215.276 139.908 214.728 139.579 214.179 139.688C213.631 139.798 213.302 140.347 213.412 140.895Z" fill="#1A2E35"/>
<path d="M213.795 136.946C214.563 136.781 215.331 137.22 215.55 137.988L212.754 138.646C212.534 137.933 213.028 137.111 213.795 136.946Z" fill="#1A2E35"/>
<path d="M223.227 137.495C223.939 137.824 224.323 138.646 223.994 139.359L221.362 138.208C221.636 137.495 222.459 137.165 223.227 137.495Z" fill="#1A2E35"/>
<path d="M214.508 129.432H225.31C232.603 132.284 229.697 140.895 228.162 142.047C223.83 140.237 224.323 136.672 224.652 134.204C222.459 136.233 218.785 137.769 217.085 137.933C217.908 137.001 218.566 134.588 218.566 134.588C218.566 134.588 217.579 136.891 215.166 138.262C212.479 139.798 210.67 138.756 210.67 138.756C210.67 138.756 209.738 132.284 214.508 129.432Z" fill="#1A2E35"/>
<path d="M228.6 155.32C228.6 155.32 228.491 156.582 227.613 159.379C226.736 162.176 226.407 164.425 226.242 170.458C226.078 176.492 228.271 204.574 227.613 211.43C232.11 211.43 239.238 208.468 242.528 204.848C242.418 202.49 241.705 197.334 240.115 191.246C238.525 185.158 236.88 184.664 237.209 181.428C237.538 178.192 239.896 165.083 237.264 158.501C237.264 158.501 236.441 158.447 233.371 157.734C229.149 156.691 228.6 155.32 228.6 155.32Z" fill="#28995A"/>
<path opacity="0.4" d="M228.6 155.32C228.6 155.32 228.491 156.582 227.613 159.379C226.736 162.176 226.407 164.425 226.242 170.458C226.078 176.492 228.271 204.574 227.613 211.43C232.11 211.43 239.238 208.468 242.528 204.848C242.418 202.49 241.705 197.334 240.115 191.246C238.525 185.158 236.88 184.664 237.209 181.428C237.538 178.192 239.896 165.083 237.264 158.501C237.264 158.501 236.441 158.447 233.371 157.734C229.149 156.691 228.6 155.32 228.6 155.32Z" fill="white"/>
<path d="M219.059 154.991L218.895 155.594C218.895 157.295 215.331 160.037 212.863 164.151C210.396 168.21 209.957 172.159 210.121 177.369C210.176 178.411 210.121 184.116 209.463 188.339C208.367 195.085 206.338 201.503 206.064 205.287C206.064 205.287 206.667 199.528 206.886 196.073C207.16 192.124 208.202 187.242 208.202 183.348C208.202 180.276 208.093 176.985 208.093 176.985C208.093 176.985 204.693 173.201 206.119 167.551C207.544 161.902 215.331 156.362 215.331 156.362C215.331 156.362 215.55 156.253 216.866 155.978C217.853 155.814 219.059 154.991 219.059 154.991Z" fill="#28995A"/>
<path opacity="0.4" d="M219.059 154.991L218.895 155.594C218.895 157.295 215.331 160.037 212.863 164.151C210.396 168.21 209.957 172.159 210.121 177.369C210.176 178.411 210.121 184.116 209.463 188.339C208.367 195.085 206.338 201.503 206.064 205.287C206.064 205.287 206.667 199.528 206.886 196.073C207.16 192.124 208.202 187.242 208.202 183.348C208.202 180.276 208.093 176.985 208.093 176.985C208.093 176.985 204.693 173.201 206.119 167.551C207.544 161.902 215.331 156.362 215.331 156.362C215.331 156.362 215.55 156.253 216.866 155.978C217.853 155.814 219.059 154.991 219.059 154.991Z" fill="white"/>
<path d="M229.258 152.907C230.081 155.869 232 157.295 232 157.295C232 157.295 230.848 162.78 231.013 165.467C231.232 168.155 231.781 170.733 231.013 170.733C230.3 170.733 228.052 170.02 228.052 170.02C228.052 170.02 229.861 172.652 229.642 173.475C229.478 174.298 226.681 183.512 226.681 183.512C226.681 183.512 225.53 172.872 225.694 169.745C225.859 166.619 226.462 160.86 227.558 157.569C228.381 155.265 229.258 152.907 229.258 152.907Z" fill="#28995A"/>
<path d="M210.067 182.031C209.902 179.015 208.367 171.5 208.147 170.02C207.928 168.539 210.067 167.167 210.067 167.167C210.067 167.167 208.805 167.497 208.367 167.167C207.928 166.838 210.505 163.109 212.753 160.586C214.947 158.117 219.169 154.333 219.169 154.333V156.307C218.017 157.569 216.811 159.16 215.934 160.531C214.015 163.767 210.396 167.222 210.067 182.031Z" fill="#28995A"/>
<path d="M223.939 170.842C222.349 169.471 221.527 168.923 220.759 168.648C219.991 168.374 217.359 167.003 216.318 166.674C215.66 166.454 215.331 167.497 216.098 168.264C216.701 168.868 218.346 169.745 219.059 170.184C219.772 170.623 221.088 172.543 221.088 172.543L223.939 170.842Z" fill="#C66150"/>
<path d="M245.16 164.645C243.679 160.531 241.376 159.05 237.374 158.611C234.851 164.37 236.825 173.42 236.825 173.42L239.128 180.002C239.128 180.002 231.068 177.315 229.971 176.547C228.874 175.724 226.188 172.981 225.255 171.939C223.939 170.513 223.281 170.623 222.569 170.678C220.211 170.842 219.717 171.007 219.169 171.281C218.675 171.555 218.675 172.159 218.675 172.159C218.072 172.214 217.14 172.104 216.921 173.091C216.811 173.749 216.811 173.914 216.811 173.914C216.811 173.914 216.592 173.914 216.372 174.133C215.824 174.682 216.537 176.821 217.085 177.369C217.469 177.753 218.017 177.808 218.73 177.808C219.333 177.753 219.114 177.095 219.114 177.095L219.991 177.205C221.746 178.686 221.691 181.318 224.104 182.086C224.597 182.251 225.694 182.306 227.12 182.909C232.329 185.103 239.183 191.685 245.105 192.124C249.766 192.453 250.369 190.259 250.424 187.407C250.479 184.39 246.476 168.319 245.16 164.645Z" fill="#DD8669"/>
<path d="M237.319 158.501C239.567 158.885 241.651 159.05 243.35 160.915C245.05 162.78 245.489 164.48 246.695 168.978C247.902 173.475 249.053 178.082 249.985 182.58C250.917 187.078 251.027 189.875 249.601 191.301C248.176 192.782 245.434 192.508 244.063 192.288C242.692 192.014 240.115 190.752 240.115 190.752C240.115 190.752 241.431 188.888 240.883 185.103C240.335 181.264 238.306 179.673 238.306 179.673L239.073 179.892C239.073 179.892 237.374 175.504 236.167 172.488C234.961 169.526 235.345 161.079 237.319 158.501Z" fill="#28995A"/>
<path opacity="0.15" d="M237.319 158.501C239.567 158.885 241.651 159.05 243.35 160.915C245.05 162.78 245.489 164.48 246.695 168.978C247.902 173.475 249.053 178.082 249.985 182.58C250.917 187.078 251.027 189.875 249.601 191.301C248.176 192.782 245.434 192.508 244.063 192.288C242.692 192.014 240.115 190.752 240.115 190.752C240.115 190.752 241.431 188.888 240.883 185.103C240.335 181.264 238.306 179.673 238.306 179.673L239.073 179.892C239.073 179.892 237.374 175.504 236.167 172.488C234.961 169.526 235.345 161.079 237.319 158.501Z" fill="black"/>
<path opacity="0.35" d="M238.58 178.686L239.073 179.947C241.815 180.605 244.612 181.373 245.379 182.361C244.557 180.66 242.418 179.454 238.58 178.686Z" fill="black"/>
<path d="M218.73 172.159L221.527 171.83L218.84 171.775C218.73 171.884 218.73 171.994 218.73 172.159Z" fill="#C66150"/>
<path d="M216.866 173.914L220.046 173.749L216.866 173.53C216.866 173.64 216.866 173.749 216.866 173.914Z" fill="#C66150"/>
<path d="M219.498 176.601C219.169 176.217 219.169 175.943 219.169 175.943C219.169 175.943 218.401 175.888 218.072 175.779C217.908 175.724 217.798 175.669 217.634 175.614C217.469 175.559 217.305 175.45 217.195 175.285C217.305 175.45 217.414 175.614 217.579 175.669C217.743 175.779 217.853 175.834 218.018 175.888L218.182 176.272C218.072 176.272 217.963 176.327 217.853 176.382C217.689 176.492 217.634 176.601 217.524 176.766C217.634 176.656 217.743 176.492 217.853 176.437C217.963 176.382 218.127 176.327 218.292 176.382C218.95 176.601 219.169 176.985 219.169 176.985L220.046 177.095C220.046 177.15 219.663 176.821 219.498 176.601Z" fill="#C66150"/>
<path d="M194.329 119.34C197.181 121.205 199.045 124.002 199.813 127.018L200.087 128.445C200.471 131.352 199.868 134.423 198.113 137.111C194.275 143.034 186.269 144.735 180.347 140.895C177.715 139.195 175.905 136.617 175.028 133.82L174.699 132.394C174.151 129.267 174.699 125.976 176.563 123.124C180.402 117.146 188.353 115.445 194.329 119.34Z" fill="white"/>
<path d="M175.631 122.521C171.464 128.993 173.273 137.604 179.744 141.828C185.501 145.612 193.068 144.46 197.619 139.579L201.842 140.456C202.554 140.621 203.103 139.798 202.664 139.195L200.142 135.685C202.774 129.541 200.745 122.192 194.933 118.462C188.462 114.239 179.799 116.049 175.631 122.521ZM194.329 119.34C197.181 121.205 199.045 124.002 199.813 127.018L200.087 128.445C200.471 131.352 199.868 134.423 198.113 137.111C194.275 143.034 186.269 144.735 180.347 140.895C177.715 139.195 175.905 136.617 175.028 133.82L174.699 132.394C174.151 129.267 174.699 125.976 176.563 123.124C180.402 117.146 188.353 115.445 194.329 119.34Z" fill="#375A64"/>
<path opacity="0.7" d="M194.329 119.34C197.181 121.205 199.045 124.002 199.813 127.018L200.087 128.445C200.471 131.352 199.868 134.423 198.113 137.111C194.275 143.034 186.269 144.735 180.347 140.895C177.715 139.195 175.905 136.617 175.028 133.82L174.699 132.394C174.151 129.267 174.699 125.976 176.563 123.124C180.402 117.146 188.353 115.445 194.329 119.34Z" fill="white"/>
<path d="M185.885 137.001C185.392 137.001 184.898 136.782 184.514 136.398L180.347 131.9C179.634 131.132 179.689 129.98 180.457 129.267C181.224 128.554 182.376 128.609 183.089 129.377L185.83 132.284L192.301 124.112C192.959 123.289 194.11 123.179 194.878 123.782C195.7 124.441 195.81 125.592 195.207 126.36L187.42 136.233C187.091 136.672 186.598 136.891 186.05 136.946C185.94 137.001 185.94 137.001 185.885 137.001Z" fill="#28995A"/>
</svg>
