<svg width="330" height="300" viewBox="0 0 330 300" fill="none" xmlns="http://www.w3.org/2000/svg">
<path d="M270.15 258.6L300.85 240.85L327.15 255.95L296.55 273.7L270.15 258.6Z" fill="#455A64"/>
<path d="M270.15 258.6V263.65L296.55 278.85V273.7L270.15 258.6Z" fill="#263238"/>
<path d="M327.15 255.95V261.1L296.55 278.85V273.7L327.15 255.95Z" fill="#37474F"/>
<path d="M299.5 153.75C298.65 153.35 297.55 153.35 296.15 154.05L283.6 161.3C281.1 162.85 279 166.45 279 169.4V258.5L296.6 268.7L318.5 256V166.85C318.5 165.3 317.95 164.35 317.1 163.8C316.25 163.35 300.3 154.3 299.5 153.75Z" fill="#28995A"/>
<path opacity="0.2" d="M297.8 174.95C296.95 176.5 296.4 178 296.4 179.55V268.65L278.8 258.45V169.35C278.8 167.8 279.35 166.15 280.2 164.75L297.8 174.95Z" fill="black"/>
<path d="M296.55 179.55C296.55 176.6 298.65 173 301.15 171.45L313.7 164.2C316.2 162.65 318.3 163.9 318.3 166.85V255.95L296.4 268.65V179.55H296.55Z" fill="#28995A"/>
<path opacity="0.4" d="M316.95 163.9C316.1 163.5 315 163.5 313.75 164.3L301.2 171.55C299.95 172.25 298.7 173.5 297.85 175.05L280.25 164.85C281.1 163.45 282.2 162.05 283.6 161.35L296.15 154.1C297.4 153.4 298.65 153.25 299.5 153.8C300.3 154.3 315.65 163.1 316.95 163.9Z" fill="white"/>
<path d="M300.85 181.8L314 174.25V184.3L300.85 191.85V181.8Z" fill="#455A64"/>
<path d="M312.75 183.6L314 184.3V174.25L312.75 174.95V183.6Z" fill="#37474F"/>
<path d="M312.75 183.6V174.95L300.85 181.8V190.45L312.75 183.6Z" fill="#28995A"/>
<path opacity="0.4" d="M312.75 183.6V174.95L300.85 181.8V190.45L312.75 183.6Z" fill="black"/>
<path d="M300.85 197.6C300.7 197.6 300.45 197.45 300.45 197.3C300.3 197 300.45 196.75 300.6 196.6L313.75 189.05C314.05 188.9 314.3 189.05 314.45 189.2C314.6 189.5 314.45 189.75 314.3 189.9L301.15 197.45C301 197.45 301 197.6 300.85 197.6Z" fill="#455A64"/>
<path d="M300.85 202.6C300.7 202.6 300.45 202.45 300.45 202.3C300.3 202 300.45 201.75 300.6 201.6L313.75 194.05C314.05 193.9 314.3 194.05 314.45 194.2C314.6 194.5 314.45 194.75 314.3 194.9L301.15 202.45C301 202.6 301 202.6 300.85 202.6Z" fill="#455A64"/>
<path d="M300.85 207.65C300.7 207.65 300.45 207.5 300.45 207.35C300.3 207.05 300.45 206.8 300.6 206.65L313.75 199.1C314.05 198.95 314.3 199.1 314.45 199.25C314.6 199.55 314.45 199.8 314.3 199.95L301.15 207.5C301 207.65 301 207.65 300.85 207.65Z" fill="#455A64"/>
<path d="M107.45 297L271.95 202.05V188.35L107.45 283.3V297Z" fill="#F5F5F5"/>
<path d="M103 280.8V294.5L107.45 297V283.3L103 280.8Z" fill="#28995A"/>
<path opacity="0.2" d="M103 280.8V294.5L107.45 297V283.3L103 280.8Z" fill="black"/>
<path d="M271.95 188.35L267.5 185.85L103 280.8L107.45 283.3L271.95 188.35Z" fill="#FAFAFA"/>
<path d="M122.85 269.35L127.15 272L140.3 264.3L135.95 261.8L122.85 269.35Z" fill="#28995A"/>
<path d="M107.45 283.3L114.05 279.55L109.55 277.05L103 280.8L107.45 283.3Z" fill="#28995A"/>
<path d="M149.1 254.25L153.4 256.8L166.7 249.1L162.2 246.6L149.1 254.25Z" fill="#28995A"/>
<path d="M175.45 239.05L179.8 241.55L192.95 234L188.6 231.35L175.45 239.05Z" fill="#28995A"/>
<path d="M201.75 223.85L206.05 226.35L219.3 218.8L214.85 216.3L201.75 223.85Z" fill="#28995A"/>
<path d="M228 208.6L232.45 211.1L245.55 203.6L241.25 201.05L228 208.6Z" fill="#28995A"/>
<path d="M254.35 193.4L258.7 196.05L271.95 188.35L267.5 185.85L254.35 193.4Z" fill="#28995A"/>
<g opacity="0.4">
<path opacity="0.4" d="M122.85 269.35L127.15 272L140.3 264.3L135.95 261.8L122.85 269.35Z" fill="white"/>
<path opacity="0.4" d="M107.45 283.3L114.05 279.55L109.55 277.05L103 280.8L107.45 283.3Z" fill="white"/>
<path opacity="0.4" d="M149.1 254.25L153.4 256.8L166.7 249.1L162.2 246.6L149.1 254.25Z" fill="white"/>
<path opacity="0.4" d="M175.45 239.05L179.8 241.55L192.95 234L188.6 231.35L175.45 239.05Z" fill="white"/>
<path opacity="0.4" d="M201.75 223.85L206.05 226.35L219.3 218.8L214.85 216.3L201.75 223.85Z" fill="white"/>
<path opacity="0.4" d="M228 208.6L232.45 211.1L245.55 203.6L241.25 201.05L228 208.6Z" fill="white"/>
<path opacity="0.4" d="M254.35 193.4L258.7 196.05L271.95 188.35L267.5 185.85L254.35 193.4Z" fill="white"/>
</g>
<path d="M219.3 218.8L207.75 225.5L206.05 226.35L197.4 245.05L210.5 237.5L219.3 218.8Z" fill="#28995A"/>
<path d="M166.7 249.1L153.4 256.8L144.75 275.5L157.9 267.95L166.7 249.1Z" fill="#28995A"/>
<path d="M131.5 283.05L140.3 264.3L129.55 270.6L127.15 272L118.35 290.7L131.5 283.05Z" fill="#28995A"/>
<path d="M192.95 234L180.2 241.3L179.8 241.55L171 260.25L184.15 252.75L192.95 234Z" fill="#28995A"/>
<path d="M236.8 222.3L245.55 203.6L235.8 209.15L232.45 211.1L223.65 229.95L236.8 222.3Z" fill="#28995A"/>
<path d="M114.05 279.55L107.45 283.3V291.25L114.05 279.55Z" fill="#28995A"/>
<path d="M269.75 189.6L258.7 196.05L250.05 214.75L263.15 207.05L271.95 188.35L269.75 189.6Z" fill="#28995A"/>
<path d="M271.95 198.55L290.55 187.65V177.6L271.95 188.35V198.55Z" fill="#37474F"/>
<path d="M290.55 177.6L286.2 175.1L267.5 185.85L271.95 188.35L290.55 177.6Z" fill="#455A64"/>
<path d="M10.9 95.25L66.5 63.15C68.55 52.3 67.95 37.2 65.75 22.5L10.9 54.15V95.25Z" fill="#2B454E"/>
<path d="M72.6 134.25L131.95 100.9L66.5 63.15L10.9 95.25L72.6 134.25Z" fill="#375A64"/>
<path d="M59.2501 74.1001L112 104.55C113.35 105.35 115.65 105.3 117.05 104.5L121 102.2C122.45 101.35 122.5 100.05 121.1 99.2501L68.3501 68.8001C67.0001 68.0001 64.7001 68.0501 63.3001 68.8501L59.3501 71.1501C57.9001 72.0001 57.8501 73.3001 59.2501 74.1001Z" fill="#1A2E35"/>
<path d="M46.3 81.55L99.05 112C100.4 112.8 102.7 112.75 104.1 111.95L108.05 109.65C109.5 108.8 109.55 107.5 108.15 106.7L55.4 76.25C54.05 75.45 51.75 75.5 50.35 76.3L46.4 78.6C45 79.45 44.95 80.75 46.3 81.55Z" fill="#1A2E35"/>
<path d="M33.35 89.05L86.1 119.5C87.45 120.3 89.75 120.25 91.15 119.45L95.1 117.15C96.55 116.3 96.6 115 95.2 114.2L42.5 83.75C41.15 82.95 38.85 83 37.45 83.8L33.5 86.1C32.05 86.95 32 88.25 33.35 89.05Z" fill="#1A2E35"/>
<path d="M20.4 96.5001L73.15 126.95C74.5 127.75 76.8 127.7 78.2 126.9L82.15 124.6C83.6 123.75 83.65 122.45 82.25 121.65L29.55 91.2001C28.2 90.4001 25.9 90.4501 24.5 91.2501L20.55 93.5501C19.1 94.4001 19.05 95.7001 20.4 96.5001Z" fill="#1A2E35"/>
<path d="M131.2 60.2L65.7001 22.5C67.9501 37.2 68.5001 52.3 66.4501 63.15L131.9 100.9C134 90 133.4 74.9 131.2 60.2Z" fill="#1A2E35"/>
<path d="M87.9499 60C86.1499 58.95 84.4499 58.5 82.9499 58.5C81.7999 58.5 80.7499 58.8 79.8499 59.3L73.1499 63.2L75.9499 68.8C76.0499 71.75 76.7999 74.9 77.9999 77.9L92.9499 86.55L99.9499 82.5C99.9499 82.35 99.9499 82.25 99.9499 82.1C99.9499 73.7 94.5499 63.8 87.9499 60Z" fill="#375A64"/>
<path d="M92.95 86.1C92.95 86.25 92.95 86.35 92.95 86.5L78 77.85L68.95 72.65C68.95 72.5 68.95 72.35 68.95 72.25C68.95 67.65 70.55 64.5 73.15 63.2C75.25 62.15 78 62.35 81 64.05C82.6 64.95 84.15 66.25 85.55 67.8L85.6 67.85C89.9 72.6 92.95 79.8 92.95 86.1Z" fill="#2B454E"/>
<path d="M33.55 86.3C33.5 86.3 33.5 86.3 33.55 86.3L25.25 81.5L16.5 86.55V98.9V101.85L17.65 101.15L18.85 100.45L22.8 98.2L24.65 97.15L27.1 95.75L28.7 94.85L30.75 92.95L31.1 92.6L32.7 91.1L33.25 90.55L36.15 87.8L33.55 86.3Z" fill="#1A2E35"/>
<path d="M24.5999 99L21.7999 93.4L28.4999 89.5C30.6499 88.25 33.4999 88.4 36.5999 90.2C43.2499 94.05 48.5999 103.9 48.5999 112.25C48.5999 116.65 47.0999 119.7 44.7499 121.1L44.6499 121.15L37.7499 125.15L34.7499 119.25C29.1999 115 24.7999 106.45 24.5999 99Z" fill="#2B454E"/>
<path d="M24.5999 99L21.7999 93.4L28.4999 89.5C30.6499 88.25 33.4999 88.4 36.5999 90.2C43.2499 94.05 48.5999 103.9 48.5999 112.25C48.5999 116.65 47.0999 119.7 44.7499 121.1L44.6499 121.15L37.7499 125.15L34.7499 119.25C29.1999 115 24.7999 106.45 24.5999 99Z" fill="#1A2E35"/>
<path d="M17.6 102.45C17.6 109.65 21.6 118 26.95 122.6C27.8 123.35 28.7 123.95 29.6 124.5C36.25 128.35 41.6 124.65 41.6 116.3C41.6 110 38.55 102.8 34.15 98C34.15 98 34.1 98 34.1 97.95C32.7 96.4 31.15 95.15 29.55 94.2C23 90.45 17.6 94.1 17.6 102.45Z" fill="#2B454E"/>
<path d="M17.6 102.45C17.6 109.65 21.6 118 26.95 122.6C23.8 119.15 20.5 113.35 19.35 107.85C18.35 103.05 18.7 96.1 22.85 94.35C26.95 92.6 32.45 96.3 34.15 97.95C32.75 96.4 31.2 95.15 29.6 94.2C23 90.45 17.6 94.1 17.6 102.45Z" fill="#375A64"/>
<path d="M29.5999 99.2C25.4 96.75 21.95 99.35 21.95 105C21.95 110.65 25.35 117.15 29.5999 119.6C33.7999 122.05 37.2499 119.45 37.2499 113.8C37.2499 108.2 33.8499 101.65 29.5999 99.2ZM29.5999 117.85C26.1 115.85 23.2999 110.4 23.2999 105.75C23.2999 101.1 26.15 98.95 29.5999 100.95C33.0999 102.95 35.9 108.4 35.9 113.05C35.95 117.7 33.0999 119.85 29.5999 117.85Z" fill="#F5F5F5"/>
<path d="M35.9499 113.05C35.9499 114.8 35.5499 116.25 34.8499 117.2C33.6999 118.75 31.7999 119.1 29.6499 117.85C26.1499 115.85 23.2999 110.45 23.2999 105.75C23.2999 102.5 24.6999 100.45 26.6999 100.25C27.5499 100.15 28.5499 100.35 29.5999 101C33.0999 103 35.9499 108.4 35.9499 113.05Z" fill="#E1E1E1"/>
<path opacity="0.4" d="M35.9499 113.05C35.9499 114.8 35.5499 116.25 34.8499 117.2C33.6999 118.75 31.7999 119.1 29.6499 117.85C26.1499 115.85 23.2999 110.45 23.2999 105.75C23.2999 102.5 24.6999 100.45 26.6999 100.25C27.5499 100.15 28.5499 100.35 29.5999 101C33.0999 103 35.9499 108.4 35.9499 113.05Z" fill="black"/>
<path d="M35.95 113.05C35.95 114.8 35.55 116.25 34.85 117.2C34 117.3 33 117.1 31.9 116.45C28.4 114.45 25.6 109.05 25.6 104.35C25.6 102.55 26 101.15 26.7 100.2C27.55 100.1 28.55 100.3 29.6 100.95C33.1 103 35.95 108.4 35.95 113.05Z" fill="#1A2E35"/>
<path d="M28.75 106.5L27.6 109.8L24.9 103.85C24.9 103.3 25.2 102.35 25.5 101.85L28.75 106.5Z" fill="#E1E1E1"/>
<path d="M27.65 109.1L29.7001 112L27.7001 114.3C27.1501 113.8 26.8 113.45 26.55 112.75L27.65 109.1Z" fill="#E1E1E1"/>
<path d="M31.95 111.45L31.4 111.7L31.25 111.05L29 111.65L33.6 118.2C34.05 117.95 34.5 117.6 34.85 117.15C34.9 117.05 35 116.95 35.05 116.85L31.95 111.45Z" fill="#E1E1E1"/>
<path d="M35.7 110.6L31.95 111.45L31.6 110.9L31.25 111.05L30.65 108.15L31.1 108.4L31.05 107.65H34.85C35.2 108.6 35.5 109.6 35.7 110.6Z" fill="#E1E1E1"/>
<path d="M31.0501 107.65L30.5001 107.45L30.6501 108.1L28.2001 106.65L30.3501 101.35C31.0001 101.8 31.6001 102.4 32.2001 103.05L31.0501 107.65Z" fill="#E1E1E1"/>
<path d="M32.0001 110.8C32.0001 112.55 30.9501 113.35 29.6001 112.6C28.3001 111.85 27.2001 109.8 27.2001 108.05C27.2001 106.3 28.2501 105.5 29.6001 106.25C30.9501 107 32.0001 109.05 32.0001 110.8Z" fill="#F5F5F5"/>
<path d="M72.5999 134.25L44.9499 118.25L44.9999 118C44.8999 113.65 43.1499 107.4 40.7499 103.35C37.5999 97.7 32.8499 92.15 26.4499 90.75C20.6499 89.55 16.9999 94.35 16.5999 99.95C16.5499 100.35 16.5499 101.1 16.4999 101.85L4.04994 94.7C2.04994 83.85 2.59994 68.8 4.84994 54.15L73.3499 93.6C71.0999 108.3 70.5499 123.4 72.5999 134.25Z" fill="#F5F6FA"/>
<path opacity="0.2" d="M72.5999 134.25L44.9499 118.25L44.9999 118C44.8999 113.65 43.1499 107.4 40.7499 103.35C37.5999 97.7 32.8499 92.15 26.4499 90.75C20.6499 89.55 16.9999 94.35 16.5999 99.95C16.5499 100.35 16.5499 101.1 16.4999 101.85L4.04994 94.7C2.04994 83.85 2.59994 68.8 4.84994 54.15L73.3499 93.6C71.0999 108.3 70.5499 123.4 72.5999 134.25Z" fill="black"/>
<path d="M131.2 60.2L134.15 58.5L65.7 19L4.84998 54.15L73.35 93.6L76.4 91.85L10.9 54.15L65.7 22.5L131.2 60.2Z" fill="#F5F6FA"/>
<path opacity="0.2" d="M131.2 60.2L134.15 58.5L65.7 19L4.84998 54.15L73.35 93.6L76.4 91.85L10.9 54.15L65.7 22.5L131.2 60.2Z" fill="white"/>
<path d="M65.7 22.5L62.75 20.7L7.84998 52.4L10.9 54.15L65.7 22.5Z" fill="#375A64"/>
<path d="M13.05 94.75V102.8L2.15002 96.5C1.05002 95.9 0.400024 94.75 0.400024 93.5V86.95L13.05 94.75Z" fill="#2B454E"/>
<path d="M13.05 94.75C8.8 92.3 1.1 87.9 1.1 87.9C-1.25 86.55 2.9 84.25 2.9 84.25L2.95 84.9C3 85.6 3.35 86.2 3.95 86.55L15.5 93.25L13.05 94.75Z" fill="#375A64"/>
<path d="M15.55 93.3V101.3L13.05 102.75V94.75L15.55 93.3Z" fill="#1A2E35"/>
<path d="M2.85006 75.7C4.85006 77 6.80006 78.1 8.05006 78.8C9.00006 79.3 9.60006 80.3 9.60006 81.35V85.3C9.60006 85.7 9.15006 85.95 8.80006 85.75C7.20006 84.85 3.70006 82.9 2.85006 82.35C1.75006 81.7 1.80006 75 2.85006 75.7Z" fill="#F5F6FA"/>
<path opacity="0.8" d="M2.85006 75.7C4.85006 77 6.80006 78.1 8.05006 78.8C9.00006 79.3 9.60006 80.3 9.60006 81.35V85.3C9.60006 85.7 9.15006 85.95 8.80006 85.75C7.20006 84.85 3.70006 82.9 2.85006 82.35C1.75006 81.7 1.80006 75 2.85006 75.7Z" fill="white"/>
<path d="M144.6 152.5L136.3 147.7L127.55 152.75L127.5 165.1V168.05L128.65 167.35L129.85 166.65L133.8 164.4L135.65 163.35L138.1 161.95L139.7 161.05L141.75 159.15L142.1 158.8L143.7 157.3L144.25 156.75L147.15 154L144.6 152.5Z" fill="#1A2E35"/>
<path d="M135.7 163.05L132.9 157.45L139.6 153.55C141.75 152.3 144.6 152.45 147.7 154.25C154.35 158.1 159.7 167.95 159.7 176.3C159.7 180.7 158.2 183.75 155.85 185.15L155.75 185.2L148.85 189.2L145.85 183.3C140.25 179.05 135.9 170.5 135.7 163.05Z" fill="#2B454E"/>
<path d="M135.7 163.05L132.9 157.45L139.6 153.55C141.75 152.3 144.6 152.45 147.7 154.25C154.35 158.1 159.7 167.95 159.7 176.3C159.7 180.7 158.2 183.75 155.85 185.15L155.75 185.2L148.85 189.2L145.85 183.3C140.25 179.05 135.9 170.5 135.7 163.05Z" fill="#1A2E35"/>
<path d="M128.7 166.5C128.7 173.7 132.7 182.05 138.05 186.65C138.9 187.4 139.8 188 140.7 188.55C147.35 192.4 152.7 188.7 152.7 180.35C152.7 174.05 149.65 166.85 145.25 162.05C145.25 162.05 145.2 162.05 145.2 162C143.8 160.45 142.25 159.2 140.65 158.25C134.05 154.5 128.7 158.15 128.7 166.5Z" fill="#2B454E"/>
<path d="M128.7 166.5C128.7 173.7 132.7 182.05 138.05 186.65C134.9 183.2 131.6 177.4 130.45 171.9C129.45 167.1 129.8 160.15 133.95 158.4C138.05 156.65 143.55 160.35 145.25 162C143.85 160.45 142.3 159.2 140.7 158.25C134.05 154.5 128.7 158.15 128.7 166.5Z" fill="#375A64"/>
<path d="M140.7 163.25C136.5 160.8 133.05 163.4 133.05 169.05C133.05 174.7 136.45 181.2 140.7 183.65C144.9 186.1 148.35 183.5 148.35 177.85C148.35 172.25 144.9 165.7 140.7 163.25ZM140.7 181.9C137.2 179.9 134.4 174.45 134.4 169.8C134.4 165.15 137.25 163 140.7 165C144.2 167 147 172.45 147 177.1C147 181.75 144.2 183.9 140.7 181.9Z" fill="#F5F5F5"/>
<path d="M147 177.1C147 178.85 146.6 180.3 145.9 181.25C144.75 182.8 142.85 183.15 140.7 181.9C137.2 179.9 134.35 174.5 134.35 169.8C134.35 166.55 135.75 164.5 137.75 164.3C138.6 164.2 139.6 164.4 140.65 165.05C144.2 167.05 147 172.45 147 177.1Z" fill="#E1E1E1"/>
<path opacity="0.4" d="M147 177.1C147 178.85 146.6 180.3 145.9 181.25C144.75 182.8 142.85 183.15 140.7 181.9C137.2 179.9 134.35 174.5 134.35 169.8C134.35 166.55 135.75 164.5 137.75 164.3C138.6 164.2 139.6 164.4 140.65 165.05C144.2 167.05 147 172.45 147 177.1Z" fill="black"/>
<path d="M147 177.1C147 178.85 146.6 180.3 145.9 181.25C145.05 181.35 144.05 181.15 142.95 180.5C139.45 178.5 136.65 173.1 136.65 168.4C136.65 166.6 137.05 165.2 137.75 164.25C138.6 164.15 139.6 164.35 140.65 165C144.2 167.05 147 172.45 147 177.1Z" fill="#1A2E35"/>
<path d="M139.85 170.55L138.7 173.85L136 167.9C136 167.35 136.3 166.4 136.6 165.9L139.85 170.55Z" fill="#E1E1E1"/>
<path d="M138.7 173.15L140.75 176.05L138.75 178.35C138.2 177.85 137.85 177.5 137.6 176.8L138.7 173.15Z" fill="#E1E1E1"/>
<path d="M143.05 175.5L142.5 175.75L142.35 175.1L140.1 175.7L144.7 182.25C145.15 182 145.6 181.65 145.95 181.2C146 181.1 146.1 181 146.15 180.9L143.05 175.5Z" fill="#E1E1E1"/>
<path d="M146.8 174.65L143.05 175.5L142.7 174.95L142.35 175.1L141.75 172.2L142.2 172.45L142.15 171.7H145.95C146.3 172.65 146.6 173.65 146.8 174.65Z" fill="#E1E1E1"/>
<path d="M142.1 171.7L141.55 171.5L141.7 172.15L139.25 170.7L141.4 165.4C142.05 165.85 142.65 166.45 143.25 167.1L142.1 171.7Z" fill="#E1E1E1"/>
<path d="M143.1 174.85C143.1 176.6 142.05 177.4 140.7 176.65C139.4 175.9 138.3 173.85 138.3 172.1C138.3 170.35 139.35 169.55 140.7 170.3C142 171.05 143.1 173.05 143.1 174.85Z" fill="#F5F5F5"/>
<path d="M225 129C223.8 131.4 222 133.65 220.05 135.6C217.2 138.4 213.3 141.4 208 144.45C177.15 162.25 163.15 154.15 136.9 139C131.75 136 126.05 132.5 120.3 128.85C120.15 128.75 120 128.65 119.8 128.55C119.5 128.35 119.25 128.2 118.95 128C118.5 127.7 118.05 127.45 117.6 127.15C117.15 126.85 116.75 126.6 116.3 126.3C113.4 124.4 110.45 122.5 107.6 120.6C107.35 120.45 107.1 120.25 106.85 120.1C106.55 119.9 106.2 119.65 105.9 119.45C88.8999 108.1 81.9499 101.95 79.6999 100.35L79.6499 100.3C79.5999 100.25 79.5499 100.25 79.4999 100.2L88.6999 105.95L93.8499 109.15L109.05 119L118.35 124.8L117.8 122.75L117.6 97.3C117 95.25 116.25 94 115.3 93C115.25 92.95 115.15 92.85 115.1 92.8C114.05 91.8 112.8 91.15 111.3 90.3C106.9 87.75 92.5499 79.75 79.3499 72.3C78.8999 72.05 78.4499 71.8 78.0499 71.55L120.7 42.9C123.4 41.1 126.85 40.95 129.65 42.5C145.45 51.25 166.15 62.5 169.55 65.4C169.95 65.75 176.65 74.75 181.85 80.05C187.55 85.9 193.5 92.25 194.15 93.2C198.4 96.05 213.95 106.15 222.3 112.55C222.55 112.75 222.85 113.05 223.25 113.4C223.4 113.55 224.05 114.1 224.65 115.2C227.2 119.55 227.7 123.55 225 129Z" fill="#F5F6FA"/>
<path opacity="0.2" d="M225 129C223.8 131.4 222 133.65 220.05 135.6C217.2 138.4 213.3 141.4 208 144.45C177.15 162.25 163.15 154.15 136.9 139C131.75 136 126.05 132.5 120.3 128.85C120.15 128.75 120 128.65 119.8 128.55C119.5 128.35 119.25 128.2 118.95 128C118.5 127.7 118.05 127.45 117.6 127.15C117.15 126.85 116.75 126.6 116.3 126.3C113.4 124.4 110.45 122.5 107.6 120.6C107.35 120.45 107.1 120.25 106.85 120.1C106.55 119.9 106.2 119.65 105.9 119.45C88.8999 108.1 81.9499 101.95 79.6999 100.35L79.6499 100.3C79.5999 100.25 79.5499 100.25 79.4999 100.2L88.6999 105.95L93.8499 109.15L109.05 119L118.35 124.8L117.8 122.75L117.6 97.3C117 95.25 116.25 94 115.3 93C115.25 92.95 115.15 92.85 115.1 92.8C114.05 91.8 112.8 91.15 111.3 90.3C106.9 87.75 92.5499 79.75 79.3499 72.3C78.8999 72.05 78.4499 71.8 78.0499 71.55L120.7 42.9C123.4 41.1 126.85 40.95 129.65 42.5C145.45 51.25 166.15 62.5 169.55 65.4C169.95 65.75 176.65 74.75 181.85 80.05C187.55 85.9 193.5 92.25 194.15 93.2C198.4 96.05 213.95 106.15 222.3 112.55C222.55 112.75 222.85 113.05 223.25 113.4C223.4 113.55 224.05 114.1 224.65 115.2C227.2 119.55 227.7 123.55 225 129Z" fill="white"/>
<path opacity="0.2" d="M213.4 129.65C212.25 128.35 211.15 127 209.95 125.75C207.6 123.2 207.15 122.9 204.6 120.55C202 118.25 199.3 116.05 196.5 114C195.1 112.95 193.7 111.95 192.25 111C190.8 110.05 189.35 109.1 187.8 108.3C190.65 110.25 193.45 112.35 196.15 114.45C198.85 116.6 201.55 118.8 204.1 121.15C206.7 123.45 207.1 123.7 209.55 126.15C212 128.6 214.35 131.15 216.65 133.7C215.6 132.35 214.55 131 213.4 129.65ZM191.85 144.3C191.25 143.65 190.65 143 190 142.4C188.7 141.15 187.4 139.95 186.05 138.8C183.35 136.45 182.7 136.05 179.75 134C176.75 132.05 173.7 130.2 170.5 128.6C168.9 127.8 167.3 127.05 165.65 126.35C164 125.7 162.35 125 160.65 124.5C163.95 125.85 167.15 127.45 170.25 129.15C173.35 130.85 176.4 132.65 179.35 134.65C182.3 136.6 182.95 137 185.7 139.25C188.5 141.45 191.1 143.85 193.75 146.25L191.85 144.3Z" fill="white"/>
<path d="M232.45 149.8C232.45 150.95 232.35 152.05 232.1 153.15C230.1 162.85 220.05 169.85 211.45 174.75C207.5 177 203.3 179.4 199.25 181.7C196.35 183.3 193.45 185.2 190.3 186.45C180.05 190.7 167.95 189.55 158.6 183.65C158.6 183.65 158.55 183.65 158.55 183.6C157.8 183.15 156.35 182.35 155.95 182.1C155.85 177.75 154.1 171.5 151.7 167.45C148.55 161.8 143.8 156.25 137.4 154.85C131.6 153.65 127.95 158.45 127.55 164.05C127.5 164.45 127.5 165.25 127.45 166.05L72.4999 134.3C69.3999 117.75 72.3499 91.3 77.9999 71.5C77.9499 71.45 77.8999 71.45 77.8499 71.4C77.8999 71.45 77.9499 71.45 77.9999 71.45C90.2999 78.65 101 84.35 108.95 88.95C111.25 90.3 113.8 91.5 115 92.75C116.2 94 116.5 94.55 116.9 95.55C117 95.8 117.25 96.4 117.5 97.25C119.15 103.05 117.65 122.75 118.25 124.75L109.15 119C99.6999 113.1 88.7999 105.95 79.5999 100.2C79.6499 100.25 79.6999 100.25 79.7499 100.3C81.3499 101.55 103.15 117.9 116.4 126.3C117.25 126.85 118.15 127.45 119 128C125.05 131.9 131.4 135.85 136.95 139.05C163.2 154.2 177.2 162.3 208.05 144.5C214.05 140.95 217.75 138.2 221.15 134.55C221.95 133.65 222.75 132.7 223.45 131.7C223.55 131.6 223.6 131.5 223.7 131.35C226.95 126.65 227.75 121.15 225.25 116.45C225.2 116.3 225.1 116.15 225 116C224.85 115.7 224.7 115.45 224.55 115.2C224.45 115.05 224.35 114.9 224.25 114.75C223.8 114 222.65 112.75 222.4 112.55C223 113 223.65 113.5 224.25 113.95C224.75 114.35 225.25 114.75 225.7 115.15C225.85 115.3 226 115.45 226.15 115.55L226.45 115.85C226.5 115.9 226.5 115.9 226.55 115.95C227.35 116.8 228.1 117.75 228.7 118.7C228.75 118.8 228.85 118.9 228.9 119C228.95 119.05 229 119.1 229 119.2C231.2 122.75 232.2 126.95 232.45 131.6C232.5 132.3 232.45 148.65 232.45 149.8Z" fill="#F5F6FA"/>
<path opacity="0.05" d="M232.45 149.8C232.45 150.95 232.35 152.05 232.1 153.15C230.1 162.85 220.05 169.85 211.45 174.75C207.5 177 203.3 179.4 199.25 181.7C196.35 183.3 193.45 185.2 190.3 186.45C180.05 190.7 167.95 189.55 158.6 183.65C158.6 183.65 158.55 183.65 158.55 183.6C157.8 183.15 156.35 182.35 155.95 182.1C155.85 177.75 154.1 171.5 151.7 167.45C148.55 161.8 143.8 156.25 137.4 154.85C131.6 153.65 127.95 158.45 127.55 164.05C127.5 164.45 127.5 165.25 127.45 166.05L72.4999 134.3C69.3999 117.75 72.3499 91.3 77.9999 71.5C77.9499 71.45 77.8999 71.45 77.8499 71.4C77.8999 71.45 77.9499 71.45 77.9999 71.45C90.2999 78.65 101 84.35 108.95 88.95C111.25 90.3 113.8 91.5 115 92.75C116.2 94 116.5 94.55 116.9 95.55C117 95.8 117.25 96.4 117.5 97.25C119.15 103.05 117.65 122.75 118.25 124.75L109.15 119C99.6999 113.1 88.7999 105.95 79.5999 100.2C79.6499 100.25 79.6999 100.25 79.7499 100.3C81.3499 101.55 103.15 117.9 116.4 126.3C117.25 126.85 118.15 127.45 119 128C125.05 131.9 131.4 135.85 136.95 139.05C163.2 154.2 177.2 162.3 208.05 144.5C214.05 140.95 217.75 138.2 221.15 134.55C221.95 133.65 222.75 132.7 223.45 131.7C223.55 131.6 223.6 131.5 223.7 131.35C226.95 126.65 227.75 121.15 225.25 116.45C225.2 116.3 225.1 116.15 225 116C224.85 115.7 224.7 115.45 224.55 115.2C224.45 115.05 224.35 114.9 224.25 114.75C223.8 114 222.65 112.75 222.4 112.55C223 113 223.65 113.5 224.25 113.95C224.75 114.35 225.25 114.75 225.7 115.15C225.85 115.3 226 115.45 226.15 115.55L226.45 115.85C226.5 115.9 226.5 115.9 226.55 115.95C227.35 116.8 228.1 117.75 228.7 118.7C228.75 118.8 228.85 118.9 228.9 119C228.95 119.05 229 119.1 229 119.2C231.2 122.75 232.2 126.95 232.45 131.6C232.5 132.3 232.45 148.65 232.45 149.8Z" fill="black"/>
<g opacity="0.3">
<path opacity="0.3" d="M73.2 94.85C71.9 107.4 70.95 120.1 72.35 132.7C70.05 120.2 71 107.3 73.2 94.85Z" fill="black"/>
</g>
<g opacity="0.3">
<path opacity="0.3" d="M91.45 105.6C90.15 118.15 89.2 130.85 90.6 143.45C88.3 130.95 89.25 118.05 91.45 105.6Z" fill="black"/>
</g>
<path opacity="0.2" d="M134.8 80.45C131.3 78.25 118.6 70.7 115 68.7L109.55 65.7C107.7 64.7 105.9 63.7 104.05 62.75C105.8 63.85 107.6 64.95 109.35 66L114.7 69.2C118.25 71.35 131.1 78.55 134.8 80.45ZM147.1 73.35C143.6 71.15 130.9 63.6 127.3 61.6L121.85 58.6C120 57.6 118.2 56.6 116.35 55.65C118.1 56.75 119.9 57.85 121.65 58.9L127 62.1C130.6 64.2 143.45 71.4 147.1 73.35ZM125.55 85.8C122.05 83.6 109.35 76.05 105.75 74.05L100.3 71.05C98.45 70.05 96.65 69.05 94.8 68.1C96.55 69.2 98.35 70.3 100.1 71.35L105.45 74.55C109 76.65 121.85 83.85 125.55 85.8ZM156.35 68C152.85 65.8 140.2 58.25 136.55 56.2L131.1 53.2C129.25 52.2 127.45 51.2 125.6 50.25C127.35 51.35 129.15 52.45 130.9 53.5L136.25 56.7C139.85 58.9 152.7 66.1 156.35 68Z" fill="white"/>
<path d="M184.6 83L185.1 85.1C186.25 87.25 188.8 89.95 189.7 89.75C190.5 89.55 191 88.35 191.25 86.9C191.35 86.25 191.45 85.5001 191.45 84.8001C191.55 82.5001 190.5 77.1 187.3 75.7C186.55 75.4 185.9 75.6501 185.4 76.1501C184.95 76.5501 184.65 77.15 184.5 77.7C183.95 79.2 184.5 82.95 184.6 83Z" fill="#375A64"/>
<path d="M185.1 85.1C186.25 87.25 188.8 89.95 189.7 89.75C190.5 89.55 191 88.35 191.25 86.9C191.35 86.25 191.45 85.5001 191.45 84.8001C191.55 82.5001 190.5 77.1 187.3 75.7C186.55 75.4 185.9 75.6501 185.4 76.1501L185.85 77.1501C188.1 78.1001 188.7 81.55 188.5 84.2C188.3 86.7 186.35 86.45 185.1 85.1Z" fill="#2B454E"/>
<path d="M184.5 77.6001C185.3 76.7501 187.3 76.7001 189 79.0001C190.7 81.3001 191.25 85.3001 191.25 86.8501C191.35 86.2001 191.45 85.4501 191.45 84.7501C191.55 82.4501 190.5 77.0501 187.3 75.6501C186 75.0501 184.9 76.4001 184.5 77.6001Z" fill="#1A2E35"/>
<path d="M128.55 137.1C130.5 138.35 132.25 139.45 132.9 139.85C133.1 139.95 133.2 140.2 133.2 140.4L133.3 142.55C133.3 142.9 132.95 143.1 132.65 142.95L128.3 140.25C128.1 140.15 128 139.9 127.95 139.7L127.85 137.5C127.85 137.15 128.25 136.95 128.55 137.1Z" fill="#F5F6FA"/>
<g opacity="0.2">
<path opacity="0.2" d="M128.55 137.1C130.5 138.35 132.25 139.45 132.9 139.85C133.1 139.95 133.2 140.2 133.2 140.4L133.3 142.55C133.3 142.9 132.95 143.1 132.65 142.95L128.3 140.25C128.1 140.15 128 139.9 127.95 139.7L127.85 137.5C127.85 137.15 128.25 136.95 128.55 137.1Z" fill="white"/>
</g>
<path d="M117.65 97.2501L118.4 124.75L124.15 128.05C130.35 131.6 137.85 132 144.35 129.1C151.95 125.7 162.35 120.75 170.85 115.85C181.6 109.65 189.85 103.15 193.85 99.8001C194.2 99.5001 194.5 99.2001 194.75 98.8001C195.85 97.1501 195.7 94.9001 194.45 93.3001C187.15 84.1001 183.3 77.4001 169.7 65.3C174.65 69.5501 159.95 78.0501 149.65 84.0001C139.4 89.9501 126.9 97.1501 120.4 97.3501C119.35 97.4001 118.5 97.3501 117.65 97.2501Z" fill="#2B454E"/>
<path d="M124.15 128.1L118.4 124.8L76.1 98.1001C76.1 94.1001 78.35 81.3001 79.75 77.6001C86 81.2001 91.2 84.2001 98.7 88.5501C107.2 93.4501 112.25 96.6501 117.65 97.3001L124.15 128.1Z" fill="#1A2E35"/>
<path d="M120.25 97.4001C120.9 97.4001 121.6 97.3001 122.35 97.1501C121.95 98.6501 120.7 99.6501 122.05 105.3C127.15 126.75 127.2 129.5 129.85 130.45C127.85 129.95 125.9 129.2 124.1 128.15L117.6 97.3501C118.5 97.3501 119.35 97.4001 120.25 97.4001Z" fill="black"/>
<path d="M93.85 109.25L88.75 106.05L91.55 84.3501C92.8 85.1001 94 85.8001 95.15 86.4501L93.85 109.25Z" fill="black"/>
<path d="M169.55 69.9C174.4 72.95 175.3 77.3 180.05 82.6C185.55 88.8 188 94.5 180.35 89.7C174.4 85.95 167.25 81.15 160.85 77.2C164.65 74.7 167.95 72.15 169.55 69.9Z" fill="#375A64"/>
<path d="M232.1 153.1C231.8 153.4 231.45 153.75 231.1 154.1C230.2 154.95 229.15 155.9 228 156.95C227.85 157.1 227.65 157.25 227.45 157.4C226 158.65 224.4 159.95 222.65 161.3C222.2 161.65 221.75 162 221.3 162.3C219.95 163.35 218.5 164.35 217 165.4C216.5 165.75 215.95 166.15 215.4 166.5C214.75 166.95 214.1 167.4 213.4 167.8C212.75 168.25 212.05 168.65 211.35 169.1C210.65 169.55 210 169.95 209.3 170.35C208.6 170.75 207.9 171.2 207.2 171.6C192.95 179.7 184.15 184.2 177.15 184.1C176.85 184.1 176.5 184.1 176.15 184.1C176 184.1 175.9 184.1 175.75 184.1C175 184.1 174.25 184.05 173.4 183.95C173.2 183.95 172.95 183.9 172.75 183.9C172.6 183.9 172.45 183.85 172.25 183.85C172.15 183.85 172 183.8 171.9 183.8C171.7 183.75 171.5 183.75 171.25 183.7C171.1 183.65 170.9 183.65 170.7 183.6C170.5 183.55 170.35 183.55 170.15 183.5C169.5 183.35 168.85 183.2 168.15 183C167.95 182.95 167.75 182.9 167.55 182.8C166.45 182.45 165.3 182 164.05 181.4C163.9 181.35 163.75 181.25 163.55 181.15C162.25 180.5 160.85 179.7 159.35 178.75C159.05 178.55 158.8 178.4 158.5 178.2V186.25C166.95 192 172.6 192.05 177 192.15C184.05 192.3 192.85 187.75 207.05 179.65C217.75 173.6 227.7 165.5 231.95 161.1L232 161.05C233.4 159.6 234.15 157.6 234.15 155.6V150.1C234.3 150.6 233.5 151.65 232.1 153.1Z" fill="#2B454E"/>
<path d="M158.65 178.25C167.1 184 172.75 184.05 177.15 184.15C184.2 184.3 193 179.75 207.2 171.65C221.4 163.6 234.25 152 234.25 150.1C234.25 146.85 232.4 146.45 232.4 146.45V148.85C232.4 148.85 226.15 156.6 209.65 166.8C192.65 177.35 184.9 181.35 176.3 181.35C167.7 181.35 161.15 176.45 161.15 176.45L158.65 178.25Z" fill="#375A64"/>
<path d="M187.5 156.2L192.1 160.85C193.25 162.05 195.05 162.4 196.6 161.8C199.35 160.7 204.15 158.5 210.3 154.7C216.15 151.1 219.75 148.25 221.7 146.5C222.95 145.4 223.7 143.8 223.75 142.1L223.9 134.9C223.9 134.6 223.55 134.5 223.4 134.7C220.65 138.25 216.3 142.1 209.65 146.2C201.55 151.2 194.35 154.25 187.7 155.65C187.4 155.75 187.3 156.05 187.5 156.2Z" fill="#2B454E"/>
<path d="M223.9 151.35C223.75 151.2 223.5 151.2 223.35 151.35C216.6 158.55 202.6 166.45 193.75 169.25C193.55 169.3 193.45 169.5 193.5 169.75C193.55 169.9 193.7 170 193.85 170C193.9 170 193.9 170 193.95 170C202.9 167.15 217.05 159.2 223.9 151.9C224.05 151.7 224.05 151.5 223.9 151.35ZM223.8 148.35C223.65 148.2 223.4 148.2 223.25 148.35C216.5 155.55 202.5 163.45 193.65 166.25C193.45 166.3 193.35 166.55 193.4 166.75C193.45 166.9 193.6 167 193.75 167C193.8 167 193.8 167 193.85 167C202.8 164.15 216.95 156.2 223.8 148.9C223.95 148.7 223.95 148.5 223.8 148.35Z" fill="#E1E1E1"/>
<path d="M186.4 158C185.55 156.9 184.15 156.25 182.75 156.35C177.85 156.6 169.85 156.2 164.7 154.45C158.75 152.4 157.6 152.2 158.6 155.5C159.6 158.8 162.3 163.25 167.5 164.4C176.85 166.5 184.45 165.9 188.35 164.3C190.25 163.45 188.05 160.2 186.4 158Z" fill="#F5F6FA"/>
<path opacity="0.8" d="M186.4 158C185.55 156.9 184.15 156.25 182.75 156.35C177.85 156.6 169.85 156.2 164.7 154.45C158.75 152.4 157.6 152.2 158.6 155.5C159.6 158.8 162.3 163.25 167.5 164.4C176.85 166.5 184.45 165.9 188.35 164.3C190.25 163.45 188.05 160.2 186.4 158Z" fill="white"/>
<path d="M167.5 164.35C162.25 163.2 159.55 158.75 158.6 155.45C157.7 152.35 158.65 152.35 163.75 154.1C165.6 158.1 168.2 161.8 171.85 164.2C172.45 164.6 173.1 164.95 173.7 165.35C171.7 165.15 169.65 164.85 167.5 164.35Z" fill="white"/>
<path d="M225.4 133.95C225.4 132.75 225.75 131.6 226.35 130.6C227.85 128 228.75 124.35 228.6 121.3C228.4 117.65 229.95 118.35 230.8 119.8C231.65 121.25 233.85 126.45 232.45 131.4C231.3 135.55 228.2 139.8 226.1 142.1C225.75 142.5 225.05 142.25 225.1 141.7C225.15 139.8 225.35 136.4 225.4 133.95Z" fill="#F5F6FA"/>
<path opacity="0.8" d="M225.4 133.95C225.4 132.75 225.75 131.6 226.35 130.6C227.85 128 228.75 124.35 228.6 121.3C228.4 117.65 229.95 118.35 230.8 119.8C231.65 121.25 233.85 126.45 232.45 131.4C231.3 135.55 228.2 139.8 226.1 142.1C225.75 142.5 225.05 142.25 225.1 141.7C225.15 139.8 225.35 136.4 225.4 133.95Z" fill="white"/>
<path d="M178.6 169.75C175 168.85 169.45 168.15 167.25 169.55C165.8 170.5 167.45 173.15 168.2 174.05C169.3 175.3 170.8 176.15 172.4 176.5C174.55 177 176.8 176.7 178.9 176.15C185.35 174.5 185.65 171.6 178.6 169.75ZM231.8 138C231.75 138.05 231.75 138.05 231.7 138.1C230.55 139.25 229.65 140.6 228.95 142.05C228.35 143.35 228.05 144.65 228.05 146.1C228.05 146.5 228.1 146.9 228.3 147.2C228.7 147.9 229.55 147.6 230.15 147.35C230.45 147.2 230.75 147.05 231 146.85C231.25 146.7 231.45 146.5 231.7 146.3C231.95 146.05 232.2 145.8 232.45 145.55C233.7 144.25 233.8 137.3 232.45 137.4C232.25 137.55 232 137.8 231.8 138Z" fill="#F0F0F0"/>
<path d="M105 123.4C106.05 128.3 111.45 129.35 115.5 129.2C117.65 129.15 119.4 128.75 119.95 128.45C121.5 127.55 120.8 125.65 119.95 124.6C118.55 122.75 112.15 119.05 108.15 118.95C105.85 118.8 104.3 119.95 105 123.4Z" fill="#375A64"/>
<path d="M105 123.4C106.05 128.3 111.45 129.35 115.5 129.2C117.65 129.15 119.4 128.75 119.95 128.45C121.5 127.55 120.8 125.65 119.95 124.6C120.75 126.1 116.55 127 112.85 125.7C109.1 124.35 106.35 121.5 108.15 118.95C105.85 118.8 104.3 119.95 105 123.4Z" fill="#2B454E"/>
<path d="M105 123.4C106.05 128.3 111.45 129.35 115.5 129.2C111.45 129.1 108.25 126.75 107 124.2C105.8 121.65 106.7 119.2 108.15 118.9C105.85 118.8 104.3 119.95 105 123.4Z" fill="#1A2E35"/>
<path d="M127.55 166V168.05L123.5 170.4V168.35L127.55 166Z" fill="#1A2E35"/>
<path d="M40.85 122.7L123.5 170.4V168.35L40.85 120.6V122.7Z" fill="#2B454E"/>
<path d="M44.9 118.3L40.85 120.6L123.5 168.35L127.55 166L44.9 118.3Z" fill="#375A64"/>
<path opacity="0.3" d="M153.15 124.15L257.3 63.95C257.65 63.75 257.9 63.9 257.9 64.3V155C257.9 155.4 257.65 155.85 257.3 156.05L153.15 216.25C152.8 216.45 152.55 216.3 152.55 215.9V125.2C152.55 124.8 152.85 124.3 153.15 124.15Z" fill="#28995A"/>
<path d="M239.85 113.25L186.75 143.05C186.15 143.4 185.7 144.2 185.7 144.9V169C185.7 169.7 186.2 170.5 186.8 170.85L191.05 173.25C191.65 173.6 192.6 173.6 193.2 173.25L246.3 143.45C246.9 143.1 247.35 142.3 247.35 141.6V117.5C247.35 116.8 246.85 116 246.25 115.65L242 113.25C241.4 112.9 240.45 112.9 239.85 113.25Z" fill="#1A2E35"/>
<path d="M247.3 117.3C247.2 116.75 246.8 116.55 246.25 116.9L193.15 146.7C192.85 146.85 192.6 147.15 192.4 147.5L186 143.85C186.2 143.55 186.45 143.25 186.75 143.1L239.85 113.3C240.45 112.95 241.4 112.95 242 113.3L246.25 115.7C246.75 115.95 247.2 116.7 247.3 117.3Z" fill="#375A64"/>
<path d="M246.25 116.9L193.15 146.7C192.55 147.05 192.1 147.85 192.1 148.55V172.6C192.1 173.3 192.6 173.55 193.15 173.2L246.25 143.4C246.85 143.05 247.3 142.25 247.3 141.55V117.5C247.3 116.85 246.85 116.55 246.25 116.9Z" fill="white"/>
<path d="M198.762 161.051C198.716 161.077 198.663 161.085 198.602 161.073C198.548 161.058 198.505 161.025 198.476 160.973C198.462 160.949 198.453 160.92 198.448 160.884L197.34 154.089C197.324 154.021 197.328 153.953 197.351 153.886C197.377 153.81 197.433 153.748 197.52 153.698L198.466 153.157C198.553 153.107 198.633 153.093 198.706 153.112C198.775 153.126 198.838 153.156 198.894 153.2L204.187 157.604C204.21 157.63 204.227 157.655 204.241 157.678C204.27 157.73 204.278 157.783 204.263 157.838C204.248 157.892 204.217 157.933 204.171 157.959L203.416 158.391C203.335 158.437 203.264 158.455 203.204 158.443C203.146 158.422 203.101 158.398 203.07 158.37L202.056 157.544L199.478 159.018L199.675 160.31C199.683 160.351 199.679 160.404 199.661 160.468C199.647 160.522 199.599 160.573 199.518 160.619L198.762 161.051ZM199.211 157.846L201.182 156.719L198.659 154.602L199.211 157.846ZM205.364 157.278C205.306 157.311 205.247 157.321 205.186 157.31C205.123 157.293 205.073 157.252 205.036 157.188L201.806 151.536C201.769 151.473 201.76 151.409 201.777 151.345C201.795 151.282 201.832 151.233 201.89 151.2L202.68 150.749C202.744 150.712 202.805 150.704 202.863 150.725C202.926 150.742 202.976 150.783 203.013 150.847L204.293 153.087L205.048 152.655L205.148 149.545C205.151 149.482 205.167 149.423 205.197 149.368C205.232 149.309 205.291 149.257 205.372 149.21L206.231 148.719C206.289 148.686 206.342 148.679 206.391 148.697C206.446 148.712 206.488 148.745 206.518 148.797C206.534 148.826 206.543 148.868 206.543 148.921L206.415 152.507L209.84 154.328C209.867 154.335 209.894 154.362 209.92 154.408C209.95 154.46 209.956 154.518 209.939 154.582C209.927 154.642 209.893 154.689 209.835 154.722L208.941 155.233C208.865 155.276 208.798 155.292 208.737 155.28C208.683 155.266 208.636 155.25 208.596 155.235L205.712 153.715L204.913 154.172L206.243 156.499C206.276 156.557 206.284 156.617 206.267 156.681C206.255 156.741 206.217 156.79 206.154 156.826L205.364 157.278ZM214.683 151.951C214.62 151.988 214.556 151.997 214.492 151.98C214.434 151.959 214.389 151.92 214.356 151.862L211.785 147.365L211.046 149.135C211.014 149.199 210.97 149.243 210.915 149.267C210.856 149.286 210.792 149.28 210.721 149.251L210.089 148.991C210.024 148.959 209.978 148.912 209.951 148.851C209.93 148.786 209.935 148.722 209.967 148.657L211.054 146.044C211.072 145.995 211.097 145.958 211.128 145.932C211.159 145.906 211.195 145.882 211.236 145.859L212 145.422C212.058 145.389 212.119 145.381 212.182 145.399C212.246 145.416 212.294 145.454 212.327 145.511L215.563 151.172C215.596 151.23 215.604 151.291 215.586 151.354C215.569 151.418 215.531 151.467 215.473 151.5L214.683 151.951ZM216.896 150.686C216.838 150.719 216.778 150.727 216.714 150.71C216.65 150.693 216.602 150.655 216.569 150.597L216.316 150.154C216.286 150.102 216.263 150.035 216.246 149.952C216.232 149.86 216.25 149.75 216.3 149.622L216.892 147.475C217.102 146.956 217.263 146.526 217.376 146.185C217.491 145.835 217.551 145.544 217.556 145.311C217.563 145.068 217.517 144.86 217.418 144.687C217.269 144.426 217.076 144.256 216.839 144.177C216.607 144.094 216.338 144.141 216.031 144.316C215.829 144.432 215.683 144.573 215.593 144.739C215.501 144.899 215.454 145.072 215.452 145.257C215.456 145.439 215.492 145.623 215.559 145.807C215.59 145.889 215.588 145.959 215.553 146.018C215.517 146.077 215.473 146.121 215.421 146.151L214.648 146.592C214.596 146.622 214.543 146.629 214.488 146.614C214.434 146.6 214.393 146.569 214.367 146.523C214.23 146.271 214.145 146.001 214.111 145.713C214.074 145.419 214.097 145.13 214.179 144.845C214.265 144.55 214.412 144.27 214.621 144.005C214.83 143.739 215.105 143.509 215.447 143.314C215.927 143.039 216.37 142.894 216.775 142.877C217.186 142.857 217.549 142.942 217.864 143.13C218.185 143.315 218.445 143.582 218.643 143.929C218.799 144.201 218.891 144.482 218.919 144.773C218.944 145.059 218.919 145.365 218.844 145.691C218.767 146.012 218.652 146.362 218.5 146.741L217.981 148.696L220.456 147.281C220.519 147.245 220.58 147.237 220.638 147.258C220.698 147.269 220.747 147.307 220.783 147.371L221.136 147.987C221.169 148.045 221.176 148.106 221.159 148.169C221.148 148.23 221.11 148.278 221.046 148.314L216.896 150.686ZM224.422 146.5C224.017 146.732 223.639 146.883 223.287 146.953C222.936 147.023 222.617 147.037 222.331 146.993C222.047 146.94 221.804 146.849 221.599 146.72C221.392 146.585 221.232 146.427 221.12 146.245C221.091 146.193 221.085 146.142 221.103 146.094C221.124 146.036 221.16 145.992 221.212 145.962L221.994 145.515C222.051 145.482 222.107 145.466 222.161 145.466C222.215 145.466 222.276 145.492 222.345 145.545C222.486 145.672 222.641 145.748 222.81 145.775C222.984 145.798 223.161 145.785 223.341 145.736C223.517 145.682 223.692 145.605 223.865 145.505C224.213 145.307 224.441 145.069 224.551 144.791C224.664 144.504 224.632 144.207 224.457 143.9C224.281 143.594 224.06 143.428 223.793 143.404C223.523 143.375 223.217 143.457 222.875 143.652L221.981 144.163C221.917 144.2 221.855 144.212 221.795 144.201C221.731 144.183 221.681 144.143 221.645 144.079L221.437 143.715C221.403 143.657 221.387 143.601 221.387 143.547C221.389 143.484 221.397 143.43 221.409 143.385L222.095 140.977L219.612 142.396C219.548 142.433 219.485 142.442 219.421 142.425C219.363 142.404 219.318 142.365 219.284 142.307L218.957 141.734C218.921 141.67 218.908 141.608 218.92 141.548C218.937 141.484 218.978 141.434 219.041 141.398L222.766 139.269C222.829 139.233 222.893 139.223 222.957 139.24C223.021 139.258 223.071 139.298 223.107 139.362L223.405 139.883C223.434 139.935 223.449 139.988 223.449 140.042C223.449 140.095 223.443 140.145 223.431 140.191L222.812 142.594L222.921 142.544C223.291 142.371 223.65 142.273 223.998 142.251C224.348 142.219 224.67 142.285 224.963 142.448C225.261 142.607 225.518 142.875 225.733 143.252C225.958 143.645 226.047 144.043 226.001 144.446C225.957 144.84 225.799 145.214 225.526 145.57C225.253 145.925 224.885 146.235 224.422 146.5ZM230.571 142.871C230.513 142.904 230.452 142.912 230.388 142.895C230.325 142.877 230.276 142.84 230.243 142.782L229.608 141.67L226.856 143.243C226.792 143.28 226.728 143.289 226.665 143.272C226.607 143.251 226.561 143.212 226.528 143.154L226.191 142.564C226.171 142.529 226.154 142.485 226.139 142.432C226.126 142.37 226.126 142.309 226.138 142.249L226.669 137.234C226.688 137.092 226.767 136.982 226.906 136.903L227.852 136.362C227.91 136.329 227.971 136.321 228.035 136.338C228.098 136.356 228.147 136.393 228.18 136.451L230.195 139.976L230.967 139.534C231.037 139.495 231.1 139.485 231.158 139.506C231.219 139.517 231.267 139.555 231.303 139.619L231.651 140.226C231.684 140.284 231.692 140.345 231.674 140.409C231.657 140.472 231.619 140.521 231.561 140.554L230.78 141L231.415 142.112C231.448 142.17 231.456 142.23 231.439 142.294C231.421 142.358 231.384 142.406 231.326 142.439L230.571 142.871ZM227.289 141.683L229.068 140.666L227.634 138.157L227.289 141.683ZM235.093 140.286C235.046 140.313 234.993 140.32 234.933 140.309C234.878 140.294 234.836 140.26 234.806 140.208C234.793 140.185 234.784 140.156 234.779 140.12L233.671 133.324C233.655 133.257 233.659 133.189 233.682 133.122C233.707 133.046 233.764 132.983 233.851 132.934L234.797 132.393C234.884 132.343 234.963 132.328 235.036 132.348C235.106 132.362 235.169 132.392 235.225 132.436L240.518 136.84C240.54 136.866 240.558 136.89 240.571 136.913C240.601 136.966 240.608 137.019 240.593 137.073C240.579 137.128 240.548 137.169 240.502 137.195L239.746 137.627C239.665 137.673 239.595 137.69 239.534 137.679C239.476 137.658 239.432 137.634 239.4 137.606L238.387 136.78L235.808 138.253L236.006 139.546C236.014 139.587 236.009 139.64 235.992 139.703C235.977 139.758 235.929 139.808 235.848 139.855L235.093 140.286ZM235.541 137.081L237.512 135.955L234.989 133.838L235.541 137.081ZM241.694 136.513C241.636 136.546 241.576 136.554 241.512 136.537C241.448 136.52 241.4 136.482 241.367 136.424L238.136 130.772C238.1 130.708 238.091 130.645 238.108 130.581C238.125 130.517 238.163 130.469 238.221 130.436L240.739 128.997C241.207 128.729 241.631 128.583 242.009 128.559C242.383 128.529 242.711 128.599 242.992 128.769C243.279 128.935 243.517 129.183 243.705 129.513C243.831 129.733 243.901 129.95 243.916 130.164C243.934 130.369 243.914 130.557 243.858 130.727C243.808 130.894 243.744 131.038 243.667 131.159C243.952 131.134 244.251 131.193 244.564 131.337C244.877 131.481 245.129 131.721 245.321 132.057C245.519 132.404 245.618 132.758 245.617 133.119C245.616 133.481 245.507 133.827 245.29 134.159C245.069 134.485 244.733 134.777 244.281 135.035L241.694 136.513ZM242.167 135.022L243.617 134.194C243.929 134.015 244.118 133.796 244.185 133.535C244.247 133.269 244.209 133.014 244.07 132.771C243.925 132.516 243.72 132.353 243.456 132.281C243.198 132.206 242.916 132.256 242.609 132.431L241.159 133.26L242.167 135.022ZM240.643 132.357L242.006 131.578C242.313 131.403 242.5 131.2 242.568 130.969C242.638 130.729 242.606 130.491 242.47 130.253C242.331 130.01 242.146 129.867 241.913 129.823C241.683 129.77 241.415 129.831 241.108 130.007L239.745 130.786L240.643 132.357Z" fill="#313647"/>
<path d="M154 216L280.75 164.5L300.75 153.5L259 155L154 216Z" fill="url(#paint0_linear_901_25636)"/>
<path d="M153 125L276.5 166.5L296.5 155.5L258 64.5L153 125Z" fill="url(#paint1_linear_901_25636)"/>
<defs>
<linearGradient id="paint0_linear_901_25636" x1="312.5" y1="154" x2="154" y2="216" gradientUnits="userSpaceOnUse">
<stop stop-color="#009A44" stop-opacity="0"/>
<stop offset="1" stop-color="#009A44"/>
</linearGradient>
<linearGradient id="paint1_linear_901_25636" x1="224.75" y1="64.5" x2="291.5" y2="158.5" gradientUnits="userSpaceOnUse">
<stop stop-color="#009A44" stop-opacity="0.5"/>
<stop offset="1" stop-color="#009A44" stop-opacity="0"/>
</linearGradient>
</defs>
</svg>
