<svg width="330" height="300" viewBox="0 0 330 300" fill="none" xmlns="http://www.w3.org/2000/svg">
<path d="M51.4 186C52.05 184.8 51.05 183.35 49.05 182.9C46.7 182.35 43.85 183.55 42.75 185.75C42.3 186.6 42.45 187.7 43.75 188.25C44.6 188.6 45.8 188.55 46.8 188.4C48.85 188.05 50.8 187.15 51.4 186ZM47.35 196.05C45.4 200.4 49.2 208.9 59.7 204.85C63.05 203.55 64.6 201.05 63.95 198.8C62.55 193.85 50.35 189.4 47.35 196.05ZM176.85 166.9C172.3 158.45 158.75 153.8 143.95 154.1C133.5 154.3 122.25 155.85 111.85 155.15C107.85 154.9 103.95 154.15 99.95 154.05C85.75 153.55 72.05 157.4 63.5 163.8C57.65 168.2 55.3 175.05 57.95 180.4C59.5 183.5 62.5 186.25 65.6 188.95C68.9 191.85 72.3 194.8 74 198.1C75.55 201.1 75.6 204.3 76.9 207.35C79.1 212.6 85.15 217.3 93.2 220.1C101.25 222.85 111.3 223.7 120.4 222.3C129.2 220.95 136.9 217.65 142.55 213.55C149.3 208.65 153 202.5 158.15 197.05C163.75 191.15 171.95 185.85 175.95 179.5C178.5 175.45 179.05 170.95 176.85 166.9Z" fill="#28995A"/>
<path opacity="0.95" d="M51.4 186C52.05 184.8 51.05 183.35 49.05 182.9C46.7 182.35 43.85 183.55 42.75 185.75C42.3 186.6 42.45 187.7 43.75 188.25C44.6 188.6 45.8 188.55 46.8 188.4C48.85 188.05 50.8 187.15 51.4 186ZM47.35 196.05C45.4 200.4 49.2 208.9 59.7 204.85C63.05 203.55 64.6 201.05 63.95 198.8C62.55 193.85 50.35 189.4 47.35 196.05ZM176.85 166.9C172.3 158.45 158.75 153.8 143.95 154.1C133.5 154.3 122.25 155.85 111.85 155.15C107.85 154.9 103.95 154.15 99.95 154.05C85.75 153.55 72.05 157.4 63.5 163.8C57.65 168.2 55.3 175.05 57.95 180.4C59.5 183.5 62.5 186.25 65.6 188.95C68.9 191.85 72.3 194.8 74 198.1C75.55 201.1 75.6 204.3 76.9 207.35C79.1 212.6 85.15 217.3 93.2 220.1C101.25 222.85 111.3 223.7 120.4 222.3C129.2 220.95 136.9 217.65 142.55 213.55C149.3 208.65 153 202.5 158.15 197.05C163.75 191.15 171.95 185.85 175.95 179.5C178.5 175.45 179.05 170.95 176.85 166.9Z" fill="white"/>
<path opacity="0.3" d="M145.35 209.45C135.1 216.35 123.5 218.5 111.15 218.65C99.0501 218.8 87.1501 214.45 81.9501 202.35C80.8001 199.65 80.0501 196.75 78.6001 194.2C76.3001 190.15 72.1501 188.2 68.5001 185.35C64.8501 182.5 60.8001 180.2 58.9001 175.95C58.2501 174.45 57.9001 172.85 58.5501 169.35C56.6001 172.95 56.2501 176.95 57.9501 180.35C59.5001 183.45 62.5001 186.2 65.6001 188.9C68.9001 191.8 72.3001 194.75 74.0001 198.05C75.5501 201.05 75.6001 204.25 76.9001 207.3C79.1001 212.55 85.1501 217.25 93.2001 220.05C101.25 222.8 111.3 223.65 120.4 222.25C129.2 220.9 136.9 217.6 142.55 213.5C146.1 210.9 148.8 208 151.3 205C150.3 206.15 146.9 208.45 145.35 209.45ZM49.8001 187.05C48.5001 187.45 47.0501 187.55 45.8501 187C44.9501 186.6 44.1001 185.7 44.3001 184.75C44.3501 184.35 44.6001 184.05 44.8501 183.75C44.9001 183.65 45.0001 183.6 45.1001 183.5C44.1001 184 43.3001 184.75 42.8001 185.75C42.3501 186.6 42.5001 187.7 43.8001 188.25C44.6501 188.6 45.8501 188.55 46.8501 188.4C48.6001 188.15 50.2001 187.5 51.0501 186.6C50.6001 186.75 50.2001 186.9 49.8001 187.05ZM55.3001 202.85C54.2001 202.6 53.1001 202.2 52.2001 201.5C50.4501 200.2 49.7001 197.9 49.7001 195.75C49.7001 194.9 49.8501 193.95 50.3001 193.2C49.0001 193.7 47.9501 194.65 47.3001 196.05C45.3501 200.4 49.1501 208.9 59.6501 204.85C61.2501 204.25 62.4001 203.35 63.1501 202.3C60.8001 203.55 57.9001 203.5 55.3001 202.85Z" fill="#28995A"/>
<path d="M196.55 260.5C196.85 259.9 196.35 259.15 195.35 258.9C194.15 258.65 192.7 259.2 192.1 260.35C191.9 260.8 191.95 261.35 192.6 261.6C193.05 261.75 193.65 261.75 194.15 261.7C195.25 261.6 196.25 261.15 196.55 260.5ZM194.45 265.65C193.45 267.85 195.4 272.2 200.75 270.15C202.45 269.5 203.25 268.2 202.95 267.05C202.25 264.55 196 262.25 194.45 265.65ZM260.55 250.8C258.25 246.5 251.3 244.1 243.8 244.25C238.45 244.35 232.75 245.15 227.45 244.8C225.4 244.65 223.45 244.3 221.4 244.25C214.15 244 207.15 245.95 202.8 249.25C199.85 251.5 198.6 255 199.95 257.7C200.75 259.3 202.3 260.65 203.85 262.05C205.55 263.55 207.25 265 208.15 266.7C208.95 268.25 208.95 269.85 209.6 271.4C210.75 274.1 213.8 276.5 217.9 277.9C222 279.3 227.15 279.75 231.75 279C236.25 278.3 240.15 276.65 243.05 274.55C246.5 272.05 248.35 268.9 251 266.15C253.85 263.15 258.05 260.45 260.1 257.2C261.35 255.15 261.65 252.85 260.55 250.8Z" fill="#28995A"/>
<path opacity="0.95" d="M196.55 260.5C196.85 259.9 196.35 259.15 195.35 258.9C194.15 258.65 192.7 259.2 192.1 260.35C191.9 260.8 191.95 261.35 192.6 261.6C193.05 261.75 193.65 261.75 194.15 261.7C195.25 261.6 196.25 261.15 196.55 260.5ZM194.45 265.65C193.45 267.85 195.4 272.2 200.75 270.15C202.45 269.5 203.25 268.2 202.95 267.05C202.25 264.55 196 262.25 194.45 265.65ZM260.55 250.8C258.25 246.5 251.3 244.1 243.8 244.25C238.45 244.35 232.75 245.15 227.45 244.8C225.4 244.65 223.45 244.3 221.4 244.25C214.15 244 207.15 245.95 202.8 249.25C199.85 251.5 198.6 255 199.95 257.7C200.75 259.3 202.3 260.65 203.85 262.05C205.55 263.55 207.25 265 208.15 266.7C208.95 268.25 208.95 269.85 209.6 271.4C210.75 274.1 213.8 276.5 217.9 277.9C222 279.3 227.15 279.75 231.75 279C236.25 278.3 240.15 276.65 243.05 274.55C246.5 272.05 248.35 268.9 251 266.15C253.85 263.15 258.05 260.45 260.1 257.2C261.35 255.15 261.65 252.85 260.55 250.8Z" fill="white"/>
<path opacity="0.3" d="M244.45 272.5C239.2 276.05 233.3 277.1 227 277.2C220.85 277.3 214.75 275.05 212.1 268.9C211.5 267.5 211.1 266.05 210.4 264.75C209.25 262.7 207.1 261.7 205.25 260.25C203.4 258.8 201.3 257.6 200.35 255.45C200 254.7 199.85 253.85 200.2 252.1C199.2 253.95 199 255.95 199.9 257.7C200.7 259.3 202.25 260.65 203.8 262.05C205.5 263.55 207.2 265 208.1 266.7C208.9 268.25 208.9 269.85 209.55 271.4C210.7 274.1 213.75 276.5 217.85 277.9C221.95 279.3 227.1 279.75 231.7 279C236.2 278.3 240.1 276.65 243 274.55C244.8 273.25 246.2 271.75 247.45 270.25C247 270.8 245.25 272 244.45 272.5ZM195.7 261.05C195.05 261.25 194.3 261.3 193.65 261C193.2 260.8 192.75 260.35 192.85 259.85C192.9 259.65 193 259.5 193.1 259.35C193.15 259.3 193.2 259.25 193.2 259.2C192.7 259.45 192.25 259.85 192 260.35C191.8 260.8 191.85 261.35 192.5 261.6C192.95 261.75 193.55 261.75 194.05 261.7C194.95 261.55 195.75 261.25 196.2 260.8C196.1 260.9 195.95 261 195.7 261.05ZM198.55 269.15C198 269 197.45 268.8 197 268.45C196.1 267.8 195.7 266.6 195.7 265.5C195.7 265.05 195.8 264.6 196 264.2C195.35 264.45 194.8 264.95 194.5 265.65C193.5 267.85 195.45 272.2 200.8 270.15C201.6 269.85 202.2 269.4 202.6 268.85C201.35 269.5 199.85 269.45 198.55 269.15Z" fill="#28995A"/>
<path d="M270.15 258.6L300.85 240.85L327.15 255.95L296.55 273.7L270.15 258.6Z" fill="#455A64"/>
<path d="M270.15 258.6V263.65L296.55 278.85V273.7L270.15 258.6Z" fill="#263238"/>
<path d="M327.15 255.95V261.1L296.55 278.85V273.7L327.15 255.95Z" fill="#37474F"/>
<path d="M299.5 153.75C298.65 153.35 297.55 153.35 296.15 154.05L283.6 161.3C281.1 162.85 279 166.45 279 169.4V258.5L296.6 268.7L318.5 256V166.85C318.5 165.3 317.95 164.35 317.1 163.8C316.25 163.35 300.3 154.3 299.5 153.75Z" fill="#28995A"/>
<path opacity="0.2" d="M297.8 174.95C296.95 176.5 296.4 178 296.4 179.55V268.65L278.8 258.45V169.35C278.8 167.8 279.35 166.15 280.2 164.75L297.8 174.95Z" fill="black"/>
<path d="M296.55 179.55C296.55 176.6 298.65 173 301.15 171.45L313.7 164.2C316.2 162.65 318.3 163.9 318.3 166.85V255.95L296.4 268.65V179.55H296.55Z" fill="#28995A"/>
<path opacity="0.4" d="M316.95 163.9C316.1 163.5 315 163.5 313.75 164.3L301.2 171.55C299.95 172.25 298.7 173.5 297.85 175.05L280.25 164.85C281.1 163.45 282.2 162.05 283.6 161.35L296.15 154.1C297.4 153.4 298.65 153.25 299.5 153.8C300.3 154.3 315.65 163.1 316.95 163.9Z" fill="white"/>
<path d="M300.85 181.8L314 174.25V184.3L300.85 191.85V181.8Z" fill="#455A64"/>
<path d="M312.75 183.6L314 184.3V174.25L312.75 174.95V183.6Z" fill="#37474F"/>
<path d="M312.75 183.6V174.95L300.85 181.8V190.45L312.75 183.6Z" fill="#28995A"/>
<path opacity="0.4" d="M312.75 183.6V174.95L300.85 181.8V190.45L312.75 183.6Z" fill="black"/>
<path d="M300.85 197.6C300.7 197.6 300.45 197.45 300.45 197.3C300.3 197 300.45 196.75 300.6 196.6L313.75 189.05C314.05 188.9 314.3 189.05 314.45 189.2C314.6 189.5 314.45 189.75 314.3 189.9L301.15 197.45C301 197.45 301 197.6 300.85 197.6Z" fill="#455A64"/>
<path d="M300.85 202.6C300.7 202.6 300.45 202.45 300.45 202.3C300.3 202 300.45 201.75 300.6 201.6L313.75 194.05C314.05 193.9 314.3 194.05 314.45 194.2C314.6 194.5 314.45 194.75 314.3 194.9L301.15 202.45C301 202.6 301 202.6 300.85 202.6Z" fill="#455A64"/>
<path d="M300.85 207.65C300.7 207.65 300.45 207.5 300.45 207.35C300.3 207.05 300.45 206.8 300.6 206.65L313.75 199.1C314.05 198.95 314.3 199.1 314.45 199.25C314.6 199.55 314.45 199.8 314.3 199.95L301.15 207.5C301 207.65 301 207.65 300.85 207.65Z" fill="#455A64"/>
<path d="M107.45 297L271.95 202.05V188.35L107.45 283.3V297Z" fill="#F5F5F5"/>
<path d="M103 280.8V294.5L107.45 297V283.3L103 280.8Z" fill="#28995A"/>
<path opacity="0.2" d="M103 280.8V294.5L107.45 297V283.3L103 280.8Z" fill="black"/>
<path d="M271.95 188.35L267.5 185.85L103 280.8L107.45 283.3L271.95 188.35Z" fill="#FAFAFA"/>
<path d="M122.85 269.35L127.15 272L140.3 264.3L135.95 261.8L122.85 269.35Z" fill="#28995A"/>
<path d="M107.45 283.3L114.05 279.55L109.55 277.05L103 280.8L107.45 283.3Z" fill="#28995A"/>
<path d="M149.1 254.25L153.4 256.8L166.7 249.1L162.2 246.6L149.1 254.25Z" fill="#28995A"/>
<path d="M175.45 239.05L179.8 241.55L192.95 234L188.6 231.35L175.45 239.05Z" fill="#28995A"/>
<path d="M201.75 223.85L206.05 226.35L219.3 218.8L214.85 216.3L201.75 223.85Z" fill="#28995A"/>
<path d="M228 208.6L232.45 211.1L245.55 203.6L241.25 201.05L228 208.6Z" fill="#28995A"/>
<path d="M254.35 193.4L258.7 196.05L271.95 188.35L267.5 185.85L254.35 193.4Z" fill="#28995A"/>
<g opacity="0.4">
<path opacity="0.4" d="M122.85 269.35L127.15 272L140.3 264.3L135.95 261.8L122.85 269.35Z" fill="white"/>
<path opacity="0.4" d="M107.45 283.3L114.05 279.55L109.55 277.05L103 280.8L107.45 283.3Z" fill="white"/>
<path opacity="0.4" d="M149.1 254.25L153.4 256.8L166.7 249.1L162.2 246.6L149.1 254.25Z" fill="white"/>
<path opacity="0.4" d="M175.45 239.05L179.8 241.55L192.95 234L188.6 231.35L175.45 239.05Z" fill="white"/>
<path opacity="0.4" d="M201.75 223.85L206.05 226.35L219.3 218.8L214.85 216.3L201.75 223.85Z" fill="white"/>
<path opacity="0.4" d="M228 208.6L232.45 211.1L245.55 203.6L241.25 201.05L228 208.6Z" fill="white"/>
<path opacity="0.4" d="M254.35 193.4L258.7 196.05L271.95 188.35L267.5 185.85L254.35 193.4Z" fill="white"/>
</g>
<path d="M219.3 218.8L207.75 225.5L206.05 226.35L197.4 245.05L210.5 237.5L219.3 218.8Z" fill="#28995A"/>
<path d="M166.7 249.1L153.4 256.8L144.75 275.5L157.9 267.95L166.7 249.1Z" fill="#28995A"/>
<path d="M131.5 283.05L140.3 264.3L129.55 270.6L127.15 272L118.35 290.7L131.5 283.05Z" fill="#28995A"/>
<path d="M192.95 234L180.2 241.3L179.8 241.55L171 260.25L184.15 252.75L192.95 234Z" fill="#28995A"/>
<path d="M236.8 222.3L245.55 203.6L235.8 209.15L232.45 211.1L223.65 229.95L236.8 222.3Z" fill="#28995A"/>
<path d="M114.05 279.55L107.45 283.3V291.25L114.05 279.55Z" fill="#28995A"/>
<path d="M269.75 189.6L258.7 196.05L250.05 214.75L263.15 207.05L271.95 188.35L269.75 189.6Z" fill="#28995A"/>
<path d="M271.95 198.55L290.55 187.65V177.6L271.95 188.35V198.55Z" fill="#37474F"/>
<path d="M290.55 177.6L286.2 175.1L267.5 185.85L271.95 188.35L290.55 177.6Z" fill="#455A64"/>
<path d="M10.9 95.25L66.5 63.15C68.55 52.3 67.95 37.2 65.75 22.5L10.9 54.15V95.25Z" fill="#2B454E"/>
<path d="M72.6 134.25L131.95 100.9L66.5 63.1499L10.9 95.2499L72.6 134.25Z" fill="#375A64"/>
<path d="M59.2501 74.0999L112 104.55C113.35 105.35 115.65 105.3 117.05 104.5L121 102.2C122.45 101.35 122.5 100.05 121.1 99.25L68.3501 68.8C67.0001 68 64.7001 68.0499 63.3001 68.8499L59.3501 71.15C57.9001 72 57.8501 73.2999 59.2501 74.0999Z" fill="#1A2E35"/>
<path d="M46.3 81.5499L99.05 112C100.4 112.8 102.7 112.75 104.1 111.95L108.05 109.65C109.5 108.8 109.55 107.5 108.15 106.7L55.4 76.2499C54.05 75.4499 51.75 75.4999 50.35 76.2999L46.4 78.5999C45 79.4499 44.95 80.7499 46.3 81.5499Z" fill="#1A2E35"/>
<path d="M33.35 89.0499L86.1 119.5C87.45 120.3 89.75 120.25 91.15 119.45L95.1 117.15C96.55 116.3 96.6 115 95.2 114.2L42.5 83.7499C41.15 82.9499 38.85 82.9999 37.45 83.7999L33.5 86.0999C32.05 86.9499 32 88.2499 33.35 89.0499Z" fill="#1A2E35"/>
<path d="M20.4 96.4999L73.15 126.95C74.5 127.75 76.8 127.7 78.2 126.9L82.15 124.6C83.6 123.75 83.65 122.45 82.25 121.65L29.55 91.1999C28.2 90.3999 25.9 90.4499 24.5 91.2499L20.55 93.5499C19.1 94.3999 19.05 95.6999 20.4 96.4999Z" fill="#1A2E35"/>
<path d="M131.2 60.2L65.7001 22.5C67.9501 37.2 68.5001 52.3 66.4501 63.15L131.9 100.9C134 90 133.4 74.9 131.2 60.2Z" fill="#1A2E35"/>
<path d="M87.9499 60C86.1499 58.95 84.4499 58.5 82.9499 58.5C81.7999 58.5 80.7499 58.8 79.8499 59.3L73.1499 63.2L75.9499 68.8C76.0499 71.75 76.7999 74.9 77.9999 77.9L92.9499 86.55L99.9499 82.5C99.9499 82.35 99.9499 82.25 99.9499 82.1C99.9499 73.7 94.5499 63.8 87.9499 60Z" fill="#375A64"/>
<path d="M92.95 86.1C92.95 86.25 92.95 86.35 92.95 86.5L78 77.85L68.95 72.65C68.95 72.5 68.95 72.35 68.95 72.25C68.95 67.65 70.55 64.5 73.15 63.2C75.25 62.15 78 62.35 81 64.05C82.6 64.95 84.15 66.25 85.55 67.8L85.6 67.85C89.9 72.6 92.95 79.8 92.95 86.1Z" fill="#2B454E"/>
<path d="M33.55 86.3C33.5 86.3 33.5 86.3 33.55 86.3L25.25 81.5L16.5 86.55V98.9V101.85L17.65 101.15L18.85 100.45L22.8 98.2L24.65 97.15L27.1 95.75L28.7 94.85L30.75 92.95L31.1 92.6L32.7 91.1L33.25 90.55L36.15 87.8L33.55 86.3Z" fill="#1A2E35"/>
<path d="M24.5999 98.9999L21.7999 93.3999L28.4999 89.4999C30.6499 88.2499 33.4999 88.3999 36.5999 90.1999C43.2499 94.0499 48.5999 103.9 48.5999 112.25C48.5999 116.65 47.0999 119.7 44.7499 121.1L44.6499 121.15L37.7499 125.15L34.7499 119.25C29.1999 115 24.7999 106.45 24.5999 98.9999Z" fill="#2B454E"/>
<path d="M24.5999 98.9999L21.7999 93.3999L28.4999 89.4999C30.6499 88.2499 33.4999 88.3999 36.5999 90.1999C43.2499 94.0499 48.5999 103.9 48.5999 112.25C48.5999 116.65 47.0999 119.7 44.7499 121.1L44.6499 121.15L37.7499 125.15L34.7499 119.25C29.1999 115 24.7999 106.45 24.5999 98.9999Z" fill="#1A2E35"/>
<path d="M17.6 102.45C17.6 109.65 21.6 118 26.95 122.6C27.8 123.35 28.7 123.95 29.6 124.5C36.25 128.35 41.6 124.65 41.6 116.3C41.6 110 38.55 102.8 34.15 97.9998C34.15 97.9998 34.1 97.9998 34.1 97.9498C32.7 96.3998 31.15 95.1498 29.55 94.1998C23 90.4498 17.6 94.0998 17.6 102.45Z" fill="#2B454E"/>
<path d="M17.6 102.45C17.6 109.65 21.6 118 26.95 122.6C23.8 119.15 20.5 113.35 19.35 107.85C18.35 103.05 18.7 96.0998 22.85 94.3498C26.95 92.5998 32.45 96.2998 34.15 97.9498C32.75 96.3998 31.2 95.1498 29.6 94.1998C23 90.4498 17.6 94.0998 17.6 102.45Z" fill="#375A64"/>
<path d="M29.5999 99.2001C25.4 96.7501 21.95 99.3501 21.95 105C21.95 110.65 25.35 117.15 29.5999 119.6C33.7999 122.05 37.2499 119.45 37.2499 113.8C37.2499 108.2 33.8499 101.65 29.5999 99.2001ZM29.5999 117.85C26.1 115.85 23.2999 110.4 23.2999 105.75C23.2999 101.1 26.15 98.9501 29.5999 100.95C33.0999 102.95 35.9 108.4 35.9 113.05C35.95 117.7 33.0999 119.85 29.5999 117.85Z" fill="#F5F5F5"/>
<path d="M35.9499 113.05C35.9499 114.8 35.5499 116.25 34.8499 117.2C33.6999 118.75 31.7999 119.1 29.6499 117.85C26.1499 115.85 23.2999 110.45 23.2999 105.75C23.2999 102.5 24.6999 100.45 26.6999 100.25C27.5499 100.15 28.5499 100.35 29.5999 101C33.0999 103 35.9499 108.4 35.9499 113.05Z" fill="#E1E1E1"/>
<path opacity="0.4" d="M35.9499 113.05C35.9499 114.8 35.5499 116.25 34.8499 117.2C33.6999 118.75 31.7999 119.1 29.6499 117.85C26.1499 115.85 23.2999 110.45 23.2999 105.75C23.2999 102.5 24.6999 100.45 26.6999 100.25C27.5499 100.15 28.5499 100.35 29.5999 101C33.0999 103 35.9499 108.4 35.9499 113.05Z" fill="black"/>
<path d="M35.95 113.05C35.95 114.8 35.55 116.25 34.85 117.2C34 117.3 33 117.1 31.9 116.45C28.4 114.45 25.6 109.05 25.6 104.35C25.6 102.55 26 101.15 26.7 100.2C27.55 100.1 28.55 100.3 29.6 100.95C33.1 103 35.95 108.4 35.95 113.05Z" fill="#1A2E35"/>
<path d="M28.75 106.5L27.6 109.8L24.9 103.85C24.9 103.3 25.2 102.35 25.5 101.85L28.75 106.5Z" fill="#E1E1E1"/>
<path d="M27.65 109.1L29.7001 112L27.7001 114.3C27.1501 113.8 26.8 113.45 26.55 112.75L27.65 109.1Z" fill="#E1E1E1"/>
<path d="M31.95 111.45L31.4 111.7L31.25 111.05L29 111.65L33.6 118.2C34.05 117.95 34.5 117.6 34.85 117.15C34.9 117.05 35 116.95 35.05 116.85L31.95 111.45Z" fill="#E1E1E1"/>
<path d="M35.7 110.6L31.95 111.45L31.6 110.9L31.25 111.05L30.65 108.15L31.1 108.4L31.05 107.65H34.85C35.2 108.6 35.5 109.6 35.7 110.6Z" fill="#E1E1E1"/>
<path d="M31.0501 107.65L30.5001 107.45L30.6501 108.1L28.2001 106.65L30.3501 101.35C31.0001 101.8 31.6001 102.4 32.2001 103.05L31.0501 107.65Z" fill="#E1E1E1"/>
<path d="M32.0001 110.8C32.0001 112.55 30.9501 113.35 29.6001 112.6C28.3001 111.85 27.2001 109.8 27.2001 108.05C27.2001 106.3 28.2501 105.5 29.6001 106.25C30.9501 107 32.0001 109.05 32.0001 110.8Z" fill="#F5F5F5"/>
<path d="M72.5999 134.25L44.9499 118.25L44.9999 118C44.8999 113.65 43.1499 107.4 40.7499 103.35C37.5999 97.6999 32.8499 92.1499 26.4499 90.7499C20.6499 89.5499 16.9999 94.3499 16.5999 99.9499C16.5499 100.35 16.5499 101.1 16.4999 101.85L4.04994 94.6999C2.04994 83.8499 2.59994 68.7999 4.84994 54.1499L73.3499 93.5999C71.0999 108.3 70.5499 123.4 72.5999 134.25Z" fill="#F5F6FA"/>
<path opacity="0.2" d="M72.5999 134.25L44.9499 118.25L44.9999 118C44.8999 113.65 43.1499 107.4 40.7499 103.35C37.5999 97.6999 32.8499 92.1499 26.4499 90.7499C20.6499 89.5499 16.9999 94.3499 16.5999 99.9499C16.5499 100.35 16.5499 101.1 16.4999 101.85L4.04994 94.6999C2.04994 83.8499 2.59994 68.7999 4.84994 54.1499L73.3499 93.5999C71.0999 108.3 70.5499 123.4 72.5999 134.25Z" fill="black"/>
<path d="M131.2 60.2L134.15 58.5L65.7 19L4.84998 54.15L73.35 93.6L76.4 91.85L10.9 54.15L65.7 22.5L131.2 60.2Z" fill="#F5F6FA"/>
<path opacity="0.2" d="M131.2 60.2L134.15 58.5L65.7 19L4.84998 54.15L73.35 93.6L76.4 91.85L10.9 54.15L65.7 22.5L131.2 60.2Z" fill="white"/>
<path d="M65.7 22.5L62.75 20.7L7.84998 52.4L10.9 54.15L65.7 22.5Z" fill="#375A64"/>
<path d="M13.05 94.75V102.8L2.15002 96.5C1.05002 95.9 0.400024 94.75 0.400024 93.5V86.95L13.05 94.75Z" fill="#2B454E"/>
<path d="M13.05 94.75C8.8 92.3 1.1 87.9 1.1 87.9C-1.25 86.55 2.9 84.25 2.9 84.25L2.95 84.9C3 85.6 3.35 86.2 3.95 86.55L15.5 93.25L13.05 94.75Z" fill="#375A64"/>
<path d="M15.55 93.3V101.3L13.05 102.75V94.75L15.55 93.3Z" fill="#1A2E35"/>
<path d="M2.85006 75.7001C4.85006 77.0001 6.80006 78.1001 8.05006 78.8001C9.00006 79.3001 9.60006 80.3001 9.60006 81.3501V85.3001C9.60006 85.7001 9.15006 85.9501 8.80006 85.7501C7.20006 84.8501 3.70006 82.9001 2.85006 82.3501C1.75006 81.7001 1.80006 75.0001 2.85006 75.7001Z" fill="#F5F6FA"/>
<path opacity="0.8" d="M2.85006 75.7001C4.85006 77.0001 6.80006 78.1001 8.05006 78.8001C9.00006 79.3001 9.60006 80.3001 9.60006 81.3501V85.3001C9.60006 85.7001 9.15006 85.9501 8.80006 85.7501C7.20006 84.8501 3.70006 82.9001 2.85006 82.3501C1.75006 81.7001 1.80006 75.0001 2.85006 75.7001Z" fill="white"/>
<path d="M144.6 152.5L136.3 147.7L127.55 152.75L127.5 165.1V168.05L128.65 167.35L129.85 166.65L133.8 164.4L135.65 163.35L138.1 161.95L139.7 161.05L141.75 159.15L142.1 158.8L143.7 157.3L144.25 156.75L147.15 154L144.6 152.5Z" fill="#1A2E35"/>
<path d="M135.7 163.05L132.9 157.45L139.6 153.55C141.75 152.3 144.6 152.45 147.7 154.25C154.35 158.1 159.7 167.95 159.7 176.3C159.7 180.7 158.2 183.75 155.85 185.15L155.75 185.2L148.85 189.2L145.85 183.3C140.25 179.05 135.9 170.5 135.7 163.05Z" fill="#2B454E"/>
<path d="M135.7 163.05L132.9 157.45L139.6 153.55C141.75 152.3 144.6 152.45 147.7 154.25C154.35 158.1 159.7 167.95 159.7 176.3C159.7 180.7 158.2 183.75 155.85 185.15L155.75 185.2L148.85 189.2L145.85 183.3C140.25 179.05 135.9 170.5 135.7 163.05Z" fill="#1A2E35"/>
<path d="M128.7 166.5C128.7 173.7 132.7 182.05 138.05 186.65C138.9 187.4 139.8 188 140.7 188.55C147.35 192.4 152.7 188.7 152.7 180.35C152.7 174.05 149.65 166.85 145.25 162.05C145.25 162.05 145.2 162.05 145.2 162C143.8 160.45 142.25 159.2 140.65 158.25C134.05 154.5 128.7 158.15 128.7 166.5Z" fill="#2B454E"/>
<path d="M128.7 166.5C128.7 173.7 132.7 182.05 138.05 186.65C134.9 183.2 131.6 177.4 130.45 171.9C129.45 167.1 129.8 160.15 133.95 158.4C138.05 156.65 143.55 160.35 145.25 162C143.85 160.45 142.3 159.2 140.7 158.25C134.05 154.5 128.7 158.15 128.7 166.5Z" fill="#375A64"/>
<path d="M140.7 163.25C136.5 160.8 133.05 163.4 133.05 169.05C133.05 174.7 136.45 181.2 140.7 183.65C144.9 186.1 148.35 183.5 148.35 177.85C148.35 172.25 144.9 165.7 140.7 163.25ZM140.7 181.9C137.2 179.9 134.4 174.45 134.4 169.8C134.4 165.15 137.25 163 140.7 165C144.2 167 147 172.45 147 177.1C147 181.75 144.2 183.9 140.7 181.9Z" fill="#F5F5F5"/>
<path d="M147 177.1C147 178.85 146.6 180.3 145.9 181.25C144.75 182.8 142.85 183.15 140.7 181.9C137.2 179.9 134.35 174.5 134.35 169.8C134.35 166.55 135.75 164.5 137.75 164.3C138.6 164.2 139.6 164.4 140.65 165.05C144.2 167.05 147 172.45 147 177.1Z" fill="#E1E1E1"/>
<path opacity="0.4" d="M147 177.1C147 178.85 146.6 180.3 145.9 181.25C144.75 182.8 142.85 183.15 140.7 181.9C137.2 179.9 134.35 174.5 134.35 169.8C134.35 166.55 135.75 164.5 137.75 164.3C138.6 164.2 139.6 164.4 140.65 165.05C144.2 167.05 147 172.45 147 177.1Z" fill="black"/>
<path d="M147 177.1C147 178.85 146.6 180.3 145.9 181.25C145.05 181.35 144.05 181.15 142.95 180.5C139.45 178.5 136.65 173.1 136.65 168.4C136.65 166.6 137.05 165.2 137.75 164.25C138.6 164.15 139.6 164.35 140.65 165C144.2 167.05 147 172.45 147 177.1Z" fill="#1A2E35"/>
<path d="M139.85 170.55L138.7 173.85L136 167.9C136 167.35 136.3 166.4 136.6 165.9L139.85 170.55Z" fill="#E1E1E1"/>
<path d="M138.7 173.15L140.75 176.05L138.75 178.35C138.2 177.85 137.85 177.5 137.6 176.8L138.7 173.15Z" fill="#E1E1E1"/>
<path d="M143.05 175.5L142.5 175.75L142.35 175.1L140.1 175.7L144.7 182.25C145.15 182 145.6 181.65 145.95 181.2C146 181.1 146.1 181 146.15 180.9L143.05 175.5Z" fill="#E1E1E1"/>
<path d="M146.8 174.65L143.05 175.5L142.7 174.95L142.35 175.1L141.75 172.2L142.2 172.45L142.15 171.7H145.95C146.3 172.65 146.6 173.65 146.8 174.65Z" fill="#E1E1E1"/>
<path d="M142.1 171.7L141.55 171.5L141.7 172.15L139.25 170.7L141.4 165.4C142.05 165.85 142.65 166.45 143.25 167.1L142.1 171.7Z" fill="#E1E1E1"/>
<path d="M143.1 174.85C143.1 176.6 142.05 177.4 140.7 176.65C139.4 175.9 138.3 173.85 138.3 172.1C138.3 170.35 139.35 169.55 140.7 170.3C142 171.05 143.1 173.05 143.1 174.85Z" fill="#F5F5F5"/>
<path d="M225 129C223.8 131.4 222 133.65 220.05 135.6C217.2 138.4 213.3 141.4 208 144.45C177.15 162.25 163.15 154.15 136.9 139C131.75 136 126.05 132.5 120.3 128.85C120.15 128.75 120 128.65 119.8 128.55C119.5 128.35 119.25 128.2 118.95 128C118.5 127.7 118.05 127.45 117.6 127.15C117.15 126.85 116.75 126.6 116.3 126.3C113.4 124.4 110.45 122.5 107.6 120.6C107.35 120.45 107.1 120.25 106.85 120.1C106.55 119.9 106.2 119.65 105.9 119.45C88.8999 108.1 81.9499 101.95 79.6999 100.35L79.6499 100.3C79.5999 100.25 79.5499 100.25 79.4999 100.2L88.6999 105.95L93.8499 109.15L109.05 119L118.35 124.8L117.8 122.75L117.6 97.3C117 95.25 116.25 94 115.3 93C115.25 92.95 115.15 92.85 115.1 92.8C114.05 91.8 112.8 91.15 111.3 90.3C106.9 87.75 92.5499 79.75 79.3499 72.3C78.8999 72.05 78.4499 71.8 78.0499 71.55L120.7 42.9C123.4 41.1 126.85 40.95 129.65 42.5C145.45 51.25 166.15 62.5 169.55 65.4C169.95 65.75 176.65 74.75 181.85 80.05C187.55 85.9 193.5 92.25 194.15 93.2C198.4 96.05 213.95 106.15 222.3 112.55C222.55 112.75 222.85 113.05 223.25 113.4C223.4 113.55 224.05 114.1 224.65 115.2C227.2 119.55 227.7 123.55 225 129Z" fill="#F5F6FA"/>
<path opacity="0.2" d="M225 129C223.8 131.4 222 133.65 220.05 135.6C217.2 138.4 213.3 141.4 208 144.45C177.15 162.25 163.15 154.15 136.9 139C131.75 136 126.05 132.5 120.3 128.85C120.15 128.75 120 128.65 119.8 128.55C119.5 128.35 119.25 128.2 118.95 128C118.5 127.7 118.05 127.45 117.6 127.15C117.15 126.85 116.75 126.6 116.3 126.3C113.4 124.4 110.45 122.5 107.6 120.6C107.35 120.45 107.1 120.25 106.85 120.1C106.55 119.9 106.2 119.65 105.9 119.45C88.8999 108.1 81.9499 101.95 79.6999 100.35L79.6499 100.3C79.5999 100.25 79.5499 100.25 79.4999 100.2L88.6999 105.95L93.8499 109.15L109.05 119L118.35 124.8L117.8 122.75L117.6 97.3C117 95.25 116.25 94 115.3 93C115.25 92.95 115.15 92.85 115.1 92.8C114.05 91.8 112.8 91.15 111.3 90.3C106.9 87.75 92.5499 79.75 79.3499 72.3C78.8999 72.05 78.4499 71.8 78.0499 71.55L120.7 42.9C123.4 41.1 126.85 40.95 129.65 42.5C145.45 51.25 166.15 62.5 169.55 65.4C169.95 65.75 176.65 74.75 181.85 80.05C187.55 85.9 193.5 92.25 194.15 93.2C198.4 96.05 213.95 106.15 222.3 112.55C222.55 112.75 222.85 113.05 223.25 113.4C223.4 113.55 224.05 114.1 224.65 115.2C227.2 119.55 227.7 123.55 225 129Z" fill="white"/>
<path opacity="0.2" d="M213.4 129.65C212.25 128.35 211.15 127 209.95 125.75C207.6 123.2 207.15 122.9 204.6 120.55C202 118.25 199.3 116.05 196.5 114C195.1 112.95 193.7 111.95 192.25 111C190.8 110.05 189.35 109.1 187.8 108.3C190.65 110.25 193.45 112.35 196.15 114.45C198.85 116.6 201.55 118.8 204.1 121.15C206.7 123.45 207.1 123.7 209.55 126.15C212 128.6 214.35 131.15 216.65 133.7C215.6 132.35 214.55 131 213.4 129.65ZM191.85 144.3C191.25 143.65 190.65 143 190 142.4C188.7 141.15 187.4 139.95 186.05 138.8C183.35 136.45 182.7 136.05 179.75 134C176.75 132.05 173.7 130.2 170.5 128.6C168.9 127.8 167.3 127.05 165.65 126.35C164 125.7 162.35 125 160.65 124.5C163.95 125.85 167.15 127.45 170.25 129.15C173.35 130.85 176.4 132.65 179.35 134.65C182.3 136.6 182.95 137 185.7 139.25C188.5 141.45 191.1 143.85 193.75 146.25L191.85 144.3Z" fill="white"/>
<path d="M232.45 149.8C232.45 150.95 232.35 152.05 232.1 153.15C230.1 162.85 220.05 169.85 211.45 174.75C207.5 177 203.3 179.4 199.25 181.7C196.35 183.3 193.45 185.2 190.3 186.45C180.05 190.7 167.95 189.55 158.6 183.65C158.6 183.65 158.55 183.65 158.55 183.6C157.8 183.15 156.35 182.35 155.95 182.1C155.85 177.75 154.1 171.5 151.7 167.45C148.55 161.8 143.8 156.25 137.4 154.85C131.6 153.65 127.95 158.45 127.55 164.05C127.5 164.45 127.5 165.25 127.45 166.05L72.4999 134.3C69.3999 117.75 72.3499 91.2999 77.9999 71.4999C77.9499 71.4499 77.8999 71.4499 77.8499 71.3999C77.8999 71.4499 77.9499 71.4499 77.9999 71.4499C90.2999 78.6499 101 84.3499 108.95 88.9499C111.25 90.2999 113.8 91.4999 115 92.7499C116.2 93.9999 116.5 94.5499 116.9 95.5499C117 95.7999 117.25 96.3999 117.5 97.2499C119.15 103.05 117.65 122.75 118.25 124.75L109.15 119C99.6999 113.1 88.7999 105.95 79.5999 100.2C79.6499 100.25 79.6999 100.25 79.7499 100.3C81.3499 101.55 103.15 117.9 116.4 126.3C117.25 126.85 118.15 127.45 119 128C125.05 131.9 131.4 135.85 136.95 139.05C163.2 154.2 177.2 162.3 208.05 144.5C214.05 140.95 217.75 138.2 221.15 134.55C221.95 133.65 222.75 132.7 223.45 131.7C223.55 131.6 223.6 131.5 223.7 131.35C226.95 126.65 227.75 121.15 225.25 116.45C225.2 116.3 225.1 116.15 225 116C224.85 115.7 224.7 115.45 224.55 115.2C224.45 115.05 224.35 114.9 224.25 114.75C223.8 114 222.65 112.75 222.4 112.55C223 113 223.65 113.5 224.25 113.95C224.75 114.35 225.25 114.75 225.7 115.15C225.85 115.3 226 115.45 226.15 115.55L226.45 115.85C226.5 115.9 226.5 115.9 226.55 115.95C227.35 116.8 228.1 117.75 228.7 118.7C228.75 118.8 228.85 118.9 228.9 119C228.95 119.05 229 119.1 229 119.2C231.2 122.75 232.2 126.95 232.45 131.6C232.5 132.3 232.45 148.65 232.45 149.8Z" fill="#F5F6FA"/>
<path opacity="0.05" d="M232.45 149.8C232.45 150.95 232.35 152.05 232.1 153.15C230.1 162.85 220.05 169.85 211.45 174.75C207.5 177 203.3 179.4 199.25 181.7C196.35 183.3 193.45 185.2 190.3 186.45C180.05 190.7 167.95 189.55 158.6 183.65C158.6 183.65 158.55 183.65 158.55 183.6C157.8 183.15 156.35 182.35 155.95 182.1C155.85 177.75 154.1 171.5 151.7 167.45C148.55 161.8 143.8 156.25 137.4 154.85C131.6 153.65 127.95 158.45 127.55 164.05C127.5 164.45 127.5 165.25 127.45 166.05L72.4999 134.3C69.3999 117.75 72.3499 91.2999 77.9999 71.4999C77.9499 71.4499 77.8999 71.4499 77.8499 71.3999C77.8999 71.4499 77.9499 71.4499 77.9999 71.4499C90.2999 78.6499 101 84.3499 108.95 88.9499C111.25 90.2999 113.8 91.4999 115 92.7499C116.2 93.9999 116.5 94.5499 116.9 95.5499C117 95.7999 117.25 96.3999 117.5 97.2499C119.15 103.05 117.65 122.75 118.25 124.75L109.15 119C99.6999 113.1 88.7999 105.95 79.5999 100.2C79.6499 100.25 79.6999 100.25 79.7499 100.3C81.3499 101.55 103.15 117.9 116.4 126.3C117.25 126.85 118.15 127.45 119 128C125.05 131.9 131.4 135.85 136.95 139.05C163.2 154.2 177.2 162.3 208.05 144.5C214.05 140.95 217.75 138.2 221.15 134.55C221.95 133.65 222.75 132.7 223.45 131.7C223.55 131.6 223.6 131.5 223.7 131.35C226.95 126.65 227.75 121.15 225.25 116.45C225.2 116.3 225.1 116.15 225 116C224.85 115.7 224.7 115.45 224.55 115.2C224.45 115.05 224.35 114.9 224.25 114.75C223.8 114 222.65 112.75 222.4 112.55C223 113 223.65 113.5 224.25 113.95C224.75 114.35 225.25 114.75 225.7 115.15C225.85 115.3 226 115.45 226.15 115.55L226.45 115.85C226.5 115.9 226.5 115.9 226.55 115.95C227.35 116.8 228.1 117.75 228.7 118.7C228.75 118.8 228.85 118.9 228.9 119C228.95 119.05 229 119.1 229 119.2C231.2 122.75 232.2 126.95 232.45 131.6C232.5 132.3 232.45 148.65 232.45 149.8Z" fill="black"/>
<g opacity="0.3">
<path opacity="0.3" d="M73.2 94.8501C71.9 107.4 70.95 120.1 72.35 132.7C70.05 120.2 71 107.3 73.2 94.8501Z" fill="black"/>
</g>
<g opacity="0.3">
<path opacity="0.3" d="M91.45 105.6C90.15 118.15 89.2 130.85 90.6 143.45C88.3 130.95 89.25 118.05 91.45 105.6Z" fill="black"/>
</g>
<path opacity="0.2" d="M134.8 80.45C131.3 78.25 118.6 70.7 115 68.7L109.55 65.7C107.7 64.7 105.9 63.7 104.05 62.75C105.8 63.85 107.6 64.95 109.35 66L114.7 69.2C118.25 71.35 131.1 78.55 134.8 80.45ZM147.1 73.35C143.6 71.15 130.9 63.6 127.3 61.6L121.85 58.6C120 57.6 118.2 56.6 116.35 55.65C118.1 56.75 119.9 57.85 121.65 58.9L127 62.1C130.6 64.2 143.45 71.4 147.1 73.35ZM125.55 85.8C122.05 83.6 109.35 76.05 105.75 74.05L100.3 71.05C98.45 70.05 96.65 69.05 94.8 68.1C96.55 69.2 98.35 70.3 100.1 71.35L105.45 74.55C109 76.65 121.85 83.85 125.55 85.8ZM156.35 68C152.85 65.8 140.2 58.25 136.55 56.2L131.1 53.2C129.25 52.2 127.45 51.2 125.6 50.25C127.35 51.35 129.15 52.45 130.9 53.5L136.25 56.7C139.85 58.9 152.7 66.1 156.35 68Z" fill="white"/>
<path d="M184.6 82.9999L185.1 85.0999C186.25 87.2499 188.8 89.9499 189.7 89.7499C190.5 89.5499 191 88.3499 191.25 86.8999C191.35 86.2499 191.45 85.4999 191.45 84.7999C191.55 82.4999 190.5 77.0999 187.3 75.6999C186.55 75.3999 185.9 75.6499 185.4 76.1499C184.95 76.5499 184.65 77.1499 184.5 77.6999C183.95 79.1999 184.5 82.9499 184.6 82.9999Z" fill="#375A64"/>
<path d="M185.1 85.0999C186.25 87.2499 188.8 89.9499 189.7 89.7499C190.5 89.5499 191 88.3499 191.25 86.8999C191.35 86.2499 191.45 85.4999 191.45 84.7999C191.55 82.4999 190.5 77.0999 187.3 75.6999C186.55 75.3999 185.9 75.6499 185.4 76.1499L185.85 77.1499C188.1 78.0999 188.7 81.5499 188.5 84.1999C188.3 86.6999 186.35 86.4499 185.1 85.0999Z" fill="#2B454E"/>
<path d="M184.5 77.5999C185.3 76.7499 187.3 76.6999 189 78.9999C190.7 81.2999 191.25 85.2999 191.25 86.8499C191.35 86.1999 191.45 85.4499 191.45 84.7499C191.55 82.4499 190.5 77.0499 187.3 75.6499C186 75.0499 184.9 76.3999 184.5 77.5999Z" fill="#1A2E35"/>
<path d="M128.55 137.1C130.5 138.35 132.25 139.45 132.9 139.85C133.1 139.95 133.2 140.2 133.2 140.4L133.3 142.55C133.3 142.9 132.95 143.1 132.65 142.95L128.3 140.25C128.1 140.15 128 139.9 127.95 139.7L127.85 137.5C127.85 137.15 128.25 136.95 128.55 137.1Z" fill="#F5F6FA"/>
<g opacity="0.2">
<path opacity="0.2" d="M128.55 137.1C130.5 138.35 132.25 139.45 132.9 139.85C133.1 139.95 133.2 140.2 133.2 140.4L133.3 142.55C133.3 142.9 132.95 143.1 132.65 142.95L128.3 140.25C128.1 140.15 128 139.9 127.95 139.7L127.85 137.5C127.85 137.15 128.25 136.95 128.55 137.1Z" fill="white"/>
</g>
<path d="M117.65 97.25L118.4 124.75L124.15 128.05C130.35 131.6 137.85 132 144.35 129.1C151.95 125.7 162.35 120.75 170.85 115.85C181.6 109.65 189.85 103.15 193.85 99.8001C194.2 99.5001 194.5 99.2001 194.75 98.8001C195.85 97.1501 195.7 94.9001 194.45 93.3001C187.15 84.1001 183.3 77.4001 169.7 65.3C174.65 69.55 159.95 78.05 149.65 84C139.4 89.95 126.9 97.15 120.4 97.35C119.35 97.4 118.5 97.35 117.65 97.25Z" fill="#2B454E"/>
<path d="M124.15 128.1L118.4 124.8L76.1 98.1001C76.1 94.1001 78.35 81.3001 79.75 77.6001C86 81.2001 91.2 84.2001 98.7 88.5501C107.2 93.4501 112.25 96.6501 117.65 97.3001L124.15 128.1Z" fill="#1A2E35"/>
<path d="M120.25 97.4001C120.9 97.4001 121.6 97.3001 122.35 97.1501C121.95 98.6501 120.7 99.6501 122.05 105.3C127.15 126.75 127.2 129.5 129.85 130.45C127.85 129.95 125.9 129.2 124.1 128.15L117.6 97.3501C118.5 97.3501 119.35 97.4001 120.25 97.4001Z" fill="black"/>
<path d="M93.85 109.25L88.75 106.05L91.55 84.3501C92.8 85.1001 94 85.8001 95.15 86.4501L93.85 109.25Z" fill="black"/>
<path d="M169.55 69.9001C174.4 72.9501 175.3 77.3001 180.05 82.6001C185.55 88.8001 188 94.5001 180.35 89.7001C174.4 85.9501 167.25 81.1501 160.85 77.2001C164.65 74.7001 167.95 72.1501 169.55 69.9001Z" fill="#375A64"/>
<path d="M232.1 153.1C231.8 153.4 231.45 153.75 231.1 154.1C230.2 154.95 229.15 155.9 228 156.95C227.85 157.1 227.65 157.25 227.45 157.4C226 158.65 224.4 159.95 222.65 161.3C222.2 161.65 221.75 162 221.3 162.3C219.95 163.35 218.5 164.35 217 165.4C216.5 165.75 215.95 166.15 215.4 166.5C214.75 166.95 214.1 167.4 213.4 167.8C212.75 168.25 212.05 168.65 211.35 169.1C210.65 169.55 210 169.95 209.3 170.35C208.6 170.75 207.9 171.2 207.2 171.6C192.95 179.7 184.15 184.2 177.15 184.1C176.85 184.1 176.5 184.1 176.15 184.1C176 184.1 175.9 184.1 175.75 184.1C175 184.1 174.25 184.05 173.4 183.95C173.2 183.95 172.95 183.9 172.75 183.9C172.6 183.9 172.45 183.85 172.25 183.85C172.15 183.85 172 183.8 171.9 183.8C171.7 183.75 171.5 183.75 171.25 183.7C171.1 183.65 170.9 183.65 170.7 183.6C170.5 183.55 170.35 183.55 170.15 183.5C169.5 183.35 168.85 183.2 168.15 183C167.95 182.95 167.75 182.9 167.55 182.8C166.45 182.45 165.3 182 164.05 181.4C163.9 181.35 163.75 181.25 163.55 181.15C162.25 180.5 160.85 179.7 159.35 178.75C159.05 178.55 158.8 178.4 158.5 178.2V186.25C166.95 192 172.6 192.05 177 192.15C184.05 192.3 192.85 187.75 207.05 179.65C217.75 173.6 227.7 165.5 231.95 161.1L232 161.05C233.4 159.6 234.15 157.6 234.15 155.6V150.1C234.3 150.6 233.5 151.65 232.1 153.1Z" fill="#2B454E"/>
<path d="M158.65 178.25C167.1 184 172.75 184.05 177.15 184.15C184.2 184.3 193 179.75 207.2 171.65C221.4 163.6 234.25 152 234.25 150.1C234.25 146.85 232.4 146.45 232.4 146.45V148.85C232.4 148.85 226.15 156.6 209.65 166.8C192.65 177.35 184.9 181.35 176.3 181.35C167.7 181.35 161.15 176.45 161.15 176.45L158.65 178.25Z" fill="#375A64"/>
<path d="M187.5 156.2L192.1 160.85C193.25 162.05 195.05 162.4 196.6 161.8C199.35 160.7 204.15 158.5 210.3 154.7C216.15 151.1 219.75 148.25 221.7 146.5C222.95 145.4 223.7 143.8 223.75 142.1L223.9 134.9C223.9 134.6 223.55 134.5 223.4 134.7C220.65 138.25 216.3 142.1 209.65 146.2C201.55 151.2 194.35 154.25 187.7 155.65C187.4 155.75 187.3 156.05 187.5 156.2Z" fill="#2B454E"/>
<path d="M223.9 151.35C223.75 151.2 223.5 151.2 223.35 151.35C216.6 158.55 202.6 166.45 193.75 169.25C193.55 169.3 193.45 169.5 193.5 169.75C193.55 169.9 193.7 170 193.85 170C193.9 170 193.9 170 193.95 170C202.9 167.15 217.05 159.2 223.9 151.9C224.05 151.7 224.05 151.5 223.9 151.35ZM223.8 148.35C223.65 148.2 223.4 148.2 223.25 148.35C216.5 155.55 202.5 163.45 193.65 166.25C193.45 166.3 193.35 166.55 193.4 166.75C193.45 166.9 193.6 167 193.75 167C193.8 167 193.8 167 193.85 167C202.8 164.15 216.95 156.2 223.8 148.9C223.95 148.7 223.95 148.5 223.8 148.35Z" fill="#E1E1E1"/>
<path d="M186.4 158C185.55 156.9 184.15 156.25 182.75 156.35C177.85 156.6 169.85 156.2 164.7 154.45C158.75 152.4 157.6 152.2 158.6 155.5C159.6 158.8 162.3 163.25 167.5 164.4C176.85 166.5 184.45 165.9 188.35 164.3C190.25 163.45 188.05 160.2 186.4 158Z" fill="#F5F6FA"/>
<path opacity="0.8" d="M186.4 158C185.55 156.9 184.15 156.25 182.75 156.35C177.85 156.6 169.85 156.2 164.7 154.45C158.75 152.4 157.6 152.2 158.6 155.5C159.6 158.8 162.3 163.25 167.5 164.4C176.85 166.5 184.45 165.9 188.35 164.3C190.25 163.45 188.05 160.2 186.4 158Z" fill="white"/>
<path d="M167.5 164.35C162.25 163.2 159.55 158.75 158.6 155.45C157.7 152.35 158.65 152.35 163.75 154.1C165.6 158.1 168.2 161.8 171.85 164.2C172.45 164.6 173.1 164.95 173.7 165.35C171.7 165.15 169.65 164.85 167.5 164.35Z" fill="white"/>
<path d="M225.4 133.95C225.4 132.75 225.75 131.6 226.35 130.6C227.85 128 228.75 124.35 228.6 121.3C228.4 117.65 229.95 118.35 230.8 119.8C231.65 121.25 233.85 126.45 232.45 131.4C231.3 135.55 228.2 139.8 226.1 142.1C225.75 142.5 225.05 142.25 225.1 141.7C225.15 139.8 225.35 136.4 225.4 133.95Z" fill="#F5F6FA"/>
<path opacity="0.8" d="M225.4 133.95C225.4 132.75 225.75 131.6 226.35 130.6C227.85 128 228.75 124.35 228.6 121.3C228.4 117.65 229.95 118.35 230.8 119.8C231.65 121.25 233.85 126.45 232.45 131.4C231.3 135.55 228.2 139.8 226.1 142.1C225.75 142.5 225.05 142.25 225.1 141.7C225.15 139.8 225.35 136.4 225.4 133.95Z" fill="white"/>
<path d="M178.6 169.75C175 168.85 169.45 168.15 167.25 169.55C165.8 170.5 167.45 173.15 168.2 174.05C169.3 175.3 170.8 176.15 172.4 176.5C174.55 177 176.8 176.7 178.9 176.15C185.35 174.5 185.65 171.6 178.6 169.75ZM231.8 138C231.75 138.05 231.75 138.05 231.7 138.1C230.55 139.25 229.65 140.6 228.95 142.05C228.35 143.35 228.05 144.65 228.05 146.1C228.05 146.5 228.1 146.9 228.3 147.2C228.7 147.9 229.55 147.6 230.15 147.35C230.45 147.2 230.75 147.05 231 146.85C231.25 146.7 231.45 146.5 231.7 146.3C231.95 146.05 232.2 145.8 232.45 145.55C233.7 144.25 233.8 137.3 232.45 137.4C232.25 137.55 232 137.8 231.8 138Z" fill="#F0F0F0"/>
<path d="M105 123.4C106.05 128.3 111.45 129.35 115.5 129.2C117.65 129.15 119.4 128.75 119.95 128.45C121.5 127.55 120.8 125.65 119.95 124.6C118.55 122.75 112.15 119.05 108.15 118.95C105.85 118.8 104.3 119.95 105 123.4Z" fill="#375A64"/>
<path d="M105 123.4C106.05 128.3 111.45 129.35 115.5 129.2C117.65 129.15 119.4 128.75 119.95 128.45C121.5 127.55 120.8 125.65 119.95 124.6C120.75 126.1 116.55 127 112.85 125.7C109.1 124.35 106.35 121.5 108.15 118.95C105.85 118.8 104.3 119.95 105 123.4Z" fill="#2B454E"/>
<path d="M105 123.4C106.05 128.3 111.45 129.35 115.5 129.2C111.45 129.1 108.25 126.75 107 124.2C105.8 121.65 106.7 119.2 108.15 118.9C105.85 118.8 104.3 119.95 105 123.4Z" fill="#1A2E35"/>
<path d="M127.55 166V168.05L123.5 170.4V168.35L127.55 166Z" fill="#1A2E35"/>
<path d="M40.85 122.7L123.5 170.4V168.35L40.85 120.6V122.7Z" fill="#2B454E"/>
<path d="M44.9 118.3L40.85 120.6L123.5 168.35L127.55 166L44.9 118.3Z" fill="#375A64"/>
<path d="M214.55 197.05C211.2 195.25 207.2 194.9 203.45 195.5C199.7 196.1 196.15 197.65 192.75 199.4C191.45 200.05 189.95 200.8 188.55 200.35C187.1 199.9 186.3 198.2 186.4 196.7C186.55 195.2 187.4 193.85 188.45 192.75C192.3 188.75 198.6 187.25 203.9 189C208.55 190.5 212 193.55 214.55 197.05Z" fill="#28995A"/>
<path opacity="0.6" d="M214.55 197.05C211.2 195.25 207.2 194.9 203.45 195.5C199.7 196.1 196.15 197.65 192.75 199.4C191.45 200.05 189.95 200.8 188.55 200.35C187.1 199.9 186.3 198.2 186.4 196.7C186.55 195.2 187.4 193.85 188.45 192.75C192.3 188.75 198.6 187.25 203.9 189C208.55 190.5 212 193.55 214.55 197.05Z" fill="white"/>
<path d="M192.65 185.85C193.4 185.7 194.1 185.65 194.85 185.7C195.2 185.7 195.5 185.8 195.85 185.85C196.2 185.9 196.55 186 196.9 186.1C196.8 185.95 196.6 185.7 196.45 185.6C195.85 185 195.4 184.7 194.8 184.35C194.15 184 193.5 183.7 192.8 183.45C191.4 182.95 189.95 182.6 188.5 182.5C187.05 182.4 185.55 182.5 184.15 182.8C182.25 183.2 180.3 184.1 179.35 185.8C178.9 186.6 178.7 187.6 179.15 188.4C179.5 189 180.15 189.4 180.8 189.6C181.5 189.75 182.2 189.7 182.9 189.55C184.6 189.2 186.2 188.5 187.8 187.75C189.35 186.9 190.95 186.15 192.65 185.85Z" fill="#28995A"/>
<path opacity="0.35" d="M192.65 185.85C193.4 185.7 194.1 185.65 194.85 185.7C195.2 185.7 195.5 185.8 195.85 185.85C196.2 185.9 196.55 186 196.9 186.1C196.8 185.95 196.6 185.7 196.45 185.6C195.85 185 195.4 184.7 194.8 184.35C194.15 184 193.5 183.7 192.8 183.45C191.4 182.95 189.95 182.6 188.5 182.5C187.05 182.4 185.55 182.5 184.15 182.8C182.25 183.2 180.3 184.1 179.35 185.8C178.9 186.6 178.7 187.6 179.15 188.4C179.5 189 180.15 189.4 180.8 189.6C181.5 189.75 182.2 189.7 182.9 189.55C184.6 189.2 186.2 188.5 187.8 187.75C189.35 186.9 190.95 186.15 192.65 185.85Z" fill="white"/>
<path d="M191.5 179C194.5 181.75 197.85 183.45 201.6 184.9C199.45 182.6 198.1 179.85 197 176.95C195.9 174.05 195.6 170.95 195.05 167.9C194.75 166.2 194.2 164.45 193 163.15C191.85 161.85 189.95 161.05 188.3 161.6C186.85 162.05 185.8 163.45 185.4 164.9C185 166.4 185.2 167.95 185.55 169.45C186.5 173.1 188.65 176.35 191.5 179Z" fill="#28995A"/>
<g opacity="0.2">
<path opacity="0.2" d="M191.5 179C194.5 181.75 197.85 183.45 201.6 184.9C199.45 182.6 198.1 179.85 197 176.95C195.9 174.05 195.6 170.95 195.05 167.9C194.75 166.2 194.2 164.45 193 163.15C191.85 161.85 189.95 161.05 188.3 161.6C186.85 162.05 185.8 163.45 185.4 164.9C185 166.4 185.2 167.95 185.55 169.45C186.5 173.1 188.65 176.35 191.5 179Z" fill="white"/>
</g>
<path d="M188 160.5C186.4 161.1 185.15 162.45 184.65 164.1C184.55 164.4 184.45 164.75 184.15 164.8C183.8 164.85 183.6 164.45 183.55 164.1C183.15 161.4 186.05 160.55 188 160.5Z" fill="#28995A"/>
<path d="M229.15 183.7C225.6 186.3 222.1 189.95 220.85 194.3C219.6 187.2 221.85 179.35 225.8 173.4C229.6 167.7 236.7 162.45 243.9 165.35C245.75 166.1 247.3 167.75 247.45 169.75C247.6 171.5 246.7 173.2 245.45 174.4C244.2 175.6 242.6 176.4 241 177.15C236.95 179.2 232.8 181.05 229.15 183.7Z" fill="#313647"/>
<path opacity="0.35" d="M229.15 183.7C225.6 186.3 222.1 189.95 220.85 194.3C219.6 187.2 221.85 179.35 225.8 173.4C229.6 167.7 236.7 162.45 243.9 165.35C245.75 166.1 247.3 167.75 247.45 169.75C247.6 171.5 246.7 173.2 245.45 174.4C244.2 175.6 242.6 176.4 241 177.15C236.95 179.2 232.8 181.05 229.15 183.7Z" fill="white"/>
<path d="M215.55 157.6C215.75 160.6 217.2 164.2 217.95 166.55C219.15 170.05 220.25 173.85 219.3 177.4C221.85 174.15 224.25 170.4 225.35 166.4C226.5 162.2 226.4 157.4 223.2 154.05C221.1 151.9 216.75 151.7 215.75 155.1C215.55 155.85 215.45 156.7 215.55 157.6Z" fill="#28995A"/>
<path opacity="0.6" d="M215.55 157.6C215.75 160.6 217.2 164.2 217.95 166.55C219.15 170.05 220.25 173.85 219.3 177.4C221.85 174.15 224.25 170.4 225.35 166.4C226.5 162.2 226.4 157.4 223.2 154.05C221.1 151.9 216.75 151.7 215.75 155.1C215.55 155.85 215.45 156.7 215.55 157.6Z" fill="white"/>
<path d="M241.95 161.2C240.9 161 239.75 161.1 238.75 161.5C237.6 161.95 236.65 162.85 236.05 163.9C237.15 163.3 238.8 162.75 241.65 163.15C244.35 163.55 245.95 164.8 246.5 165.5C246.45 164.15 245.4 162.75 244.25 162.05C243.55 161.65 242.75 161.35 241.95 161.2Z" fill="#28995A"/>
<path opacity="0.3" d="M114.2 96.95L154.25 73.8C154.4 73.75 154.5 73.8 154.5 73.95V108.85C154.5 109 154.4 109.2 154.25 109.25L114.2 132.4C114.05 132.45 113.95 132.4 113.95 132.25V97.35C114 97.2 114.1 97.05 114.2 96.95Z" fill="#28995A"/>
<path d="M124 117.343V98.6342C124 98.3134 124.214 97.9927 124.428 97.8858L139.715 89.1195C139.929 89.0126 140.357 89.0126 140.57 89.1195L142.922 90.5093C143.136 90.6162 143.35 90.9369 143.35 91.2576V109.966C143.35 110.287 143.136 110.608 142.922 110.715L127.635 119.481C127.421 119.588 126.993 119.588 126.78 119.481L124.428 118.091C124.214 117.877 124 117.557 124 117.343Z" fill="#FF9436"/>
<path opacity="0.15" d="M127.635 119.481C127.421 119.588 127.314 119.481 127.314 119.16V100.452C127.314 100.345 127.314 100.131 127.421 100.024L124.214 98.0996C124.107 98.2065 124.107 98.4203 124.107 98.5272V117.236C124.107 117.557 124.321 117.877 124.535 117.984L126.887 119.374C127.1 119.588 127.421 119.588 127.635 119.481Z" fill="black"/>
<path opacity="0.35" d="M143.243 101.307L143.35 99.0615V91.1505C143.35 90.8298 143.136 90.7229 142.922 90.9367L127.635 99.703C127.421 99.8099 127.207 100.131 127.207 100.451V119.16C127.207 119.481 127.421 119.588 127.635 119.374L142.922 110.607C143.136 110.501 143.35 110.18 143.35 109.859V104.407L143.243 101.948V101.307Z" fill="white"/>
<path d="M133.835 111.035H132.873V113.921C132.873 114.135 133.087 114.349 133.301 114.349C133.515 114.349 133.729 114.135 133.729 113.921L133.835 111.035Z" fill="#FF9436"/>
<path d="M135.546 109.966H134.584V112.852C134.584 113.066 134.798 113.28 135.011 113.28C135.225 113.28 135.439 113.066 135.439 112.852L135.546 109.966Z" fill="#FF9436"/>
<path d="M137.256 109.004H136.294V111.89C136.294 112.104 136.508 112.318 136.722 112.318C136.936 112.318 137.149 112.104 137.149 111.89L137.256 109.004Z" fill="#FF9436"/>
<path d="M138.967 108.042H138.005V110.928C138.005 111.142 138.219 111.356 138.433 111.356C138.646 111.356 138.86 111.142 138.86 110.928L138.967 108.042Z" fill="#FF9436"/>
<g opacity="0.8">
<g opacity="0.8">
<g opacity="0.8">
<path opacity="0.8" d="M133.835 111.035H132.873V113.921C132.873 114.135 133.087 114.349 133.301 114.349C133.515 114.349 133.729 114.135 133.729 113.921L133.835 111.035Z" fill="white"/>
</g>
<g opacity="0.8">
<path opacity="0.8" d="M135.546 109.966H134.584V112.852C134.584 113.066 134.798 113.28 135.011 113.28C135.225 113.28 135.439 113.066 135.439 112.852L135.546 109.966Z" fill="white"/>
</g>
<g opacity="0.8">
<path opacity="0.8" d="M137.256 109.004H136.294V111.89C136.294 112.104 136.508 112.318 136.722 112.318C136.936 112.318 137.149 112.104 137.149 111.89L137.256 109.004Z" fill="white"/>
</g>
<g opacity="0.8">
<path opacity="0.8" d="M138.967 108.042H138.005V110.928C138.005 111.142 138.219 111.356 138.433 111.356C138.646 111.356 138.86 111.142 138.86 110.928L138.967 108.042Z" fill="white"/>
</g>
</g>
</g>
<g opacity="0.2">
<path opacity="0.2" d="M133.835 111.035H132.873V113.494L133.835 112.959V111.035Z" fill="#FF9436"/>
<path opacity="0.2" d="M138.112 110.501L138.967 109.966V108.042H138.112V110.501Z" fill="#FF9436"/>
<path opacity="0.2" d="M137.257 109.004H136.401V111.463L137.257 110.928V109.004Z" fill="#FF9436"/>
<path opacity="0.2" d="M135.546 109.966H134.584V112.532L135.546 111.997V109.966Z" fill="#FF9436"/>
</g>
<path d="M139.501 101.093L139.074 100.345L141.64 98.8478C141.853 98.7409 142.174 98.8478 142.281 99.0617C142.388 99.2755 142.281 99.5962 142.067 99.7031L139.501 101.093Z" fill="#FF9436"/>
<path d="M139.501 103.124L139.074 102.376L141.64 100.879C141.853 100.772 142.174 100.879 142.281 101.093C142.388 101.306 142.281 101.627 142.067 101.734L139.501 103.124Z" fill="#FF9436"/>
<path d="M139.501 105.155L139.074 104.407L141.64 102.91C141.853 102.803 142.174 102.91 142.281 103.124C142.388 103.338 142.281 103.658 142.067 103.765L139.501 105.155Z" fill="#FF9436"/>
<path d="M139.501 107.187L139.074 106.438L141.64 104.942C141.853 104.835 142.174 104.942 142.281 105.155C142.388 105.369 142.281 105.69 142.067 105.797L139.501 107.187Z" fill="#FF9436"/>
<g opacity="0.8">
<g opacity="0.8">
<g opacity="0.8">
<path opacity="0.8" d="M139.501 101.093L139.074 100.345L141.64 98.8478C141.853 98.7409 142.174 98.8478 142.281 99.0617C142.388 99.2755 142.281 99.5962 142.067 99.7031L139.501 101.093Z" fill="white"/>
</g>
<g opacity="0.8">
<path opacity="0.8" d="M139.501 103.124L139.074 102.376L141.64 100.879C141.853 100.772 142.174 100.879 142.281 101.093C142.388 101.307 142.281 101.627 142.067 101.734L139.501 103.124Z" fill="white"/>
</g>
<g opacity="0.8">
<path opacity="0.8" d="M139.501 105.155L139.074 104.407L141.64 102.91C141.853 102.803 142.174 102.91 142.281 103.124C142.388 103.338 142.281 103.658 142.067 103.765L139.501 105.155Z" fill="white"/>
</g>
<g opacity="0.8">
<path opacity="0.8" d="M139.501 107.187L139.074 106.439L141.64 104.942C141.853 104.835 142.174 104.942 142.281 105.156C142.388 105.369 142.281 105.69 142.067 105.797L139.501 107.187Z" fill="white"/>
</g>
</g>
</g>
<g opacity="0.2">
<path opacity="0.2" d="M139.501 101.093L139.074 100.345L141.212 99.0618V100.131L139.501 101.093Z" fill="#FF9436"/>
<path opacity="0.2" d="M141.212 105.049V106.118L139.501 107.187L139.074 106.331L141.212 105.049Z" fill="#FF9436"/>
<path opacity="0.2" d="M139.501 105.155L139.074 104.3L141.212 103.124V104.193L139.501 105.155Z" fill="#FF9436"/>
<path opacity="0.2" d="M139.501 103.124L139.074 102.269L141.212 101.093V102.162L139.501 103.124Z" fill="#FF9436"/>
</g>
<path d="M140.25 98.4203C140.143 98.3134 140.036 98.4203 139.822 98.4203L132.232 102.803C132.125 102.91 131.911 103.017 131.804 103.231L130.735 102.59C130.842 102.376 130.949 102.269 131.163 102.162L138.432 97.9926C138.753 97.7788 139.288 97.7788 139.501 97.9926L140.25 98.4203Z" fill="#2B454E"/>
<path d="M131.697 103.872V112.639C131.697 112.959 131.911 113.173 132.232 112.959L139.822 108.576C140.143 108.362 140.357 107.935 140.357 107.614V98.8477C140.357 98.527 140.143 98.3132 139.822 98.527L132.232 102.91C132.018 103.124 131.697 103.552 131.697 103.872Z" fill="#375A64"/>
<path d="M131.911 112.959L131.27 112.639C130.949 112.425 130.735 111.997 130.735 111.676V103.231C130.735 103.017 130.842 102.91 130.949 102.696L132.018 103.338C131.911 103.552 131.804 103.658 131.804 103.872V112.639C131.697 112.852 131.804 112.959 131.911 112.959Z" fill="#1A2E35"/>
<path d="M132.98 111.356H132.873C132.766 111.356 132.766 111.249 132.766 111.036V104.194C132.766 103.98 132.98 103.659 133.194 103.552L139.074 100.131C139.181 100.024 139.288 100.024 139.395 100.131C139.501 100.131 139.501 100.238 139.501 100.452V107.294C139.501 107.508 139.288 107.828 139.074 107.935L133.194 111.356C133.087 111.356 133.087 111.356 132.98 111.356ZM139.181 100.238H139.074L133.194 103.659C132.98 103.766 132.873 103.98 132.873 104.194V111.036C132.873 111.143 132.873 111.143 132.98 111.249C132.98 111.249 133.087 111.249 133.194 111.249L139.074 107.828C139.288 107.722 139.395 107.508 139.395 107.294V100.452C139.288 100.345 139.288 100.238 139.181 100.238C139.181 100.238 139.288 100.238 139.181 100.238Z" fill="#F5F5F5"/>
<path d="M134.049 109.325C133.942 109.325 133.942 109.218 133.942 109.111V104.621C133.942 104.514 134.049 104.3 134.156 104.3L138.112 102.055C138.219 102.055 138.219 102.055 138.325 102.055C138.325 102.055 138.432 102.162 138.432 102.269V106.759C138.432 106.866 138.325 106.973 138.219 107.08L134.049 109.325C134.049 109.325 134.156 109.325 134.049 109.325ZM138.112 102.162L134.156 104.407C134.156 104.407 134.049 104.514 134.049 104.621V109.111L137.898 106.866C138.005 106.866 138.005 106.759 138.005 106.652L138.112 102.162C138.112 102.162 138.112 102.269 138.112 102.162Z" fill="#F5F5F5"/>
<path d="M133.729 98.8478C133.729 98.634 133.515 98.4202 133.301 98.4202C133.087 98.4202 132.873 98.634 132.873 98.8478V101.627C132.873 101.734 132.873 101.734 132.98 101.841C133.194 101.948 133.408 101.948 133.622 101.841C133.729 101.841 133.729 101.734 133.729 101.627V98.8478Z" fill="#FF9436"/>
<path d="M135.546 97.7787C135.546 97.5649 135.332 97.3511 135.118 97.3511C134.905 97.3511 134.691 97.5649 134.691 97.7787V100.558C134.691 100.665 134.691 100.665 134.798 100.772C135.011 100.879 135.225 100.879 135.439 100.772C135.546 100.772 135.546 100.665 135.546 100.558V97.7787Z" fill="#FF9436"/>
<path d="M137.257 96.8166C137.257 96.6027 137.043 96.3889 136.829 96.3889C136.615 96.3889 136.401 96.6027 136.401 96.8166V99.5961C136.401 99.703 136.401 99.703 136.508 99.8099C136.722 99.9168 136.936 99.9168 137.15 99.8099C137.257 99.8099 137.257 99.703 137.257 99.5961V96.8166Z" fill="#FF9436"/>
<path d="M138.539 95.3201C138.326 95.3201 138.112 95.5339 138.112 95.7477V98.5273C138.112 98.6342 138.112 98.6342 138.219 98.7411C138.432 98.848 138.646 98.848 138.86 98.7411C138.967 98.7411 138.967 98.6342 138.967 98.5273V95.7477C138.967 95.5339 138.753 95.3201 138.539 95.3201Z" fill="#FF9436"/>
<path d="M128.918 106.759C128.704 106.866 128.383 106.759 128.276 106.545C128.169 106.332 128.276 106.011 128.49 105.904L130.949 104.514C131.056 104.514 131.056 104.514 131.163 104.514C131.377 104.621 131.484 104.835 131.484 105.049C131.484 105.156 131.484 105.263 131.377 105.263L128.918 106.759Z" fill="#FF9436"/>
<path d="M128.918 108.683C128.704 108.79 128.383 108.683 128.276 108.469C128.169 108.256 128.276 107.935 128.49 107.828L130.949 106.438C131.056 106.438 131.056 106.438 131.163 106.438C131.377 106.545 131.484 106.759 131.484 106.973C131.484 107.08 131.484 107.187 131.377 107.187L128.918 108.683Z" fill="#FF9436"/>
<path d="M128.918 110.715C128.704 110.822 128.383 110.715 128.276 110.501C128.169 110.287 128.276 109.967 128.49 109.86L130.949 108.47C131.056 108.47 131.056 108.47 131.163 108.47C131.377 108.577 131.484 108.791 131.484 109.005C131.484 109.111 131.484 109.218 131.377 109.218L128.918 110.715Z" fill="#FF9436"/>
<path d="M128.276 112.532C128.169 112.318 128.276 111.998 128.49 111.891L130.949 110.501C131.056 110.501 131.056 110.501 131.163 110.501C131.377 110.608 131.484 110.822 131.484 111.036C131.484 111.142 131.484 111.249 131.377 111.249L128.918 112.639C128.704 112.853 128.49 112.853 128.276 112.532Z" fill="#FF9436"/>
<g opacity="0.8">
<g opacity="0.8">
<g opacity="0.8">
<g opacity="0.8">
<path opacity="0.8" d="M133.729 98.8478C133.729 98.634 133.515 98.4202 133.301 98.4202C133.087 98.4202 132.873 98.634 132.873 98.8478V101.627C132.873 101.734 132.873 101.734 132.98 101.841C133.194 101.948 133.408 101.948 133.622 101.841C133.729 101.841 133.729 101.734 133.729 101.627V98.8478Z" fill="white"/>
</g>
<g opacity="0.8">
<path opacity="0.8" d="M135.546 97.7787C135.546 97.5649 135.332 97.3511 135.118 97.3511C134.905 97.3511 134.691 97.5649 134.691 97.7787V100.558C134.691 100.665 134.691 100.665 134.798 100.772C135.011 100.879 135.225 100.879 135.439 100.772C135.546 100.772 135.546 100.665 135.546 100.558V97.7787Z" fill="white"/>
</g>
<g opacity="0.8">
<path opacity="0.8" d="M137.257 96.8168C137.257 96.603 137.043 96.3892 136.829 96.3892C136.615 96.3892 136.401 96.603 136.401 96.8168V99.5963C136.401 99.7033 136.401 99.7032 136.508 99.8102C136.722 99.9171 136.936 99.9171 137.15 99.8102C137.257 99.8102 137.257 99.7033 137.257 99.5963V96.8168Z" fill="white"/>
</g>
<g opacity="0.8">
<path opacity="0.8" d="M138.539 95.3201C138.326 95.3201 138.112 95.5339 138.112 95.7477V98.5273C138.112 98.6342 138.112 98.6342 138.219 98.7411C138.432 98.848 138.646 98.848 138.86 98.7411C138.967 98.7411 138.967 98.6342 138.967 98.5273V95.7477C138.967 95.5339 138.753 95.3201 138.539 95.3201Z" fill="white"/>
</g>
</g>
<g opacity="0.8">
<g opacity="0.8">
<path opacity="0.8" d="M128.918 106.759C128.704 106.866 128.383 106.759 128.276 106.545C128.169 106.332 128.276 106.011 128.49 105.904L130.949 104.514C131.056 104.514 131.056 104.514 131.163 104.514C131.377 104.621 131.484 104.835 131.484 105.049C131.484 105.156 131.484 105.263 131.377 105.263L128.918 106.759Z" fill="white"/>
</g>
<g opacity="0.8">
<path opacity="0.8" d="M128.918 108.683C128.704 108.79 128.383 108.683 128.276 108.469C128.169 108.255 128.276 107.935 128.49 107.828L130.949 106.438C131.056 106.438 131.056 106.438 131.163 106.438C131.377 106.545 131.484 106.759 131.484 106.973C131.484 107.079 131.484 107.186 131.377 107.186L128.918 108.683Z" fill="white"/>
</g>
<g opacity="0.8">
<path opacity="0.8" d="M128.918 110.715C128.704 110.822 128.383 110.715 128.276 110.501C128.169 110.287 128.276 109.966 128.49 109.86L130.949 108.47C131.056 108.47 131.056 108.47 131.163 108.47C131.377 108.577 131.484 108.79 131.484 109.004C131.484 109.111 131.484 109.218 131.377 109.218L128.918 110.715Z" fill="white"/>
</g>
<g opacity="0.8">
<path opacity="0.8" d="M128.276 112.532C128.169 112.318 128.276 111.998 128.49 111.891L130.949 110.501C131.056 110.501 131.056 110.501 131.163 110.501C131.377 110.608 131.484 110.822 131.484 111.036C131.484 111.142 131.484 111.249 131.377 111.249L128.918 112.639C128.704 112.853 128.49 112.853 128.276 112.532Z" fill="white"/>
</g>
</g>
</g>
</g>
<path d="M114 132L280.75 164.5L300.75 153.5L154.5 109L114 132Z" fill="url(#paint0_linear_901_26250)"/>
<path d="M114 97.5L276.5 165.5L296.5 154.5L154.5 74L114 97.5Z" fill="url(#paint1_linear_901_26250)"/>
<defs>
<linearGradient id="paint0_linear_901_26250" x1="315.703" y1="109.444" x2="138.745" y2="208.642" gradientUnits="userSpaceOnUse">
<stop stop-color="#009A44" stop-opacity="0"/>
<stop offset="1" stop-color="#009A44"/>
</linearGradient>
<linearGradient id="paint1_linear_901_26250" x1="205.25" y1="74" x2="256.041" y2="175.404" gradientUnits="userSpaceOnUse">
<stop stop-color="#009A44" stop-opacity="0.5"/>
<stop offset="1" stop-color="#009A44" stop-opacity="0"/>
</linearGradient>
</defs>
</svg>
