<svg width="18" height="18" viewBox="0 0 18 18" fill="none" xmlns="http://www.w3.org/2000/svg">
<path fill-rule="evenodd" clip-rule="evenodd" d="M9 2.25C5.27208 2.25 2.25 5.27208 2.25 9C2.25 12.7279 5.27208 15.75 9 15.75C12.7279 15.75 15.75 12.7279 15.75 9C15.75 5.27208 12.7279 2.25 9 2.25ZM0.75 9C0.75 4.44365 4.44365 0.75 9 0.75C13.5563 0.75 17.25 4.44365 17.25 9C17.25 13.5563 13.5563 17.25 9 17.25C4.44365 17.25 0.75 13.5563 0.75 9Z" fill="#009A44"/>
<path fill-rule="evenodd" clip-rule="evenodd" d="M9.19368 6.01818C8.84454 5.95829 8.48547 6.0239 8.18007 6.20339C7.87466 6.38288 7.64264 6.66466 7.52509 6.99882C7.38763 7.38957 6.95945 7.5949 6.5687 7.45744C6.17796 7.31999 5.97263 6.8918 6.11009 6.50106C6.34519 5.83273 6.80924 5.26916 7.42004 4.91019C8.03084 4.55122 8.74898 4.42 9.44726 4.53977C10.1455 4.65954 10.7789 5.02258 11.2352 5.56459C11.6913 6.10648 11.941 6.7923 11.9401 7.50062C11.9397 8.64839 11.0888 9.40636 10.4811 9.81148C10.1544 10.0293 9.833 10.1895 9.59625 10.2947C9.47681 10.3478 9.37624 10.388 9.30376 10.4156C9.26746 10.4295 9.23804 10.4402 9.21661 10.4478L9.19056 10.4569L9.18227 10.4598L9.17935 10.4608L9.1782 10.4611C9.17797 10.4612 9.17726 10.4615 8.94009 9.74994L9.17726 10.4615C8.7843 10.5924 8.35956 10.3801 8.22857 9.98711C8.09768 9.59441 8.30968 9.16998 8.70213 9.03869L8.70117 9.03901C8.70125 9.03899 8.70131 9.03897 8.70213 9.03869L8.7141 9.03449C8.72564 9.03039 8.74455 9.02353 8.76977 9.01392C8.82034 8.99465 8.89555 8.96462 8.98705 8.92396C9.17217 8.84168 9.41329 8.72059 9.64906 8.5634C10.1663 8.2186 10.4401 7.85179 10.4401 7.49994L10.4401 7.49882C10.4406 7.14458 10.3158 6.80159 10.0876 6.53059C9.8595 6.25959 9.54282 6.07807 9.19368 6.01818Z" fill="#009A44"/>
<path fill-rule="evenodd" clip-rule="evenodd" d="M8.25 12.75C8.25 12.3358 8.58579 12 9 12H9.0075C9.42171 12 9.7575 12.3358 9.7575 12.75C9.7575 13.1642 9.42171 13.5 9.0075 13.5H9C8.58579 13.5 8.25 13.1642 8.25 12.75Z" fill="#009A44"/>
</svg>
