<svg width="50" height="75" viewBox="0 0 50 75" fill="none" xmlns="http://www.w3.org/2000/svg">
<path d="M3.68731 69.9176L2.65487 69.3232C1.17995 68.4315 0 66.3511 0 64.5679V27.5658C0 25.7826 1.17995 23.7021 2.65487 22.8105L40.8555 0.668712C42.3304 -0.222904 44.8378 -0.222904 46.3127 0.668712L47.3451 1.26313C48.8201 2.15474 50 4.23518 50 6.01841V43.0205C50 44.8037 48.8201 46.8842 47.3451 47.7758L39.6755 52.2339C38.2006 53.1255 36.8732 54.9087 35.6932 56.6919L25.8112 70.512C24.7788 71.998 23.4513 73.7812 22.2714 74.5243C21.0914 75.2673 18.8791 75.1187 17.4041 74.2271L16.6667 73.7812C15.1917 72.8896 14.0118 70.8092 14.0118 69.026V70.3634C14.0118 68.5802 12.8319 67.9857 11.3569 68.7288L9.29204 69.9176C7.66962 70.8092 5.30973 70.8092 3.68731 69.9176Z" fill="#28995A"/>
<path opacity="0.25" d="M3.68731 69.9176L2.65487 69.3232C1.17995 68.4315 0 66.3511 0 64.5679V27.5658C0 25.7826 1.17995 23.7021 2.65487 22.8105L40.8555 0.668712C42.3304 -0.222904 44.8378 -0.222904 46.3127 0.668712L47.3451 1.26313C48.8201 2.15474 50 4.23518 50 6.01841V43.0205C50 44.8037 48.8201 46.8842 47.3451 47.7758L39.6755 52.2339C38.2006 53.1255 36.8732 55.0573 35.6932 56.6919L25.8112 70.512C24.7788 71.8494 23.4513 73.7812 22.2714 74.5243C21.0914 75.2673 18.8791 75.1187 17.4041 74.2271L16.6667 73.7812C15.1917 72.8896 14.0118 70.8092 14.0118 69.026V70.3634C14.0118 68.5802 12.8319 67.9857 11.3569 68.7288L9.29204 69.9176C7.66962 70.8092 5.30973 70.8092 3.68731 69.9176Z" fill="black"/>
<path d="M50.0002 6.16684C50.0002 4.38361 48.8203 3.7892 47.3454 4.53222L9.14479 26.674C8.55482 27.1198 7.96484 27.7142 7.52236 28.3087L1.18018 24.5936C1.62265 23.8506 2.21263 23.2562 2.8026 22.959L41.0032 0.81715C42.4781 -0.0744666 44.9855 -0.0744666 46.4604 0.81715L47.4929 1.41156C48.8203 2.30318 50.0002 4.38361 50.0002 6.16684Z" fill="#28995A"/>
<path opacity="0.45" d="M50.0002 6.16684C50.0002 4.38361 48.8203 3.7892 47.3454 4.53222L9.14479 26.674C8.55482 27.1198 7.96484 27.7142 7.52236 28.3087L1.18018 24.5936C1.62265 23.8506 2.21263 23.2562 2.8026 22.959L41.0032 0.81715C42.4781 -0.0744666 44.9855 -0.0744666 46.4604 0.81715L47.4929 1.41156C48.8203 2.30318 50.0002 4.38361 50.0002 6.16684Z" fill="white"/>
<path d="M21.3863 74.2272C21.2388 74.2272 20.9438 74.0786 20.7963 73.93C20.6488 73.6328 20.5013 73.187 20.5013 72.5926V66.7971C20.5013 65.3111 19.6164 64.2709 18.4364 64.2709C17.9939 64.2709 17.404 64.4194 16.9615 64.7167L8.84939 69.4719C8.55441 69.6206 8.25944 69.7691 7.96445 69.7691C7.07949 69.7691 6.93201 68.7289 6.93201 68.4317V31.4296C6.93201 29.9436 8.11194 28.0118 9.43938 27.1202L47.6399 4.97836C47.9349 4.82976 48.2299 4.68115 48.5249 4.68115C49.4099 4.68115 49.5574 5.72137 49.5574 6.01858V43.0207C49.5574 44.5067 48.3774 46.4385 47.05 47.3301L39.3804 51.7882C37.758 52.6798 36.283 54.7603 35.1031 56.3949C33.9231 58.0295 25.9585 69.0261 25.2211 70.215C24.4836 71.4038 23.0087 73.3356 21.8287 73.93C21.6813 74.0786 21.5338 74.2272 21.3863 74.2272Z" fill="#FAFAFA"/>
<path d="M48.5256 5.27557C48.9681 5.27557 48.9681 5.86997 48.9681 6.16718V43.1693C48.9681 44.5067 47.9357 46.2899 46.7557 47.0329L39.0861 51.491C37.4637 52.5312 35.8412 54.6117 34.6613 56.3949C33.3339 58.1781 25.5168 69.1748 24.7793 70.215C24.0418 71.2552 22.5669 73.187 21.682 73.7814C21.5345 73.93 21.387 73.93 21.387 73.93C21.2395 73.93 21.092 73.6328 21.092 72.8898V67.0943C21.092 65.3111 20.0595 64.1222 18.5846 64.1222C17.9947 64.1222 17.4047 64.2709 16.8147 64.5681L8.70262 69.3233C8.40764 69.4719 8.11265 69.6206 7.96516 69.6206C7.52268 69.6206 7.52268 69.0261 7.52268 68.7289V65.1625V60.11V31.7269C7.52268 30.3894 8.55513 28.6062 9.73507 27.8632L47.9356 5.72138C48.0831 5.27557 48.3781 5.27557 48.5256 5.27557ZM48.5256 4.23535C48.2306 4.23535 47.7882 4.38395 47.3457 4.68115L9.14511 26.823C7.67018 27.7146 6.49023 29.795 6.49023 31.5783V59.9614V65.0139V68.5803C6.49023 69.7691 7.0802 70.5122 7.96516 70.5122C8.26015 70.5122 8.70263 70.3636 9.14511 70.0664L17.2572 65.3111C17.6997 65.0139 18.1421 64.8653 18.4371 64.8653C19.3221 64.8653 19.912 65.6083 19.912 66.7971V72.5926C19.912 73.93 20.502 74.673 21.2395 74.673C21.5345 74.673 21.682 74.5244 21.977 74.3758C23.1569 73.6328 24.6318 71.5524 25.5168 70.3636C26.4017 69.1747 33.9238 58.6239 35.3988 56.5435C36.8737 54.4631 37.9062 52.977 39.3811 52.0854L47.0507 47.6273C48.5256 46.7357 49.7056 44.6553 49.7056 42.8721V5.86998C50.0006 4.82976 49.4106 4.23535 48.5256 4.23535Z" fill="#E6E6E6"/>
<path d="M25.8115 54.6114L13.4221 46.2897L17.1094 40.4942L23.4516 44.655L36.5785 20.2842L42.6257 23.5534L25.8115 54.6114Z" fill="#28995A"/>
</svg>
