<svg width="30" height="30" viewBox="0 0 30 30" fill="none" xmlns="http://www.w3.org/2000/svg">
<path d="M15 0C6.7408 0 0 6.74109 0 15C0 17.7008 0.779883 20.3858 2.25897 22.7896L0.608496 29.3916L7.21037 27.7411C9.61418 29.2201 12.2992 30 15 30C23.2592 30 30 23.2589 30 15C30 6.7408 23.2588 0 15 0ZM15 28.2422C12.5165 28.2422 10.0407 27.4876 7.84031 26.0599L7.51963 25.8519L3.02432 26.9757L4.1482 22.4804L3.94008 22.1597C2.51244 19.9593 1.75781 17.4835 1.75781 15C1.75781 7.69822 7.69822 1.75781 15 1.75781C22.3018 1.75781 28.2422 7.69822 28.2422 15C28.2422 22.3018 22.3018 28.2422 15 28.2422Z" fill="#009A44"/>
<path d="M17.6367 20.2734V12.3633C16.5984 12.3633 11.4215 12.3633 10.6055 12.3633V14.1211H11.4844C11.969 14.1211 12.3633 14.5154 12.3633 15V20.2734C12.3633 20.7581 11.969 21.1523 11.4844 21.1523H10.6055V22.9102H19.3945V21.1523H18.5156C18.031 21.1523 17.6367 20.7581 17.6367 20.2734ZM13.9699 14.1211H15.8789V20.2734C15.8789 20.5815 15.9325 20.8772 16.0301 21.1523H13.9699C14.0675 20.8772 14.1211 20.5815 14.1211 20.2734V15C14.1211 14.6919 14.0675 14.3962 13.9699 14.1211Z" fill="#009A44"/>
<path d="M15 10.6055C16.4539 10.6055 17.6367 9.42264 17.6367 7.96875C17.6367 6.51486 16.4539 5.33203 15 5.33203C13.5461 5.33203 12.3633 6.51486 12.3633 7.96875C12.3633 9.42264 13.5461 10.6055 15 10.6055ZM15 7.08984C15.4846 7.08984 15.8789 7.48412 15.8789 7.96875C15.8789 8.45338 15.4846 8.84766 15 8.84766C14.5154 8.84766 14.1211 8.45338 14.1211 7.96875C14.1211 7.48412 14.5154 7.08984 15 7.08984Z" fill="#009A44"/>
</svg>
