<svg width="30" height="30" viewBox="0 0 30 30" fill="none" xmlns="http://www.w3.org/2000/svg">
<g clip-path="url(#clip0_35_2609)">
<path d="M5.39062 24.7266H14.5312V26.4844H5.39062V24.7266Z" fill="#009A44"/>
<path d="M11.7773 3.51562H15.3516V5.27344H11.7773V3.51562Z" fill="#009A44"/>
<path d="M6.32812 4.39453C6.32812 4.87999 5.93468 5.27344 5.44922 5.27344C4.96376 5.27344 4.57031 4.87999 4.57031 4.39453C4.57031 3.90907 4.96376 3.51562 5.44922 3.51562C5.93468 3.51562 6.32812 3.90907 6.32812 4.39453Z" fill="#009A44"/>
<path d="M9.84375 4.39453C9.84375 4.87999 9.4503 5.27344 8.96484 5.27344C8.47939 5.27344 8.08594 4.87999 8.08594 4.39453C8.08594 3.90907 8.47939 3.51562 8.96484 3.51562C9.4503 3.51562 9.84375 3.90907 9.84375 4.39453Z" fill="#009A44"/>
<path d="M19.043 8.61328V2.63672C19.043 1.18286 17.8601 0 16.4062 0H3.51562C2.06177 0 0.878906 1.18286 0.878906 2.63672V27.3633C0.878906 28.8171 2.06177 30 3.51562 30H16.4062C17.8601 30 19.043 28.8171 19.043 27.3633V21.9727H29.0625V8.61328H19.043ZM25.605 10.3711L18.1641 15.8974L10.7231 10.3711H25.605ZM17.2852 27.3633C17.2852 27.8478 16.8908 28.2422 16.4062 28.2422H3.51562C3.03108 28.2422 2.63672 27.8478 2.63672 27.3633V2.63672C2.63672 2.15218 3.03108 1.75781 3.51562 1.75781H16.4062C16.8908 1.75781 17.2852 2.15218 17.2852 2.63672V8.61328H7.26562V21.9727H17.2852V27.3633ZM27.3047 20.2148H9.02344V11.2983L18.1641 18.0869L27.3047 11.2983V20.2148Z" fill="#009A44"/>
</g>
<defs>
<clipPath id="clip0_35_2609">
<rect width="30" height="30" fill="white"/>
</clipPath>
</defs>
</svg>
