<svg width="30" height="30" viewBox="0 0 30 30" fill="none" xmlns="http://www.w3.org/2000/svg">
<g clip-path="url(#clip0_35_2615)">
<path d="M25.8511 18.0405H20.839C22.9401 14.7086 24.0042 11.6851 24.0042 9.0358C24.0042 4.0535 19.9519 0 14.9707 0C9.98955 0 5.93719 4.0535 5.93719 9.0358C5.93719 11.6851 7.00127 14.7089 9.1024 18.0405H4.09035L0.878906 30H29.0625L25.8511 18.0405ZM7.69455 9.0358C7.69455 5.02258 10.9586 1.75781 14.9707 1.75781C18.9828 1.75781 22.2469 5.02258 22.2469 9.0358C22.2469 11.6428 20.9441 14.8865 18.4797 18.4163C17.1291 20.3522 15.7427 21.9223 14.9705 22.752C14.1994 21.9237 12.8151 20.3558 11.4617 18.4161C8.99734 14.8865 7.69455 11.6428 7.69455 9.0358V9.0358ZM5.438 19.7983H10.2837C11.8934 22.0459 13.3683 23.6707 14.9707 25.2539C16.5218 23.7218 17.972 22.1519 19.658 19.7983H24.5036L26.7709 28.2422H3.17047L5.438 19.7983Z" fill="#009A44"/>
<path d="M14.9707 14.2075C17.5547 14.2075 19.657 12.1046 19.657 9.52002C19.657 6.93526 17.5547 4.83252 14.9707 4.83252C12.3866 4.83252 10.2843 6.93526 10.2843 9.52002C10.2843 12.1046 12.3866 14.2075 14.9707 14.2075V14.2075ZM14.9707 6.59033C16.5856 6.59033 17.8997 7.90457 17.8997 9.52002C17.8997 11.1355 16.5856 12.4497 14.9707 12.4497C13.3557 12.4497 12.0417 11.1355 12.0417 9.52002C12.0417 7.90457 13.3557 6.59033 14.9707 6.59033V6.59033Z" fill="#009A44"/>
</g>
<defs>
<clipPath id="clip0_35_2615">
<rect width="30" height="30" fill="white"/>
</clipPath>
</defs>
</svg>
