<svg width="30" height="30" viewBox="0 0 30 30" fill="none" xmlns="http://www.w3.org/2000/svg">
<g clip-path="url(#clip0_35_2605)">
<path d="M21.0754 23.9592L18.2912 21.175C17.4879 20.3718 16.1808 20.3718 15.3776 21.175L14.1544 22.3982C11.3607 20.9353 9.06484 18.6394 7.60187 15.8457L8.82513 14.6224C9.62834 13.8192 9.62834 12.5121 8.82513 11.7089L6.04099 8.92471C5.23773 8.12145 3.93068 8.12145 3.12742 8.92471L0.900096 11.1521C-0.263693 12.3158 -0.300079 14.3674 0.797616 16.9287C1.78715 19.2376 3.60332 21.7804 5.9115 24.0886C8.21968 26.3968 10.7625 28.213 13.0714 29.2025C14.3128 29.7345 15.4344 30.0001 16.3932 30.0001C17.4127 30.0001 18.2483 29.6998 18.848 29.1001L21.0753 26.8727C21.4645 26.4836 21.6788 25.9662 21.6788 25.4159C21.6788 24.8657 21.4645 24.3483 21.0754 23.9592ZM19.8322 25.6297L17.6049 27.857C17.0018 28.46 15.566 28.359 13.7639 27.5867C11.6556 26.6831 9.30835 24.9994 7.15451 22.8455C5.00072 20.6917 3.31691 18.3445 2.41334 16.2362C1.64107 14.4342 1.53994 12.9983 2.14304 12.3952L4.37037 10.1679C4.48826 10.0501 4.67998 10.0501 4.79781 10.1679L7.58195 12.952C7.69978 13.0699 7.69978 13.2616 7.58195 13.3794L5.47345 15.488L5.73865 16.0478C7.44115 19.6419 10.3582 22.559 13.9524 24.2615L14.5122 24.5266L16.6207 22.4181C16.6977 22.3412 16.7877 22.3296 16.8344 22.3296C16.8811 22.3296 16.971 22.3411 17.048 22.4181L19.8321 25.2022C19.9091 25.2792 19.9207 25.3692 19.9207 25.4159C19.9208 25.4627 19.9092 25.5527 19.8322 25.6297Z" fill="#009A44"/>
<path d="M27.2901 2.27121C25.5814 0.806602 23.318 0 20.917 0C18.516 0 16.2525 0.806602 14.5438 2.27121C12.7964 3.76904 11.834 5.77195 11.834 7.91098C11.834 10.05 12.7964 12.0529 14.5438 13.5507C14.857 13.8191 15.1889 14.0653 15.5368 14.2885C14.8945 15.2563 14.1436 16.1458 13.299 16.9371C15.1412 16.7848 16.8879 16.2966 18.4789 15.5351C19.2633 15.724 20.0818 15.822 20.917 15.822C23.318 15.822 25.5814 15.0154 27.2901 13.5507C29.0376 12.053 30 10.05 30 7.91098C30 5.77195 29.0376 3.7691 27.2901 2.27121ZM20.917 14.064C16.878 14.064 13.592 11.3037 13.592 7.91098C13.592 4.51822 16.878 1.75799 20.917 1.75799C24.9559 1.75799 28.2419 4.51822 28.2419 7.91098C28.242 11.3037 24.9559 14.064 20.917 14.064Z" fill="#009A44"/>
<path d="M20.9171 9.08275C21.5644 9.08275 22.0891 8.55804 22.0891 7.91076C22.0891 7.26349 21.5644 6.73877 20.9171 6.73877C20.2698 6.73877 19.7451 7.26349 19.7451 7.91076C19.7451 8.55804 20.2698 9.08275 20.9171 9.08275Z" fill="#009A44"/>
<path d="M16.8153 9.08275C17.4626 9.08275 17.9873 8.55804 17.9873 7.91076C17.9873 7.26349 17.4626 6.73877 16.8153 6.73877C16.168 6.73877 15.6433 7.26349 15.6433 7.91076C15.6433 8.55804 16.168 9.08275 16.8153 9.08275Z" fill="#009A44"/>
<path d="M25.0192 9.08275C25.6664 9.08275 26.1912 8.55804 26.1912 7.91076C26.1912 7.26349 25.6664 6.73877 25.0192 6.73877C24.3719 6.73877 23.8472 7.26349 23.8472 7.91076C23.8472 8.55804 24.3719 9.08275 25.0192 9.08275Z" fill="#009A44"/>
</g>
<defs>
<clipPath id="clip0_35_2605">
<rect width="30" height="30" fill="white"/>
</clipPath>
</defs>
</svg>
