<svg width="35" height="48" viewBox="0 0 35 48" fill="none" xmlns="http://www.w3.org/2000/svg">
<path d="M11.7089 33.2522C11.2999 33.2522 10.9077 33.0897 10.6185 32.8005C10.3293 32.5113 10.1668 32.1191 10.1668 31.7101V26.9863L4.12033 23.9997L10.1668 21.0131V16.2893C10.1668 15.8804 10.3293 15.4881 10.6185 15.1989C10.9077 14.9097 11.2999 14.7473 11.7089 14.7473H28.9833V1.9276C28.9833 1.67446 28.9334 1.4238 28.8365 1.18994C28.7397 0.95607 28.5977 0.743574 28.4187 0.56458C28.2397 0.385586 28.0272 0.2436 27.7933 0.14673C27.5594 0.0498588 27.3088 0 27.0557 0H2.19273C1.6815 0 1.19121 0.203085 0.829717 0.56458C0.468222 0.926074 0.265137 1.41637 0.265137 1.9276V46.0696C0.265137 46.5808 0.468222 47.0711 0.829717 47.4326C1.19121 47.7941 1.6815 47.9971 2.19273 47.9971H27.0557C27.5669 47.9971 28.0572 47.7941 28.4187 47.4326C28.7802 47.0711 28.9833 46.5808 28.9833 46.0696V33.2522H11.7089Z" fill="#D1D5DA"/>
<path d="M7.13098 0H22.118V1.9276C22.118 2.43883 21.915 2.92912 21.5535 3.29061C21.192 3.65211 20.7017 3.8552 20.1905 3.8552H9.05858C8.54735 3.8552 8.05706 3.65211 7.69556 3.29061C7.33407 2.92912 7.13098 2.43883 7.13098 1.9276V0V0Z" fill="#777A90"/>
<path d="M12.677 41.0579H16.5707C16.9797 41.0579 17.3719 41.2203 17.6611 41.5095C17.9503 41.7987 18.1128 42.191 18.1128 42.5999C18.1128 43.0089 17.9503 43.4012 17.6611 43.6904C17.3719 43.9795 16.9797 44.142 16.5707 44.142H12.677C12.268 44.142 11.8757 43.9795 11.5866 43.6904C11.2974 43.4012 11.1349 43.0089 11.1349 42.5999C11.1349 42.191 11.2974 41.7987 11.5866 41.5095C11.8757 41.2203 12.268 41.0579 12.677 41.0579V41.0579Z" fill="#777A90"/>
<path d="M10.1667 16.2894V21.0132L4.12024 23.9998L10.1667 26.9864V31.7102C10.1667 32.1192 10.3292 32.5114 10.6184 32.8006C10.9076 33.0898 11.2998 33.2522 11.7088 33.2522H33.2254C33.6344 33.2522 34.0266 33.0898 34.3158 32.8006C34.605 32.5114 34.7675 32.1192 34.7675 31.7102V16.2894C34.7675 15.8804 34.605 15.4882 34.3158 15.199C34.0266 14.9098 33.6344 14.7473 33.2254 14.7473H11.7088C11.2998 14.7473 10.9076 14.9098 10.6184 15.199C10.3292 15.4882 10.1667 15.8804 10.1667 16.2894Z" fill="#009A44"/>
<path d="M15.5038 25.4817C15.3092 25.4817 15.1165 25.4434 14.9367 25.3689C14.7569 25.2944 14.5936 25.1852 14.456 25.0476C14.3184 24.91 14.2093 24.7466 14.1349 24.5668C14.0605 24.387 14.0222 24.1944 14.0222 23.9998C14.0222 23.8052 14.0605 23.6125 14.1349 23.4327C14.2093 23.2529 14.3184 23.0895 14.456 22.9519C14.5936 22.8143 14.7569 22.7051 14.9367 22.6306C15.1165 22.5562 15.3092 22.5178 15.5038 22.5178C15.8968 22.5178 16.2737 22.674 16.5516 22.9519C16.8296 23.2298 16.9857 23.6067 16.9857 23.9998C16.9857 24.3928 16.8296 24.7697 16.5516 25.0476C16.2737 25.3256 15.8968 25.4817 15.5038 25.4817V25.4817Z" fill="#313647"/>
<path d="M22.4673 25.4817C22.0743 25.4817 21.6973 25.3256 21.4194 25.0476C21.1415 24.7697 20.9854 24.3928 20.9854 23.9998C20.9854 23.6067 21.1415 23.2298 21.4194 22.9519C21.6973 22.674 22.0743 22.5178 22.4673 22.5178C22.8603 22.5178 23.2373 22.674 23.5152 22.9519C23.7931 23.2298 23.9492 23.6067 23.9492 23.9998C23.9492 24.3928 23.7931 24.7697 23.5152 25.0476C23.2373 25.3256 22.8603 25.4817 22.4673 25.4817V25.4817Z" fill="#313647"/>
<path d="M29.4306 25.4817C29.2361 25.4817 29.0434 25.4434 28.8636 25.3689C28.6838 25.2944 28.5205 25.1852 28.3829 25.0476C28.2453 24.91 28.1362 24.7466 28.0618 24.5668C27.9873 24.387 27.949 24.1944 27.9491 23.9998C27.949 23.8052 27.9873 23.6125 28.0618 23.4327C28.1362 23.2529 28.2453 23.0895 28.3829 22.9519C28.5205 22.8143 28.6838 22.7051 28.8636 22.6306C29.0434 22.5562 29.2361 22.5178 29.4306 22.5178C29.8237 22.5178 30.2006 22.674 30.4785 22.9519C30.7564 23.2298 30.9126 23.6067 30.9126 23.9998C30.9126 24.3928 30.7564 24.7697 30.4785 25.0476C30.2006 25.3256 29.8237 25.4817 29.4306 25.4817V25.4817Z" fill="#313647"/>
</svg>
