<svg width="60" height="61" viewBox="0 0 60 61" fill="none" xmlns="http://www.w3.org/2000/svg">
<path d="M12.3985 44.7528C11.3592 44.9912 10.3937 45.4796 9.58587 46.1755C8.77802 46.8715 8.15215 47.754 7.76255 48.7466L4.8938 56.0544H55.1063L52.2422 48.756C51.8506 47.7616 51.2225 46.8778 50.4122 46.1811C49.6019 45.4843 48.634 44.9957 47.5922 44.7575L36.9469 42.3341L37.2329 44.2981C31.9547 46.5013 27.4969 46.3981 22.7672 44.2981L23.0625 42.3013L12.3985 44.7528Z" fill="#777A90"/>
<path d="M36.9469 42.334L36.136 36.845C34.3189 38.0527 32.1904 38.7071 30.0087 38.7288C27.827 38.7504 25.686 38.1383 23.8453 36.9668L23.0625 42.3012L22.7672 44.2981C27.4969 46.3981 31.9547 46.5012 37.2328 44.2981L36.9469 42.334Z" fill="#D1D5DA"/>
<path d="M34.0688 33.4277C34.0685 33.7409 33.944 34.0412 33.7225 34.2627C33.501 34.4842 33.2007 34.6087 32.8875 34.6089H31.0735C30.7603 34.6087 30.4599 34.4842 30.2385 34.2627C30.017 34.0412 29.8925 33.7409 29.8922 33.4277V32.8324C29.8925 32.5192 30.017 32.2189 30.2385 31.9974C30.4599 31.7759 30.7603 31.6514 31.0735 31.6511H32.8875C33.2007 31.6514 33.501 31.7759 33.7225 31.9974C33.944 32.2189 34.0685 32.5192 34.0688 32.8324V33.4277Z" fill="#F5F6FA"/>
<path d="M36.5766 17.256C34.711 19.3044 31.411 18.17 31.411 18.17C23.4891 15.0856 18.8578 20.1294 18.6422 20.3732V20.631L18.6985 28.6935V28.7028C18.9114 30.6239 19.6148 32.4579 20.7413 34.0285C21.8677 35.5991 23.3792 36.8536 25.1305 37.6713C26.8817 38.4891 28.8139 38.8426 30.7413 38.6979C32.6687 38.5532 34.5264 37.9151 36.136 36.845C37.5888 35.8849 38.8065 34.6095 39.6985 33.1138C40.5119 31.7638 41.0444 30.2635 41.2641 28.7028V28.6841C41.3215 28.2848 41.3575 27.8826 41.3719 27.4794V25.3232C41.3719 25.3232 41.3485 25.2763 41.3016 25.1919V25.1778C40.9078 24.3528 38.8875 20.2138 36.5766 17.256V17.256Z" fill="#F5F6FA"/>
<path d="M44.25 20.4714C44.3578 20.4715 44.4645 20.4503 44.564 20.4091C44.6636 20.3679 44.754 20.3075 44.8302 20.2313C44.9064 20.1551 44.9668 20.0647 45.008 19.9651C45.0492 19.8656 45.0704 19.7589 45.0703 19.6511V18.0668C45.0703 13.4519 43.5497 9.60347 40.6725 6.93581C37.9739 4.44487 34.2839 3.12769 30 3.12769C20.8453 3.12769 14.9297 8.99175 14.9297 18.0668V19.6558C14.9297 19.8734 15.0161 20.082 15.17 20.2359C15.3238 20.3897 15.5324 20.4761 15.75 20.4761C15.9676 20.4761 16.1762 20.3897 16.33 20.2359C16.4839 20.082 16.5703 19.8734 16.5703 19.6558V18.0668C16.5703 9.98831 21.8438 4.76831 30 4.76831C33.8639 4.76831 37.1719 5.93456 39.5583 8.14003C42.0895 10.4885 43.4297 13.9207 43.4297 18.0668V19.6511C43.4297 19.8687 43.5161 20.0773 43.67 20.2312C43.8238 20.385 44.0325 20.4714 44.25 20.4714Z" fill="#009A44"/>
<path d="M17.9109 19.1355C17.1594 19.1342 16.4185 19.3126 15.75 19.6558C15.2984 19.8811 14.8867 20.1788 14.5312 20.5371C13.8614 21.2055 13.405 22.0576 13.2198 22.9856C13.0346 23.9135 13.1289 24.8756 13.4908 25.7499C13.8527 26.6243 14.4658 27.3716 15.2527 27.8972C16.0395 28.4228 16.9647 28.7032 17.9109 28.7027H18.6984V28.6933L18.6422 20.6308V20.373L18.6328 20.3824C18.6094 19.9511 18.6 19.5339 18.6094 19.1355H17.9109Z" fill="#009A44"/>
<path d="M41.3719 25.3232C41.4891 22.4451 41.4891 20.5044 41.4188 19.1357C41.4047 18.8966 41.3907 18.6763 41.3719 18.4701C41.3625 18.3388 41.3532 18.2169 41.3391 18.0998C41.3062 17.7095 41.2514 17.3214 41.175 16.9373C40.4625 13.3607 39.0844 10.5904 35.0625 8.31226L35.0579 8.32632C36.5204 9.11382 37.5375 10.2623 37.7391 11.6404C37.9454 13.6982 37.725 15.156 37.2704 16.1826C37.0958 16.574 36.8618 16.9361 36.5766 17.256C38.8875 20.2138 40.9078 24.3529 41.3016 25.1779V25.1919C41.3485 25.2763 41.3719 25.3232 41.3719 25.3232V25.3232Z" fill="#777A90"/>
<path d="M31.411 18.1701C31.411 18.1701 34.711 19.3045 36.5766 17.256C36.8618 16.9361 37.0958 16.574 37.2704 16.1826C37.7251 15.156 37.9454 13.6982 37.7391 11.6404C37.5376 10.2623 36.5204 9.11383 35.0579 8.32633C32.1891 6.77477 27.6094 6.59196 24.1079 8.71071C21.7266 10.2857 19.0126 12.8545 18.6469 18.1091V18.1138C18.6235 18.442 18.6094 18.7841 18.6094 19.1357C18.6001 19.5341 18.6094 19.9513 18.6329 20.3826L18.6422 20.3732C18.8579 20.1295 23.4891 15.0857 31.411 18.1701V18.1701Z" fill="#313647"/>
<path d="M39.7031 33.934C39.7254 33.9341 39.7476 33.933 39.7697 33.9308C41.1401 33.805 42.4146 33.1738 43.3452 32.1601C44.2758 31.1463 44.7959 29.8225 44.8041 28.4464V28.3137C44.8041 28.0962 44.7177 27.8875 44.5638 27.7337C44.41 27.5798 44.2013 27.4934 43.9838 27.4934C43.7662 27.4934 43.5576 27.5798 43.4037 27.7337C43.2499 27.8875 43.1635 28.0962 43.1635 28.3137V28.445C43.1578 29.4057 42.7969 30.3304 42.1503 31.0409C41.5036 31.7514 40.6169 32.1976 39.661 32.2934L34.0697 32.3122C33.8521 32.3122 33.6435 32.3986 33.4897 32.5524C33.3358 32.7063 33.2494 32.9149 33.2494 33.1325C33.2494 33.35 33.3358 33.5587 33.4897 33.7125C33.6435 33.8664 33.8521 33.9528 34.0697 33.9528L39.7031 33.934Z" fill="#009A44"/>
<path d="M41.3719 27.4793C41.3575 27.8825 41.3215 28.2846 41.264 28.684V28.7027H42.0937C42.7435 28.7047 43.3867 28.5722 43.9828 28.3137C44.8191 27.9546 45.5356 27.3644 46.0481 26.6122C46.5605 25.86 46.8477 24.9772 46.8757 24.0675C46.9038 23.1578 46.6716 22.259 46.2065 21.4767C45.7413 20.6943 45.0626 20.061 44.25 19.6512C43.5827 19.3095 42.8433 19.1326 42.0937 19.1355H41.4187C41.489 20.5043 41.489 22.4449 41.3719 25.323V27.4793Z" fill="#009A44"/>
<path d="M32.8875 31.6511H31.0735C30.4211 31.6511 29.8922 32.18 29.8922 32.8324V33.4277C29.8922 34.0801 30.4211 34.6089 31.0735 34.6089H32.8875C33.5399 34.6089 34.0688 34.0801 34.0688 33.4277V32.8324C34.0688 32.18 33.5399 31.6511 32.8875 31.6511Z" fill="#009A44"/>
</svg>
