<svg width="56" height="42" viewBox="0 0 56 42" fill="none" xmlns="http://www.w3.org/2000/svg">
<path d="M50.3076 9.1582H21.5923V19.1588H50.3076C51.6338 19.1588 52.9056 18.632 53.8433 17.6943C54.7811 16.7565 55.3079 15.4847 55.3079 14.1585C55.3079 12.8323 54.7811 11.5605 53.8433 10.6228C52.9056 9.68502 51.6338 9.1582 50.3076 9.1582V9.1582Z" fill="#F5F6FA"/>
<path d="M13.7732 0.341064C11.4223 0.341064 9.16773 1.27495 7.5054 2.93729C5.84307 4.59962 4.90918 6.85422 4.90918 9.20512V35.5022H22.6378V9.20512C22.6376 6.85418 21.7036 4.59957 20.0412 2.93725C18.3788 1.27494 16.1242 0.341064 13.7732 0.341064V0.341064Z" fill="#D1D5DA"/>
<path d="M24.547 34.1611H3.00019C2.20449 34.1611 1.44138 34.4772 0.878734 35.0399C0.31609 35.6025 0 36.3656 0 37.1613V41.6616H27.5472V37.1613C27.5472 36.3656 27.2311 35.6025 26.6685 35.0399C26.1058 34.4772 25.3427 34.1611 24.547 34.1611V34.1611Z" fill="#777A90"/>
<path d="M24.261 19.1588H32.0965L35.1067 9.1582H27.2712L24.261 19.1588Z" fill="#009A44"/>
<path d="M38.1721 19.1588H46.0076L49.0128 9.1582H41.1823L38.1721 19.1588Z" fill="#009A44"/>
<path d="M15.7736 11.3171H11.7733C10.3926 11.3171 9.27319 12.4365 9.27319 13.8173V24.5C9.27319 25.8808 10.3926 27.0001 11.7733 27.0001H15.7736C17.1544 27.0001 18.2738 25.8808 18.2738 24.5V13.8173C18.2738 12.4365 17.1544 11.3171 15.7736 11.3171Z" fill="white"/>
</svg>
