<svg width="113" height="119" viewBox="0 0 113 119" fill="none" xmlns="http://www.w3.org/2000/svg">
<circle opacity="0.5" cx="6" cy="6" r="6" fill="#009A44"/>
<circle opacity="0.25" cx="14" cy="17" r="4" fill="#009A44"/>
<g filter="url(#filter0_d_904_31608)">
<circle cx="58" cy="44" r="30" fill="white"/>
</g>
<mask id="mask0_904_31608" style="mask-type:alpha" maskUnits="userSpaceOnUse" x="33" y="19" width="50" height="50">
<circle cx="58" cy="44" r="25" fill="#C4C4C4"/>
</mask>
<g mask="url(#mask0_904_31608)">
<g clip-path="url(#clip0_904_31608)">
<path d="M49.4136 28.3126C49.4136 28.3126 53.0266 23.8135 59.2006 25.3875C68.4338 27.7276 66.4681 35.1519 63.1596 38.3138C56.2935 44.8606 64.9315 50.2512 64.004 57.0487C62.6336 67.1474 53.9541 67.7603 50.3411 67.3981C45.8421 66.9385 33.7711 64.278 34.1587 53.1764C34.311 48.9001 40.0696 44.4706 41.4401 38.0492C42.2707 34.1211 43.4196 28.4101 49.4136 28.3126Z" fill="#20120C"/>
<path d="M52.2376 39.3725C52.2376 39.3725 52.5836 33.0625 57.747 32.4635C61.6646 32.0178 63.0627 36.4752 63.1458 41.4479C63.2427 46.4346 61.7753 49.694 58.4115 48.9419C54.8677 48.1618 52.7636 46.4903 51.933 43.8159C51.933 43.8159 49.206 43.5373 49.4274 40.5843C49.6766 37.3249 52.2376 39.3725 52.2376 39.3725Z" fill="#E5AF9C"/>
<path d="M61.097 54.4161C61.097 54.4161 56.9995 53.6639 57.6502 48.3429L52.1822 43.1194C52.1822 43.1194 51.9746 52.9117 48.2647 53.831C48.2647 53.831 50.3549 63.3586 55.9752 63.6233C59.3805 63.7765 60.7925 56.9651 61.097 54.4161Z" fill="#E5AF9C"/>
<path d="M59.8096 39.3446C59.8096 39.3446 60.4879 41.0161 61.1524 41.5872C61.803 42.1583 60.5156 42.6598 59.9896 42.7155C59.4497 42.7573 59.8096 39.3446 59.8096 39.3446Z" fill="#D39784"/>
<path d="M57.6225 48.7468C57.6225 48.7468 55.2138 47.6743 54.3417 46.741C53.4696 45.8078 54.3417 48.9558 54.7016 49.6105C55.3522 50.7666 56.6673 51.7974 58.0931 51.9645C58.0793 51.9645 57.401 50.5994 57.6225 48.7468Z" fill="#D39784"/>
<path d="M61.097 54.4161C61.097 54.4161 58.6191 62.0493 56.6673 62.0632C55.366 62.0772 50.3134 55.809 48.2508 53.831C48.2508 53.831 30.9886 55.5722 21.5755 72.3848C21.5755 72.3848 48.5415 102.375 79.1205 76.2154C79.1205 76.2154 75.7013 60.6982 61.097 54.4161Z" fill="#C5E3FF"/>
<path d="M62.0245 39.8182C61.6805 39.8182 61.4016 39.5376 61.4016 39.1914C61.4016 38.8452 61.6805 38.5646 62.0245 38.5646C62.3686 38.5646 62.6475 38.8452 62.6475 39.1914C62.6475 39.5376 62.3686 39.8182 62.0245 39.8182Z" fill="#20120C"/>
<path d="M56.1277 39.2322C56.0732 38.8904 56.3044 38.5688 56.6441 38.514C56.9838 38.4592 57.3034 38.6918 57.3579 39.0336C57.4124 39.3755 57.1812 39.697 56.8415 39.7518C56.5018 39.8067 56.1822 39.574 56.1277 39.2322Z" fill="#20120C"/>
<path d="M55.5598 36.2662C56.0167 36.2244 56.4735 36.2244 56.9303 36.2523C57.2625 36.2802 57.4978 36.6563 57.4425 36.9766C57.3871 37.3388 57.0687 37.5199 56.7226 37.492C56.3766 37.4641 56.0305 37.4781 55.6844 37.5199C54.8954 37.5895 54.7708 36.3498 55.5598 36.2662Z" fill="#20120C"/>
<path d="M61.6369 36.1409C61.9829 36.113 62.3428 36.1548 62.6751 36.2244C62.9935 36.2941 63.2288 36.6563 63.1319 36.9766C63.035 37.3109 62.7166 37.5059 62.3844 37.4363C62.329 37.4224 62.2598 37.4084 62.2044 37.3945C62.1767 37.3945 62.149 37.3806 62.1214 37.3806C62.1214 37.3806 62.1075 37.3806 62.0937 37.3806C61.9552 37.3806 61.8168 37.3806 61.6784 37.3806C61.36 37.3945 61.0278 37.102 61.0278 36.7816C61.0416 36.4473 61.2908 36.1687 61.6369 36.1409Z" fill="#20120C"/>
<path d="M61.1385 44.387L58.0931 44.1781C58.0931 44.1781 58.0516 45.3899 59.5189 45.4874C60.9171 45.571 61.1385 44.387 61.1385 44.387Z" fill="white"/>
</g>
</g>
<defs>
<filter id="filter0_d_904_31608" x="3" y="9" width="110" height="110" filterUnits="userSpaceOnUse" color-interpolation-filters="sRGB">
<feFlood flood-opacity="0" result="BackgroundImageFix"/>
<feColorMatrix in="SourceAlpha" type="matrix" values="0 0 0 0 0 0 0 0 0 0 0 0 0 0 0 0 0 0 127 0" result="hardAlpha"/>
<feMorphology radius="15" operator="erode" in="SourceAlpha" result="effect1_dropShadow_904_31608"/>
<feOffset dy="20"/>
<feGaussianBlur stdDeviation="20"/>
<feComposite in2="hardAlpha" operator="out"/>
<feColorMatrix type="matrix" values="0 0 0 0 0.466667 0 0 0 0 0.478431 0 0 0 0 0.564706 0 0 0 0.5 0"/>
<feBlend mode="normal" in2="BackgroundImageFix" result="effect1_dropShadow_904_31608"/>
<feBlend mode="normal" in="SourceGraphic" in2="effect1_dropShadow_904_31608" result="shape"/>
</filter>
<clipPath id="clip0_904_31608">
<rect width="67.9688" height="71.875" fill="white" transform="matrix(-1 0 0 1 86.125 15.0938)"/>
</clipPath>
</defs>
</svg>
