<svg width="113" height="119" viewBox="0 0 113 119" fill="none" xmlns="http://www.w3.org/2000/svg">
<circle opacity="0.5" cx="6" cy="6" r="6" fill="#009A44"/>
<circle opacity="0.25" cx="14" cy="17" r="4" fill="#009A44"/>
<g filter="url(#filter0_d_904_31523)">
<circle cx="58" cy="44" r="30" fill="white"/>
</g>
<mask id="mask0_904_31523" style="mask-type:alpha" maskUnits="userSpaceOnUse" x="33" y="19" width="50" height="50">
<circle cx="58" cy="44" r="25" fill="#C4C4C4"/>
</mask>
<g mask="url(#mask0_904_31523)">
<mask id="mask1_904_31523" style="mask-type:alpha" maskUnits="userSpaceOnUse" x="33" y="19" width="50" height="50">
<circle cx="58" cy="44" r="25" fill="#C4C4C4"/>
</mask>
<g mask="url(#mask1_904_31523)">
<g clip-path="url(#clip0_904_31523)">
<path d="M57.6094 97.0023C82.3382 97.0023 102.385 76.9339 102.385 52.1784C102.385 27.4229 82.3382 7.35452 57.6094 7.35452C32.8805 7.35452 12.8339 27.4229 12.8339 52.1784C12.8339 76.9339 32.8805 97.0023 57.6094 97.0023Z" fill="white"/>
<path d="M62.4401 30.3984C62.4401 30.3984 59.3112 25.0496 52.5409 26.6433C45.2948 28.3468 46.9965 36.1502 48.3689 38.0187C55.743 48.1301 52.8702 44.8879 57.646 44.4849C63.5563 43.9903 61.1044 44.5398 63.6844 40.6015C66.0815 36.9379 66.7768 30.8564 62.4401 30.3984Z" fill="#20120C"/>
<path d="M61.8546 38.8796C61.8546 38.8796 61.9278 31.9371 54.3158 30.9296C49.1374 30.2336 47.5272 35.0878 47.4174 41.6273C47.3076 48.1668 49.2472 52.4532 53.6936 51.4823C58.3779 50.4382 61.1593 48.2584 62.2571 44.7413C62.2571 44.7413 65.8619 44.375 65.5691 40.4916C65.2214 36.1869 61.8546 38.8796 61.8546 38.8796Z" fill="#E5AF9C"/>
<path d="M51.3148 57.8936C51.3148 57.8936 53.3642 57.0143 53.3825 50.1634L62.9158 43.2576C62.9158 43.2576 63.1354 55.3657 65.6239 57.0143C65.6239 57.0143 64.3614 70.423 56.9323 70.7711C52.4127 70.9726 51.7174 61.2274 51.3148 57.8936Z" fill="#E5AF9C"/>
<path d="M52.3396 38.4034C52.3396 38.4034 51.1502 41.0411 50.4183 42.0669C49.7412 43.0011 50.8208 43.6239 52.5409 43.1843C53.2179 43.0195 52.3396 38.4034 52.3396 38.4034Z" fill="#D39784"/>
<path d="M51.3149 57.8936C51.3149 57.8936 55.0843 65.3123 56.3651 65.3673C57.5362 65.4222 62.7329 60.6962 65.6057 57.0143C65.6057 57.0143 93.7848 60.0551 102.367 82.293C102.367 82.293 62.312 118.013 21.8915 83.6119C21.9098 83.6302 31.0954 61.9235 51.3149 57.8936Z" fill="#F8B001"/>
<path d="M48.8995 39.4658C49.3542 39.4658 49.7229 39.0967 49.7229 38.6415C49.7229 38.1862 49.3542 37.8172 48.8995 37.8172C48.4447 37.8172 48.076 38.1862 48.076 38.6415C48.076 39.0967 48.4447 39.4658 48.8995 39.4658Z" fill="#20120C"/>
<path d="M56.0906 39.4658C56.5454 39.4658 56.914 39.0967 56.914 38.6415C56.914 38.1862 56.5454 37.8172 56.0906 37.8172C55.6359 37.8172 55.2672 38.1862 55.2672 38.6415C55.2672 39.0967 55.6359 39.4658 56.0906 39.4658Z" fill="#20120C"/>
<path d="M57.6459 35.3992C57.0421 35.3076 56.4383 35.271 55.8344 35.271C55.3953 35.271 55.0659 35.7656 55.1025 36.1869C55.1574 36.6631 55.56 36.9196 56.0174 36.9196C56.4749 36.9196 56.9323 36.9562 57.3715 37.0295C58.4328 37.176 58.7072 35.5641 57.6459 35.3992Z" fill="#20120C"/>
<path d="M48.9361 35.1061C48.7166 35.0878 48.497 35.0878 48.2774 35.1061C48.0578 35.6557 47.948 36.2418 47.8199 36.828C47.8565 36.828 47.8931 36.828 47.9297 36.8097C48.0029 36.7914 48.0944 36.773 48.1676 36.7547C48.2042 36.7547 48.2408 36.7364 48.2774 36.7364C48.2774 36.7364 48.2957 36.7364 48.314 36.7364C48.497 36.7364 48.68 36.7364 48.8629 36.7364C49.2838 36.7547 49.723 36.3701 49.723 35.9487C49.723 35.5091 49.3936 35.1428 48.9361 35.1061Z" fill="#20120C"/>
<path d="M60.9763 34.1536C60.9763 34.1536 60.9763 42.2318 59.055 43.4041C57.1337 44.5948 47.454 43.7522 47.454 43.7522C47.454 43.7522 47.1063 48.8629 48.7531 50.5298C50.4183 52.1967 55.0843 52.9477 57.646 51.2075C60.2078 49.4673 62.1291 48.1301 62.3852 38.5133C62.3852 38.5316 62.8244 34.6115 60.9763 34.1536Z" fill="#20120C"/>
<path d="M50.1438 46.3716L54.1511 45.9503C54.1511 45.9503 54.2609 47.544 52.3396 47.7271C50.4732 47.9103 50.1438 46.3716 50.1438 46.3716Z" fill="white"/>
</g>
</g>
</g>
<defs>
<filter id="filter0_d_904_31523" x="3" y="9" width="110" height="110" filterUnits="userSpaceOnUse" color-interpolation-filters="sRGB">
<feFlood flood-opacity="0" result="BackgroundImageFix"/>
<feColorMatrix in="SourceAlpha" type="matrix" values="0 0 0 0 0 0 0 0 0 0 0 0 0 0 0 0 0 0 127 0" result="hardAlpha"/>
<feMorphology radius="15" operator="erode" in="SourceAlpha" result="effect1_dropShadow_904_31523"/>
<feOffset dy="20"/>
<feGaussianBlur stdDeviation="20"/>
<feComposite in2="hardAlpha" operator="out"/>
<feColorMatrix type="matrix" values="0 0 0 0 0.466667 0 0 0 0 0.478431 0 0 0 0 0.564706 0 0 0 0.5 0"/>
<feBlend mode="normal" in2="BackgroundImageFix" result="effect1_dropShadow_904_31523"/>
<feBlend mode="normal" in="SourceGraphic" in2="effect1_dropShadow_904_31523" result="shape"/>
</filter>
<clipPath id="clip0_904_31523">
<rect width="89.8438" height="91.4062" fill="white" transform="translate(12.6875 7.28125)"/>
</clipPath>
</defs>
</svg>
