<svg width="113" height="119" viewBox="0 0 113 119" fill="none" xmlns="http://www.w3.org/2000/svg">
<circle opacity="0.5" cx="6" cy="6" r="6" fill="#009A44"/>
<circle opacity="0.25" cx="14" cy="17" r="4" fill="#009A44"/>
<g filter="url(#filter0_d_904_31693)">
<circle cx="58" cy="44" r="30" fill="white"/>
</g>
<mask id="mask0_904_31693" style="mask-type:alpha" maskUnits="userSpaceOnUse" x="33" y="19" width="50" height="50">
<circle cx="58" cy="44" r="25" fill="#C4C4C4"/>
</mask>
<g mask="url(#mask0_904_31693)">
<mask id="mask1_904_31693" style="mask-type:alpha" maskUnits="userSpaceOnUse" x="33" y="19" width="50" height="50">
<circle cx="58" cy="44" r="25" fill="#C4C4C4"/>
</mask>
<g mask="url(#mask1_904_31693)">
<g clip-path="url(#clip0_904_31693)">
<path d="M58.5208 83.6269C38.7377 83.6269 22.7004 67.5504 22.7004 47.719C22.7004 27.8876 38.7377 11.8111 58.5208 11.8111C78.3039 11.8111 94.3412 27.8876 94.3412 47.719C94.3412 67.5504 78.3039 83.6269 58.5208 83.6269Z" fill="white"/>
<path d="M52.9582 29.4495C52.9582 29.4495 55.3735 24.2402 61.9462 25.7369C71.754 27.9528 69.1923 32.5898 66.367 36.4638C60.4531 44.5494 62.6196 45.5912 58.7843 45.3564C54.0414 45.0776 53.3241 45.5032 50.0451 38.4449C48.1421 34.3801 46.6343 29.7137 52.9582 29.4495Z" fill="#20120C"/>
<path d="M54.8611 37.6671C54.8611 37.6671 55.2271 31.2838 60.497 30.4474C64.625 29.787 66.2206 34.5268 66.4548 39.7655C66.6744 45.0043 65.2106 48.4821 61.6388 47.7777C57.8767 47.044 55.476 45.195 54.5245 42.4069C54.5245 42.4069 51.7724 42.3335 51.9188 39.2226C52.0652 35.9209 54.8611 37.6671 54.8611 37.6671Z" fill="#E5AF9C"/>
<path d="M64.6104 53.486C64.6104 53.486 61.302 52.3708 61.8583 46.7358L54.0999 41.4091C54.0999 41.4091 54.9343 52.1506 51.0405 53.2072C51.0405 53.2072 53.4997 63.1857 59.443 63.3178C63.044 63.3911 64.3615 56.1714 64.6104 53.486Z" fill="#E5AF9C"/>
<path d="M62.7367 37.1829C62.7367 37.1829 63.6297 39.3693 64.3323 39.9563C65.035 40.5433 63.9663 41.5558 62.5757 41.233C62.0194 41.1156 62.7367 37.1829 62.7367 37.1829Z" fill="#D39784"/>
<path d="M61.7998 47.8217C61.7998 47.8217 58.228 46.7652 56.1201 45.0336C55.0807 44.1825 55.8127 46.6331 57.4375 48.438C58.3744 49.4799 60.863 50.9327 62.3707 51.0647C62.3561 51.0647 61.8145 50.0522 61.7998 47.8217Z" fill="#D39784"/>
<path d="M64.6104 53.486C64.6104 53.486 62.4732 55.335 59.2381 55.3496C57.8621 55.3496 53.2363 55.2469 51.0259 53.2072C51.0259 53.2072 29.7269 55.4817 23.3152 73.4577C23.3152 73.4577 56.0615 101.251 87.6953 72.8854C87.6953 72.9001 80.8591 56.3035 64.6104 53.486Z" fill="#477849"/>
<path d="M64.5372 37.4323C64.5518 37.7992 64.8446 38.078 65.2106 38.0633C65.5765 38.0487 65.8547 37.7552 65.84 37.3883C65.8254 37.0215 65.5326 36.7426 65.1667 36.7573C64.8153 36.772 64.5372 37.0655 64.5372 37.4323Z" fill="#20120C"/>
<path d="M58.9453 37.5204C58.9599 37.8872 59.2527 38.166 59.6186 38.1514C59.9846 38.1367 60.2627 37.8432 60.2481 37.4764C60.2335 37.1095 59.9407 36.8307 59.5747 36.8454C59.2234 36.86 58.9453 37.1682 58.9453 37.5204Z" fill="#20120C"/>
<path d="M58.2866 34.5122C58.7697 34.4535 59.2528 34.4388 59.7358 34.4535C60.0872 34.4681 60.336 34.8643 60.2921 35.2018C60.2335 35.5834 59.9115 35.7741 59.5455 35.7595C59.1796 35.7448 58.8136 35.7741 58.4476 35.8182C57.6133 35.9209 57.4376 34.6149 58.2866 34.5122Z" fill="#20120C"/>
<path d="M64.6983 34.2187C65.0642 34.1893 65.4448 34.204 65.7962 34.2774C66.1328 34.3361 66.3963 34.7176 66.3085 35.0551C66.2207 35.4073 65.884 35.6274 65.5327 35.5687C65.4741 35.554 65.4009 35.5393 65.3424 35.5393C65.3131 35.5393 65.2838 35.5393 65.2545 35.5247C65.2545 35.5247 65.2399 35.5247 65.2253 35.5247C65.0789 35.5247 64.9325 35.5247 64.7861 35.5393C64.4494 35.5687 64.0981 35.2752 64.0835 34.923C64.0835 34.5562 64.3323 34.248 64.6983 34.2187Z" fill="#20120C"/>
<path d="M64.3909 42.9205L61.1704 42.7738C61.1704 42.7738 61.1558 44.0504 62.7074 44.1091C64.1859 44.1678 64.3909 42.9205 64.3909 42.9205Z" fill="white"/>
<path d="M54.8612 37.6671L54.9197 37.2269L57.4961 37.5644C57.5986 36.3905 58.5647 35.4513 59.7651 35.422C60.9215 35.3926 61.9023 36.2144 62.1072 37.3149C62.5464 37.0655 62.9709 37.1388 63.2783 37.2856C63.4393 36.185 64.3762 35.3192 65.5326 35.2899C66.8208 35.2605 67.8894 36.2877 67.9333 37.5791C67.9626 38.8557 66.9379 39.927 65.6497 39.9563C64.3908 39.9857 63.3515 39.0172 63.2637 37.7698C63.1026 37.6378 62.6489 37.3883 62.1511 37.7992C62.1219 39.0465 61.1265 40.059 59.8822 40.0884C58.6525 40.1177 57.6279 39.1932 57.4961 37.99L54.8612 37.6671ZM65.6351 39.5161C66.5573 39.4867 67.3039 38.8117 67.4503 37.9459L66.2792 37.7845L66.2206 37.3296L67.4649 37.5057C67.4064 36.4932 66.5427 35.6861 65.518 35.7154C64.4787 35.7448 63.6443 36.6106 63.6735 37.6671C63.7175 38.709 64.5958 39.5454 65.6351 39.5161ZM59.8675 39.6628C60.9069 39.6335 61.7413 38.7677 61.712 37.7111C61.6827 36.6546 60.819 35.8328 59.7651 35.8622C58.7257 35.8915 57.8913 36.7573 57.9206 37.8139C57.9499 38.8557 58.8282 39.6922 59.8675 39.6628Z" fill="white"/>
<path d="M64.6104 53.486L61.2728 58.9448L58.6525 55.3349L54.9636 59.1062L51.0258 53.2072C51.0258 53.2072 57.5253 57.7855 64.6104 53.486Z" fill="white"/>
</g>
</g>
</g>
<defs>
<filter id="filter0_d_904_31693" x="3" y="9" width="110" height="110" filterUnits="userSpaceOnUse" color-interpolation-filters="sRGB">
<feFlood flood-opacity="0" result="BackgroundImageFix"/>
<feColorMatrix in="SourceAlpha" type="matrix" values="0 0 0 0 0 0 0 0 0 0 0 0 0 0 0 0 0 0 127 0" result="hardAlpha"/>
<feMorphology radius="15" operator="erode" in="SourceAlpha" result="effect1_dropShadow_904_31693"/>
<feOffset dy="20"/>
<feGaussianBlur stdDeviation="20"/>
<feComposite in2="hardAlpha" operator="out"/>
<feColorMatrix type="matrix" values="0 0 0 0 0.466667 0 0 0 0 0.478431 0 0 0 0 0.564706 0 0 0 0.5 0"/>
<feBlend mode="normal" in2="BackgroundImageFix" result="effect1_dropShadow_904_31693"/>
<feBlend mode="normal" in="SourceGraphic" in2="effect1_dropShadow_904_31693" result="shape"/>
</filter>
<clipPath id="clip0_904_31693">
<rect width="71.875" height="73.9583" fill="white" transform="matrix(-1 0 0 1 94.4583 11.7083)"/>
</clipPath>
</defs>
</svg>
