<svg width="113" height="119" viewBox="0 0 113 119" fill="none" xmlns="http://www.w3.org/2000/svg">
<circle opacity="0.5" cx="6" cy="6" r="6" fill="#009A44"/>
<circle opacity="0.25" cx="14" cy="17" r="4" fill="#009A44"/>
<g filter="url(#filter0_d_904_31778)">
<circle cx="58" cy="44" r="30" fill="white"/>
</g>
<mask id="mask0_904_31778" style="mask-type:alpha" maskUnits="userSpaceOnUse" x="33" y="19" width="50" height="50">
<circle cx="58" cy="44" r="25" fill="#C4C4C4"/>
</mask>
<g mask="url(#mask0_904_31778)">
<mask id="mask1_904_31778" style="mask-type:alpha" maskUnits="userSpaceOnUse" x="33" y="19" width="50" height="50">
<circle cx="58" cy="44" r="25" fill="#C4C4C4"/>
</mask>
<g mask="url(#mask1_904_31778)">
<g clip-path="url(#clip0_904_31778)">
<path d="M61.2396 82.6875C79.908 82.6875 95.0417 67.5538 95.0417 48.8854C95.0417 30.2171 79.908 15.0833 61.2396 15.0833C42.5712 15.0833 27.4375 30.2171 27.4375 48.8854C27.4375 67.5538 42.5712 82.6875 61.2396 82.6875Z" fill="white"/>
<path d="M60.3229 30.8042C60.3229 30.8042 63.0041 34.2417 66.9916 34.5396C70.9791 34.8604 82.1166 36.9 90.6416 44.9667C99.052 52.9188 96.5083 61.0083 95.0416 63.3229C87.5479 75.1938 68 69.8313 57.9625 55.1646C47.9479 40.4979 60.3229 30.8042 60.3229 30.8042Z" fill="#20120C"/>
<path d="M60.2771 31.5146C58.6958 30.6438 55.2354 30.1396 53.2187 30.3688C49.6208 30.8042 45.6562 32.9125 46.9395 39.7417C48.75 49.3667 58.1 47.4188 61.5375 43.8209C64.3791 40.9104 64.7916 33.9667 60.2771 31.5146Z" fill="#20120C"/>
<path d="M54.0208 28.5812C54.3416 30.9646 55.7395 32.7292 58.1229 32.4083C61.4 31.95 63.5312 29.3146 63.2104 26.9312C62.8896 24.5479 61.0333 22.4625 57.6187 22.9208C55.2354 23.2417 53.5166 24.8917 54.0208 28.5812Z" fill="#20120C"/>
<path d="M58.0542 39.4896C58.0542 39.4896 56.9542 33.0729 51.5688 33.0729C47.4896 33.0729 46.573 37.7938 47.0542 42.9042C47.5584 47.9917 49.4375 51.1542 52.8063 50.0084C56.3584 48.7938 58.3292 46.8229 58.8563 44.0042C58.8563 44.0042 61.6292 43.4084 61.0563 40.4063C60.4375 37.1063 58.0542 39.4896 58.0542 39.4896Z" fill="#9C6639"/>
<path d="M52.8292 55.0271C52.8292 55.0271 54.273 52.9875 53.5396 49.2979L58.5584 43.3167C58.5584 43.3167 59.4751 52.3687 62.4542 53.7896C62.4542 53.7896 60.6667 60.8021 57.1834 61.4208C53.7001 62.0396 53.448 57.5937 52.8292 55.0271Z" fill="#9C6639"/>
<path d="M50.2625 40.4979C50.2625 40.4979 49.575 42.2167 48.9104 42.8125C48.2459 43.4083 49.575 43.9125 50.125 43.9583C50.675 44.0042 50.2625 40.4979 50.2625 40.4979Z" fill="#89532E"/>
<path d="M58.1459 43.4771C58.2375 43.9813 58.7188 44.3021 59.2229 44.2104C59.7271 44.1188 60.0479 43.6375 59.9563 43.1333C59.8646 42.6292 59.3834 42.3083 58.8792 42.4C58.375 42.5146 58.0542 42.9958 58.1459 43.4771Z" fill="white"/>
<path d="M53.6083 49.55C53.6083 49.55 55.9687 48.175 56.7479 47.1209C57.527 46.0667 57.0458 49.4125 56.7249 50.1C56.1291 51.2688 54.9145 52.1854 53.6083 52.8271C53.6083 52.8271 53.9062 51.3604 53.6083 49.55Z" fill="#89532E"/>
<path d="M33.6479 69.5104C35.5729 64.5833 46.7563 57.2729 52.8063 55.0271C52.8063 55.0271 53.1729 58.3271 55.3729 58.35C58.1 58.3958 61.0104 56.4021 62.4313 53.7896C62.4313 53.7896 76.5479 55.0729 89.8625 70.2896C89.8625 70.2896 81.4979 82.6188 71.5063 84.2917C36.5584 90.0896 33.6479 69.5104 33.6479 69.5104Z" fill="#FDDDDF"/>
<path d="M47.8334 40.8875C48.1751 40.8875 48.4521 40.6105 48.4521 40.2687C48.4521 39.927 48.1751 39.65 47.8334 39.65C47.4916 39.65 47.2146 39.927 47.2146 40.2687C47.2146 40.6105 47.4916 40.8875 47.8334 40.8875Z" fill="#20120C"/>
<path d="M53.1042 40.8417C53.4459 40.8417 53.723 40.5646 53.723 40.2229C53.723 39.8812 53.4459 39.6042 53.1042 39.6042C52.7625 39.6042 52.4855 39.8812 52.4855 40.2229C52.4855 40.5646 52.7625 40.8417 53.1042 40.8417Z" fill="#20120C"/>
<path d="M54.273 37.3813C53.8146 37.3354 53.3563 37.3354 52.898 37.3583C52.5542 37.3813 52.325 37.7708 52.3938 38.0688C52.4625 38.4354 52.7834 38.5958 53.1042 38.5729C53.448 38.55 53.7917 38.5729 54.1355 38.5958C54.9375 38.6875 55.075 37.45 54.273 37.3813Z" fill="#20120C"/>
<path d="M48.223 37.2437C47.8792 37.2208 47.5125 37.2437 47.1917 37.3354C46.8709 37.4042 46.6417 37.7708 46.7334 38.0917C46.825 38.4125 47.1459 38.6187 47.4896 38.55C47.5584 38.5271 47.6042 38.5271 47.673 38.5042C47.6959 38.5042 47.7417 38.5042 47.7646 38.4812H47.7875C47.925 38.4812 48.0625 38.4812 48.2 38.4812C48.5209 38.5042 48.8417 38.2062 48.8417 37.8854C48.8188 37.5417 48.5667 37.2667 48.223 37.2437Z" fill="#20120C"/>
<path d="M48.7271 45.3104L52.1646 44.9667C52.1646 44.9667 52.2104 46.9604 50.5604 47.0979C48.9562 47.2583 48.7271 45.3104 48.7271 45.3104Z" fill="white"/>
</g>
</g>
</g>
<defs>
<filter id="filter0_d_904_31778" x="3" y="9" width="110" height="110" filterUnits="userSpaceOnUse" color-interpolation-filters="sRGB">
<feFlood flood-opacity="0" result="BackgroundImageFix"/>
<feColorMatrix in="SourceAlpha" type="matrix" values="0 0 0 0 0 0 0 0 0 0 0 0 0 0 0 0 0 0 127 0" result="hardAlpha"/>
<feMorphology radius="15" operator="erode" in="SourceAlpha" result="effect1_dropShadow_904_31778"/>
<feOffset dy="20"/>
<feGaussianBlur stdDeviation="20"/>
<feComposite in2="hardAlpha" operator="out"/>
<feColorMatrix type="matrix" values="0 0 0 0 0.466667 0 0 0 0 0.478431 0 0 0 0 0.564706 0 0 0 0.5 0"/>
<feBlend mode="normal" in2="BackgroundImageFix" result="effect1_dropShadow_904_31778"/>
<feBlend mode="normal" in="SourceGraphic" in2="effect1_dropShadow_904_31778" result="shape"/>
</filter>
<clipPath id="clip0_904_31778">
<rect width="68.75" height="68.75" fill="white" transform="translate(26.75 14.625)"/>
</clipPath>
</defs>
</svg>
