<svg width="26" height="26" viewBox="0 0 26 26" fill="none" xmlns="http://www.w3.org/2000/svg">
<circle cx="13" cy="13" r="13" fill="#EBFAE8"/>
<rect width="20" height="20" transform="translate(3 2.5)" fill="#EBFAE8"/>
<path d="M9.66663 9.16667C9.66663 8.50362 9.97392 7.86774 10.5209 7.3989C11.0679 6.93006 11.8097 6.66667 12.5833 6.66667H13.4166C14.1902 6.66667 14.932 6.93006 15.479 7.3989C16.026 7.86774 16.3333 8.50362 16.3333 9.16667C16.364 9.70771 16.218 10.2441 15.9174 10.695C15.6168 11.1459 15.1779 11.4869 14.6666 11.6667C14.1554 11.9064 13.7164 12.361 13.4158 12.9622C13.1152 13.5634 12.9693 14.2786 13 15" stroke="#009A44" stroke-width="2" stroke-linecap="round" stroke-linejoin="round"/>
<path d="M13 18.3333V18.3417" stroke="#009A44" stroke-width="2" stroke-linecap="round" stroke-linejoin="round"/>
</svg>
