<svg width="50" height="50" viewBox="0 0 50 50" fill="none" xmlns="http://www.w3.org/2000/svg">
<circle cx="30" cy="30" r="20" fill="#F5F6FA"/>
<path d="M35.5384 12.1045H16.3949V18.7716H35.5384C36.4225 18.7716 37.2704 18.4204 37.8956 17.7952C38.5208 17.17 38.872 16.3221 38.872 15.438C38.872 14.5539 38.5208 13.706 37.8956 13.0809C37.2704 12.4557 36.4225 12.1045 35.5384 12.1045Z" fill="#F5F6FA"/>
<path d="M11.1822 6.2265C9.61493 6.2265 8.11186 6.84909 7.00364 7.95732C5.89542 9.06554 5.27283 10.5686 5.27283 12.1359V29.6673H17.0919V12.1359C17.0918 10.5686 16.4691 9.06551 15.3609 7.95729C14.2526 6.84908 12.7495 6.2265 11.1822 6.2265Z" fill="#D1D5DA"/>
<path d="M18.3647 28.7733H4.00012C3.46966 28.7733 2.96092 28.984 2.58582 29.3591C2.21073 29.7342 2 30.2429 2 30.7734V33.7736H20.3648V30.7734C20.3648 30.2429 20.1541 29.7342 19.779 29.3591C19.4039 28.984 18.8951 28.7733 18.3647 28.7733Z" fill="#777A90"/>
<path d="M18.174 18.7716H23.3976L25.4044 12.1046H20.1807L18.174 18.7716Z" fill="#009A44"/>
<path d="M27.448 18.7716H32.6717L34.6751 12.1046H29.4548L27.448 18.7716Z" fill="#009A44"/>
<path d="M12.5157 13.5439H9.8489C8.92837 13.5439 8.18213 14.2902 8.18213 15.2107V22.3325C8.18213 23.253 8.92837 23.9993 9.8489 23.9993H12.5157C13.4363 23.9993 14.1825 23.253 14.1825 22.3325V15.2107C14.1825 14.2902 13.4363 13.5439 12.5157 13.5439Z" fill="white"/>
</svg>
