<svg width="50" height="50" viewBox="0 0 50 50" fill="none" xmlns="http://www.w3.org/2000/svg">
<circle cx="30" cy="30" r="20" fill="#F5F6FA"/>
<path d="M20 37.8125C36.9253 33.0528 34.2144 23.6772 32.14 17.5728C29.9128 11.0178 32.9091 6.46031 32.9091 6.46031C23.4062 5.86656 20 2.1875 20 2.1875C20 2.1875 16.5938 5.86656 7.09094 6.46031C7.09094 6.46031 10.0872 11.0178 7.86 17.5728C5.78563 23.6772 3.07469 33.0528 20 37.8125Z" fill="#F5F6FA"/>
<path d="M11.4016 9.10341C12.0896 12.2546 11.8878 15.535 10.8188 18.5781C9.68411 21.9168 8.70443 25.4197 10.2322 28.3218C11.5938 30.9062 14.8766 33.0018 20.0001 34.5571C25.1251 33.0018 28.4063 30.9062 29.7679 28.3218C31.2957 25.4197 30.316 21.9156 29.1813 18.5781C28.1121 15.535 27.9103 12.2546 28.5985 9.10341C24.5022 8.39279 21.7285 7.13435 20.0001 6.07904C18.2716 7.13435 15.4979 8.39279 11.4016 9.10341Z" fill="#D1D5DA"/>
<path d="M20 26.8813C23.6247 26.8813 26.5631 23.9428 26.5631 20.3181C26.5631 16.6934 23.6247 13.755 20 13.755C16.3753 13.755 13.4369 16.6934 13.4369 20.3181C13.4369 23.9428 16.3753 26.8813 20 26.8813Z" fill="#F5F6FA"/>
<path d="M24.0931 18.5612L22.71 17.1781L19.195 20.6931L17.29 18.7881L15.9069 20.1712L19.1934 23.4578L19.195 23.4562L19.1965 23.4578L24.0931 18.5612Z" fill="#009A44"/>
</svg>
