<svg width="50" height="50" viewBox="0 0 50 50" fill="none" xmlns="http://www.w3.org/2000/svg">
<circle cx="30" cy="30" r="20" fill="#F5F6FA"/>
<path d="M27.1875 27.6V23.025H24.2309C23.9916 22.0211 23.5933 21.062 23.0509 20.1841L25.1447 18.0903L21.9088 14.8559L19.815 16.9497C18.9374 16.4071 17.9786 16.0084 16.975 15.7687V12.8125H12.3997V15.7728C11.397 16.0127 10.4388 16.4102 9.56063 16.9503L7.46687 14.8566L4.23094 18.0912L6.32469 20.185C5.78459 21.0632 5.38726 22.0216 5.1475 23.0244H2.1875V27.6H5.14406C5.38317 28.6038 5.78155 29.5628 6.32406 30.4406L4.23031 32.5344L7.46562 35.7697L9.55937 33.6759C10.4372 34.2183 11.3962 34.6167 12.4 34.8559V37.8125H16.975V34.8519C17.9778 34.612 18.9361 34.2146 19.8144 33.6744L21.9081 35.7681L25.1434 32.5328L23.0497 30.4391C23.59 29.5609 23.9874 28.6025 24.2272 27.5997L27.1875 27.6ZM14.6875 28.3778C14.0812 28.3779 13.4884 28.1981 12.9842 27.8613C12.48 27.5245 12.087 27.0457 11.855 26.4855C11.6229 25.9253 11.5622 25.3089 11.6805 24.7142C11.7987 24.1195 12.0907 23.5732 12.5195 23.1445C12.9482 22.7157 13.4945 22.4237 14.0892 22.3055C14.6839 22.1872 15.3003 22.2479 15.8605 22.48C16.4207 22.712 16.8995 23.105 17.2363 23.6092C17.5731 24.1134 17.7529 24.7062 17.7528 25.3125C17.7527 26.1254 17.4298 26.9051 16.8549 27.4799C16.2801 28.0548 15.5004 28.3777 14.6875 28.3778Z" fill="#009A44"/>
<path d="M37.8125 10.7122V8.07469H36.1081C35.9702 7.49605 35.7405 6.94322 35.4278 6.43719L36.6344 5.23062L34.7694 3.36563L33.5625 4.57219C33.0565 4.25949 32.5036 4.02981 31.925 3.89188V2.1875H29.2875V3.89406C28.7095 4.03246 28.157 4.26155 27.6506 4.57281L26.4438 3.36563L24.5788 5.23062L25.7859 6.4375C25.4747 6.94386 25.2456 7.49633 25.1072 8.07437H23.4006V10.7119H25.105C25.2429 11.2906 25.4726 11.8436 25.7853 12.3497L24.5788 13.5559L26.4438 15.4212L27.65 14.2147C28.1563 14.5271 28.7092 14.7568 29.2878 14.895V16.5991H31.9253V14.8928C32.5034 14.7544 33.0558 14.5253 33.5622 14.2141L34.7694 15.4216L36.6344 13.5562L35.4272 12.3491C35.7385 11.8427 35.9675 11.2902 36.1059 10.7122H37.8125ZM30.6066 12.4591C30.0002 12.4591 29.4075 12.2794 28.9033 11.9426C28.3991 11.6057 28.0062 11.127 27.7741 10.5668C27.542 10.0067 27.4812 9.39025 27.5995 8.79555C27.7178 8.20086 28.0097 7.65459 28.4384 7.22582C28.8671 6.79706 29.4134 6.50505 30.0081 6.38674C30.6028 6.26843 31.2192 6.32912 31.7793 6.56114C32.3395 6.79316 32.8183 7.18609 33.1552 7.69023C33.4921 8.19438 33.6719 8.7871 33.6719 9.39344C33.6719 10.2064 33.3489 10.9861 32.7741 11.5611C32.1992 12.136 31.4196 12.459 30.6066 12.4591Z" fill="#D1D5DA"/>
<path d="M21.8934 26.6313V23.9938H20.1891C20.0511 23.415 19.8215 22.8621 19.5087 22.3559L20.7153 21.1494L18.8503 19.2847L17.6437 20.4909C17.1376 20.1785 16.5848 19.9488 16.0063 19.8106V18.1066H13.3688V19.8125C12.7907 19.9509 12.2382 20.18 11.7319 20.4913L10.5247 19.2841L8.65969 21.1488L9.86688 22.3563C9.55533 22.8628 9.32603 23.4155 9.1875 23.9938H7.48157V26.6313H9.1875C9.32544 27.2099 9.55512 27.7627 9.86782 28.2688L8.66125 29.4753L10.5263 31.3403L11.7328 30.1338C12.2388 30.4465 12.7917 30.6762 13.3703 30.8141V32.5184H16.0078V30.8125C16.5859 30.6744 17.1384 30.4454 17.6447 30.1341L18.8519 31.3413L20.7169 29.4763L19.5097 28.2691C19.8207 27.7624 20.0495 27.2096 20.1875 26.6313H21.8934ZM14.6875 28.3778C14.0812 28.3779 13.4884 28.1981 12.9842 27.8613C12.48 27.5245 12.087 27.0457 11.855 26.4855C11.6229 25.9253 11.5622 25.3089 11.6805 24.7142C11.7987 24.1195 12.0907 23.5732 12.5195 23.1445C12.9482 22.7157 13.4945 22.4237 14.0892 22.3055C14.6839 22.1872 15.3003 22.2479 15.8605 22.48C16.4207 22.7121 16.8995 23.105 17.2363 23.6092C17.5731 24.1134 17.7529 24.7062 17.7528 25.3125C17.7527 26.1254 17.4298 26.9051 16.8549 27.4799C16.2801 28.0548 15.5004 28.3777 14.6875 28.3778Z" fill="#D1D5DA"/>
</svg>
