<svg width="24" height="24" viewBox="0 0 24 24" fill="none" xmlns="http://www.w3.org/2000/svg">
<g clip-path="url(#clip0_91_102044)">
<path d="M4.3125 19.7812H11.625V21.1875H4.3125V19.7812Z" fill="#009A44"/>
<path d="M9.42188 2.8125H12.2812V4.21875H9.42188V2.8125Z" fill="#009A44"/>
<path d="M5.0625 3.51562C5.0625 3.90399 4.74774 4.21875 4.35938 4.21875C3.97101 4.21875 3.65625 3.90399 3.65625 3.51562C3.65625 3.12726 3.97101 2.8125 4.35938 2.8125C4.74774 2.8125 5.0625 3.12726 5.0625 3.51562Z" fill="#009A44"/>
<path d="M7.875 3.51562C7.875 3.90399 7.56024 4.21875 7.17188 4.21875C6.78351 4.21875 6.46875 3.90399 6.46875 3.51562C6.46875 3.12726 6.78351 2.8125 7.17188 2.8125C7.56024 2.8125 7.875 3.12726 7.875 3.51562Z" fill="#009A44"/>
<path d="M15.2344 6.89062V2.10938C15.2344 0.946289 14.2881 0 13.125 0H2.8125C1.64941 0 0.703125 0.946289 0.703125 2.10938V21.8906C0.703125 23.0537 1.64941 24 2.8125 24H13.125C14.2881 24 15.2344 23.0537 15.2344 21.8906V17.5781H23.25V6.89062H15.2344ZM20.484 8.29688L14.5312 12.718L8.57849 8.29688H20.484ZM13.8281 21.8906C13.8281 22.2783 13.5126 22.5938 13.125 22.5938H2.8125C2.42487 22.5938 2.10938 22.2783 2.10938 21.8906V2.10938C2.10938 1.72174 2.42487 1.40625 2.8125 1.40625H13.125C13.5126 1.40625 13.8281 1.72174 13.8281 2.10938V6.89062H5.8125V17.5781H13.8281V21.8906ZM21.8438 16.1719H7.21875V9.03864L14.5312 14.4695L21.8438 9.03864V16.1719Z" fill="#009A44"/>
</g>
<defs>
<clipPath id="clip0_91_102044">
<rect width="24" height="24" fill="white"/>
</clipPath>
</defs>
</svg>
