<svg width="24" height="24" viewBox="0 0 24 24" fill="none" xmlns="http://www.w3.org/2000/svg">
<g clip-path="url(#clip0_91_102025)">
<path d="M16.8603 19.1673L14.6329 16.9399C13.9903 16.2973 12.9446 16.2974 12.3021 16.9399L11.3235 17.9185C9.08853 16.7481 7.25187 14.9115 6.0815 12.6765L7.06011 11.6978C7.70267 11.0552 7.70267 10.0096 7.06011 9.36698L4.83279 7.13967C4.19018 6.49706 3.14454 6.49706 2.50194 7.13967L0.720077 8.92158C-0.210954 9.85256 -0.240064 11.4938 0.638092 13.5428C1.42972 15.39 2.88265 17.4242 4.7292 19.2708C6.57575 21.1173 8.60998 22.5703 10.4571 23.3619C11.4503 23.7875 12.3475 24 13.1146 24C13.9302 24 14.5986 23.7597 15.0784 23.28L16.8603 21.4981C17.1716 21.1868 17.343 20.7729 17.343 20.3326C17.3431 19.8925 17.1716 19.4786 16.8603 19.1673ZM15.8658 20.5036L14.0839 22.2855C13.6015 22.7679 12.4528 22.6871 11.0111 22.0693C9.3245 21.3464 7.44668 19.9994 5.72361 18.2763C4.00058 16.5533 2.65353 14.6755 1.93067 12.9889C1.31286 11.5472 1.23195 10.3985 1.71444 9.91608L3.49629 8.13422C3.59061 8.03995 3.74398 8.03995 3.83825 8.13422L6.06556 10.3615C6.15983 10.4558 6.15983 10.6092 6.06556 10.7034L4.37876 12.3903L4.59092 12.8381C5.95292 15.7134 8.28654 18.0471 11.1619 19.4091L11.6097 19.6212L13.2965 17.9344C13.3581 17.8728 13.4301 17.8636 13.4675 17.8636C13.5049 17.8636 13.5768 17.8728 13.6384 17.9344L15.8657 20.1617C15.9273 20.2233 15.9365 20.2952 15.9365 20.3326C15.9366 20.3701 15.9274 20.442 15.8658 20.5036Z" fill="#009A44"/>
<path d="M21.8322 1.81697C20.4652 0.645281 18.6545 0 16.7337 0C14.8129 0 13.0021 0.645281 11.6352 1.81697C10.2372 3.01523 9.46729 4.61756 9.46729 6.32878C9.46729 8.04 10.2372 9.64228 11.6352 10.8406C11.8857 11.0553 12.1512 11.2522 12.4295 11.4308C11.9157 12.205 11.315 12.9166 10.6393 13.5497C12.1131 13.4278 13.5104 13.0373 14.7832 12.4281C15.4107 12.5792 16.0655 12.6576 16.7337 12.6576C18.6545 12.6576 20.4652 12.0123 21.8322 10.8406C23.2302 9.64238 24.0001 8.04 24.0001 6.32878C24.0001 4.61756 23.2302 3.01528 21.8322 1.81697ZM16.7337 11.2512C13.5025 11.2512 10.8737 9.04299 10.8737 6.32878C10.8737 3.61458 13.5025 1.40639 16.7337 1.40639C19.9649 1.40639 22.5937 3.61458 22.5937 6.32878C22.5937 9.04299 19.9649 11.2512 16.7337 11.2512Z" fill="#009A44"/>
<path d="M16.734 7.26642C17.2518 7.26642 17.6716 6.84665 17.6716 6.32883C17.6716 5.81101 17.2518 5.39124 16.734 5.39124C16.2162 5.39124 15.7964 5.81101 15.7964 6.32883C15.7964 6.84665 16.2162 7.26642 16.734 7.26642Z" fill="#009A44"/>
<path d="M13.4522 7.26642C13.9701 7.26642 14.3898 6.84665 14.3898 6.32883C14.3898 5.81101 13.9701 5.39124 13.4522 5.39124C12.9344 5.39124 12.5146 5.81101 12.5146 6.32883C12.5146 6.84665 12.9344 7.26642 13.4522 7.26642Z" fill="#009A44"/>
<path d="M20.0152 7.26642C20.533 7.26642 20.9528 6.84665 20.9528 6.32883C20.9528 5.81101 20.533 5.39124 20.0152 5.39124C19.4974 5.39124 19.0776 5.81101 19.0776 6.32883C19.0776 6.84665 19.4974 7.26642 20.0152 7.26642Z" fill="#009A44"/>
</g>
<defs>
<clipPath id="clip0_91_102025">
<rect width="24" height="24" fill="white"/>
</clipPath>
</defs>
</svg>
