<svg width="40" height="40" viewBox="0 0 40 40" fill="none" xmlns="http://www.w3.org/2000/svg">
<g clip-path="url(#clip0_83_61557)">
<path d="M35.3676 34.3752V40H4.63221V34.3752C4.62634 26.5014 11.0045 20.1137 18.8783 20.1078H18.8996H21.1002C28.974 20.1019 35.3617 26.4801 35.3676 34.3539V34.3752Z" fill="#777A90"/>
<path d="M30.0911 10.0529C30.0736 15.6138 25.5586 20.1115 19.9976 20.1078C18.8575 20.1107 17.7255 19.9177 16.6508 19.5371C11.4181 17.67 8.68976 11.9145 10.5568 6.68182C12.4238 1.44913 18.1793 -1.27924 23.412 0.587762C27.4139 2.01569 30.0871 5.80398 30.0911 10.0529Z" fill="#D1D5DA"/>
<path d="M10.2231 7.60373C12.3092 8.38351 14.5205 8.77436 16.7475 8.75676C21.9225 8.75676 26.3367 6.79706 28.0729 4.04079C24.731 -0.417582 18.4075 -1.32272 13.9492 2.01921C12.1061 3.40083 10.7912 5.37146 10.2231 7.60373Z" fill="#777A90"/>
<path d="M29.1238 32.2941C28.6566 32.2938 28.2777 32.6723 28.2774 33.1395V33.1405V39.9999H29.9701V33.1405C29.9704 32.6733 29.5919 32.2944 29.1247 32.2941C29.1245 32.2941 29.1241 32.2941 29.1238 32.2941ZM11.1904 32.2941C10.7232 32.2938 10.3443 32.6723 10.344 33.1395V33.1405V39.9999H12.0367V33.1405C12.037 32.6733 11.6585 32.2944 11.1913 32.2941C11.191 32.2941 11.1907 32.2941 11.1904 32.2941Z" fill="#D1D5DA"/>
<path d="M23.3927 20.2916C23.2977 22.1654 21.7018 23.6073 19.828 23.5124C18.0871 23.4241 16.6954 22.0325 16.6072 20.2916C17.3652 20.1691 18.1318 20.1076 18.8996 20.1078H21.1001C21.8681 20.1074 22.6347 20.1688 23.3927 20.2916Z" fill="#009A44"/>
<path d="M16.8829 31.8318C16.8829 35.3589 18.7589 36.2842 20.1378 36.2842C21.5167 36.2842 23.3927 35.359 23.3927 31.8318C23.3927 28.3045 21.9355 23.5131 20.1378 23.5131C18.3402 23.5131 16.8829 28.3045 16.8829 31.8318Z" fill="#009A44"/>
</g>
<defs>
<clipPath id="clip0_83_61557">
<rect width="40" height="40" fill="white"/>
</clipPath>
</defs>
</svg>
