<svg width="36" height="36" viewBox="0 0 36 36" fill="none" xmlns="http://www.w3.org/2000/svg">
<path d="M25.1875 25.6V21.025H22.2309C21.9916 20.0211 21.5933 19.062 21.0509 18.1841L23.1447 16.0903L19.9088 12.8559L17.815 14.9497C16.9374 14.4071 15.9786 14.0084 14.975 13.7687V10.8125H10.3997V13.7728C9.39703 14.0127 8.43877 14.4102 7.56063 14.9503L5.46687 12.8566L2.23094 16.0912L4.32469 18.185C3.78459 19.0632 3.38726 20.0216 3.1475 21.0244H0.1875V25.6H3.14406C3.38317 26.6038 3.78155 27.5628 4.32406 28.4406L2.23031 30.5344L5.46562 33.7697L7.55937 31.6759C8.43721 32.2183 9.39622 32.6167 10.4 32.8559V35.8125H14.975V32.8519C15.9778 32.612 16.9361 32.2146 17.8144 31.6744L19.9081 33.7681L23.1434 30.5328L21.0497 28.4391C21.59 27.5609 21.9874 26.6025 22.2272 25.5997L25.1875 25.6ZM12.6875 26.3778C12.0812 26.3779 11.4884 26.1981 10.9842 25.8613C10.48 25.5245 10.087 25.0457 9.85498 24.4855C9.62291 23.9253 9.56217 23.3089 9.68045 22.7142C9.79873 22.1195 10.0907 21.5732 10.5195 21.1445C10.9482 20.7157 11.4945 20.4237 12.0892 20.3055C12.6839 20.1872 13.3003 20.2479 13.8605 20.48C14.4207 20.712 14.8995 21.105 15.2363 21.6092C15.5731 22.1134 15.7529 22.7062 15.7528 23.3125C15.7527 24.1254 15.4298 24.9051 14.8549 25.4799C14.2801 26.0548 13.5004 26.3777 12.6875 26.3778Z" fill="#009A44"/>
<path d="M35.8125 8.71219V6.07469H34.1081C33.9702 5.49605 33.7405 4.94322 33.4278 4.43719L34.6344 3.23062L32.7694 1.36563L31.5625 2.57219C31.0565 2.25949 30.5036 2.02981 29.925 1.89188V0.1875H27.2875V1.89406C26.7095 2.03246 26.157 2.26155 25.6506 2.57281L24.4438 1.36563L22.5788 3.23062L23.7859 4.4375C23.4747 4.94386 23.2456 5.49633 23.1072 6.07437H21.4006V8.71187H23.105C23.2429 9.29063 23.4726 9.84357 23.7853 10.3497L22.5788 11.5559L24.4438 13.4212L25.65 12.2147C26.1563 12.5271 26.7092 12.7568 27.2878 12.895V14.5991H29.9253V12.8928C30.5034 12.7544 31.0558 12.5253 31.5622 12.2141L32.7694 13.4216L34.6344 11.5562L33.4272 10.3491C33.7385 9.8427 33.9675 9.29023 34.1059 8.71219H35.8125ZM28.6066 10.4591C28.0002 10.4591 27.4075 10.2794 26.9033 9.94256C26.3991 9.60574 26.0062 9.12698 25.7741 8.56682C25.542 8.00665 25.4812 7.39025 25.5995 6.79555C25.7178 6.20086 26.0097 5.65459 26.4384 5.22582C26.8671 4.79706 27.4134 4.50505 28.0081 4.38674C28.6028 4.26843 29.2192 4.32912 29.7793 4.56114C30.3395 4.79316 30.8183 5.18609 31.1552 5.69023C31.4921 6.19438 31.6719 6.7871 31.6719 7.39344C31.6719 8.20644 31.3489 8.98614 30.7741 9.56105C30.1992 10.136 29.4196 10.459 28.6066 10.4591Z" fill="#D1D5DA"/>
<path d="M19.8934 24.6313V21.9938H18.1891C18.0511 21.415 17.8215 20.8621 17.5087 20.3559L18.7153 19.1494L16.8503 17.2847L15.6437 18.4909C15.1376 18.1785 14.5848 17.9488 14.0063 17.8106V16.1066H11.3688V17.8125C10.7907 17.9509 10.2382 18.18 9.73188 18.4913L8.52469 17.2841L6.65969 19.1488L7.86688 20.3563C7.55533 20.8628 7.32603 21.4155 7.1875 21.9938H5.48157V24.6313H7.1875C7.32544 25.2099 7.55512 25.7627 7.86782 26.2688L6.66125 27.4753L8.52625 29.3403L9.73281 28.1338C10.2388 28.4465 10.7917 28.6762 11.3703 28.8141V30.5184H14.0078V28.8125C14.5859 28.6744 15.1384 28.4454 15.6447 28.1341L16.8519 29.3413L18.7169 27.4763L17.5097 26.2691C17.8207 25.7624 18.0495 25.2096 18.1875 24.6313H19.8934ZM12.6875 26.3778C12.0812 26.3779 11.4884 26.1981 10.9842 25.8613C10.48 25.5245 10.087 25.0457 9.85498 24.4855C9.62291 23.9253 9.56218 23.3089 9.68046 22.7142C9.79873 22.1195 10.0907 21.5732 10.5195 21.1445C10.9482 20.7157 11.4945 20.4237 12.0892 20.3055C12.6839 20.1872 13.3003 20.2479 13.8605 20.48C14.4207 20.7121 14.8995 21.105 15.2363 21.6092C15.5731 22.1134 15.7529 22.7062 15.7528 23.3125C15.7527 24.1254 15.4298 24.9051 14.8549 25.4799C14.2801 26.0548 13.5004 26.3777 12.6875 26.3778Z" fill="#D1D5DA"/>
</svg>
