<svg width="32" height="40" viewBox="0 0 32 40" fill="none" xmlns="http://www.w3.org/2000/svg">
<path d="M28.909 18.9129L29.3857 23.1827L25.446 24.9011L23.7276 28.8408L22.5017 28.7047L19.4578 28.3641L16 30.9103L12.5422 28.3641L9.49836 28.7047L8.27244 28.8408L6.55404 24.9011L2.61433 23.1827L3.09105 18.9129L0.544922 15.4552L3.09105 11.9974L2.61433 7.72752L6.55404 6.00912L8.27244 2.0694L12.5422 2.54613L16 0L19.4578 2.54613L23.7276 2.0694L25.446 6.00912L29.3857 7.72752L28.909 11.9974L31.4551 15.4552L28.909 18.9129Z" fill="#D1D5DA"/>
<path d="M15.9998 23.6428C20.5217 23.6428 24.1874 19.9771 24.1874 15.4552C24.1874 10.9333 20.5217 7.26758 15.9998 7.26758C11.478 7.26758 7.81226 10.9333 7.81226 15.4552C7.81226 19.9771 11.478 23.6428 15.9998 23.6428Z" fill="#009A44"/>
<path d="M22.5016 28.7047V40L15.9999 36.7675L9.49829 40V28.7047L12.5422 28.3641L15.9999 30.9103L19.4577 28.3641L22.5016 28.7047Z" fill="#777A90"/>
</svg>
